<?xml version="1.0" encoding="iso-8859-1"?>
<!-- Generator: Adobe Illustrator 22.0.0, SVG Export Plug-In . SVG Version: 6.00 Build 0)  -->
<svg version="1.1" id="&#x56FE;&#x5C42;_1" xmlns="http://www.w3.org/2000/svg" xmlns:xlink="http://www.w3.org/1999/xlink" x="0px"
	 y="0px" viewBox="0 0 1920 1145" style="enable-background:new 0 0 1920 1145;" xml:space="preserve">
<g>
	<defs>
		<rect id="SVGID_1_" width="1920" height="1145"/>
	</defs>
	<clipPath id="SVGID_2_">
		<use xlink:href="#SVGID_1_"  style="overflow:visible;"/>
	</clipPath>
	<g style="clip-path:url(#SVGID_2_);">
		
			<linearGradient id="SVGID_3_" gradientUnits="userSpaceOnUse" x1="932.0389" y1="11.5985" x2="931.9389" y2="13.4985" gradientTransform="matrix(1920 0 0 882.94 -1788508 -10231.0498)">
			<stop  offset="0" style="stop-color:#4A93FD"/>
			<stop  offset="1" style="stop-color:#4A93FD"/>
		</linearGradient>
		<path style="fill:url(#SVGID_3_);" d="M0-0.8h1920v837c0,0-466.8,46-946.8,46S0,836.1,0,836.1V-0.8z"/>
		<path style="opacity:0.2;fill:#3F1ABB;enable-background:new    ;" d="M924,323.6l586.6-492.3
			c133.625-112.114,332.836-94.675,444.95,38.95c112.114,133.625,94.675,332.836-38.95,444.95l0,0L1330,807.4
			c-132.802,113.062-332.114,97.06-445.176-35.742s-97.06-332.114,35.742-445.176C921.703,325.513,922.848,324.553,924,323.6
			L924,323.6z"/>
		
			<linearGradient id="SVGID_4_" gradientUnits="userSpaceOnUse" x1="928.6022" y1="9.2492" x2="928.6022" y2="10.2496" gradientTransform="matrix(212.0787 -56.8263 56.8263 212.0787 -196066.2031 51417.8086)">
			<stop  offset="0" style="stop-color:#FEB02E"/>
			<stop  offset="1" style="stop-color:#FEB02E;stop-opacity:0.9"/>
		</linearGradient>
		<circle style="fill:url(#SVGID_4_);" cx="1458.4" cy="842.8" r="109.8"/>
		<g style="opacity:0.5;">
			<path style="opacity:0.2;fill:#DEDEDE;enable-background:new    ;" d="M241.6,768.4h289.2c3.496,0,6.345,2.805,6.4,6.3
				c0,3.535-2.865,6.4-6.4,6.4h0H241.6c-3.535,0-6.4-2.865-6.4-6.4l0,0c0-3.535,2.865-6.4,6.4-6.4h0V768.4z M398.6,816.7h199.3
				c3.496,0,6.345,2.805,6.4,6.3c0,3.535-2.865,6.4-6.4,6.4h0H398.6c-3.535,0-6.4-2.865-6.4-6.4l0,0
				C392.255,819.505,395.104,816.7,398.6,816.7z M255,816.7h124.1c3.496,0,6.345,2.805,6.4,6.3c0,3.535-2.865,6.4-6.4,6.4
				c0,0,0,0,0,0H255c-3.535,0-6.4-2.865-6.4-6.4l0,0C248.655,819.505,251.504,816.7,255,816.7z M266.4,744.2H359
				c3.535,0,6.4,2.865,6.4,6.4l0,0c0,3.535-2.865,6.4-6.4,6.4c0,0,0,0,0,0h-92.6c-3.535,0-6.4-2.865-6.4-6.4l0,0
				C260,747.065,262.865,744.2,266.4,744.2C266.4,744.2,266.4,744.2,266.4,744.2z M333.5,792.5h92.6c3.535,0,6.4,2.865,6.4,6.4l0,0
				c0,3.535-2.865,6.4-6.4,6.4c0,0,0,0,0,0h-92.6c-3.535,0-6.4-2.865-6.4-6.4l0,0C327.1,795.365,329.965,792.5,333.5,792.5
				C333.5,792.5,333.5,792.5,333.5,792.5z M221.4,792.5H314c3.535,0,6.4,2.865,6.4,6.4l0,0c0,3.535-2.865,6.4-6.4,6.4c0,0,0,0,0,0
				h-92.6c-3.496-0.055-6.3-2.904-6.3-6.4C215.1,795.404,217.904,792.555,221.4,792.5z M378.5,744.2H471
				c3.496,0.055,6.3,2.904,6.3,6.4c0,3.496-2.804,6.345-6.3,6.4h-92.6c-3.535,0-6.4-2.865-6.4-6.4l0,0c0-3.535,2.865-6.4,6.4-6.4
				c0,0,0,0,0,0H378.5z M445.6,792.5h92.6c3.495,0.055,6.3,2.904,6.3,6.4c0,3.496-2.805,6.345-6.3,6.4h-92.6
				c-3.535,0-6.4-2.865-6.4-6.4l0,0C439.2,795.365,442.065,792.5,445.6,792.5C445.6,792.5,445.6,792.5,445.6,792.5z M490.5,744.2
				h92.6c3.535,0,6.4,2.865,6.4,6.4v0c0,3.535-2.865,6.4-6.4,6.4h0h-92.6c-3.535,0-6.4-2.865-6.4-6.4l0,0
				C484.1,747.065,486.965,744.2,490.5,744.2C490.5,744.2,490.5,744.2,490.5,744.2L490.5,744.2z M551,768.4h136
				c3.496,0,6.345,2.805,6.4,6.3c0,3.535-2.865,6.4-6.4,6.4h0H551c-3.535,0-6.4-2.865-6.4-6.4v0c0-3.535,2.865-6.4,6.4-6.4h0V768.4z
				 M557.6,792.5h92.6c3.535,0,6.4,2.865,6.4,6.4v0c0,3.535-2.865,6.4-6.4,6.4h0h-92.6c-3.535,0-6.4-2.865-6.4-6.4v0
				C551.2,795.365,554.065,792.5,557.6,792.5L557.6,792.5z"/>
		</g>
		<g style="opacity:0.5;">
			<path style="opacity:0.2;fill:#DEDEDE;enable-background:new    ;" d="M246.7,669.3h289.2c3.535,0,6.4,2.865,6.4,6.4v0
				c0,3.535-2.865,6.4-6.4,6.4h0H246.7c-3.535,0-6.4-2.865-6.4-6.4l0,0C240.3,672.165,243.165,669.3,246.7,669.3L246.7,669.3z
				 M403.7,717.6H603c3.535,0,6.4,2.865,6.4,6.4v0c0,3.535-2.865,6.4-6.4,6.4h0H403.7c-3.535,0-6.4-2.865-6.4-6.4l0,0
				C397.3,720.465,400.165,717.6,403.7,717.6C403.7,717.6,403.7,717.6,403.7,717.6z M260.1,717.6h124.1c3.535,0,6.4,2.865,6.4,6.4
				l0,0c0,3.535-2.865,6.4-6.4,6.4c0,0,0,0,0,0H260.1c-3.535,0-6.4-2.865-6.4-6.4l0,0C253.7,720.465,256.565,717.6,260.1,717.6
				C260.1,717.6,260.1,717.6,260.1,717.6z M271.5,645.2h92.6c3.496,0,6.345,2.805,6.4,6.3c0,3.535-2.865,6.4-6.4,6.4c0,0,0,0,0,0
				h-92.6c-3.535,0-6.4-2.865-6.4-6.4l0,0C265.155,648.005,268.004,645.2,271.5,645.2z M338.6,693.5h92.6c3.535,0,6.4,2.865,6.4,6.4
				l0,0c-0.055,3.495-2.904,6.3-6.4,6.3h-92.6c-3.496,0-6.345-2.805-6.4-6.3C332.2,696.365,335.065,693.5,338.6,693.5
				C338.6,693.5,338.6,693.5,338.6,693.5z M226.6,693.5h92.6c3.496,0.055,6.3,2.904,6.3,6.4c-0.055,3.495-2.904,6.3-6.4,6.3h-92.6
				c-3.457-0.054-6.246-2.843-6.3-6.3C220.2,696.365,223.065,693.5,226.6,693.5L226.6,693.5L226.6,693.5z M383.6,645.2h92.6
				c3.457,0.054,6.246,2.843,6.3,6.3c0,3.496-2.804,6.345-6.3,6.4h-92.6c-3.535,0-6.4-2.865-6.4-6.4l0,0
				C377.255,648.005,380.104,645.2,383.6,645.2z M450.7,693.5h92.6c3.495,0.055,6.3,2.904,6.3,6.4c-0.054,3.457-2.843,6.246-6.3,6.3
				h-92.6c-3.496,0-6.345-2.805-6.4-6.3C444.3,696.365,447.165,693.5,450.7,693.5C450.7,693.5,450.7,693.5,450.7,693.5L450.7,693.5z
				 M495.6,645.2h92.6c3.496,0,6.345,2.805,6.4,6.3c0,3.535-2.865,6.4-6.4,6.4h0h-92.6c-3.535,0-6.4-2.865-6.4-6.4l0,0
				C489.255,648.005,492.104,645.2,495.6,645.2z M556,669.3h136.2c3.535,0,6.4,2.865,6.4,6.4v0c0,3.535-2.865,6.4-6.4,6.4h0H556
				c-3.535,0-6.4-2.865-6.4-6.4v0C549.6,672.165,552.465,669.3,556,669.3L556,669.3z M562.7,693.5h92.6c3.535,0,6.4,2.865,6.4,6.4v0
				c-0.055,3.495-2.904,6.3-6.4,6.3h-92.6c-3.496,0-6.345-2.805-6.4-6.3C556.3,696.365,559.165,693.5,562.7,693.5L562.7,693.5z"/>
		</g>
		<g style="opacity:0.5;">
			<path style="opacity:0.2;fill:#DEDEDE;enable-background:new    ;" d="M241.6,871.5h289.2c3.496,0,6.345,2.805,6.4,6.3
				c0,3.535-2.865,6.4-6.4,6.4h0H241.6c-3.535,0-6.4-2.865-6.4-6.4l0,0C235.255,874.305,238.104,871.5,241.6,871.5z M398.6,919.8
				h199.3c3.535,0,6.4,2.865,6.4,6.4v0c-0.055,3.495-2.904,6.3-6.4,6.3H398.6c-3.535,0-6.4-2.865-6.4-6.4l0,0
				C392.255,922.604,395.104,919.8,398.6,919.8z M255,919.8h124.1c3.535,0,6.4,2.865,6.4,6.4l0,0c-0.055,3.495-2.904,6.3-6.4,6.3
				H255c-3.535,0-6.4-2.865-6.4-6.4l0,0C248.655,922.604,251.504,919.8,255,919.8z M266.4,847.3H359c3.535,0,6.4,2.865,6.4,6.4l0,0
				c0,3.535-2.865,6.4-6.4,6.4c0,0,0,0,0,0h-92.6c-3.535,0-6.4-2.865-6.4-6.4l0,0C260,850.165,262.865,847.3,266.4,847.3
				C266.4,847.3,266.4,847.3,266.4,847.3z M333.5,895.6h92.6c3.535,0,6.4,2.865,6.4,6.4l0,0c0,3.535-2.865,6.4-6.4,6.4c0,0,0,0,0,0
				h-92.6c-3.535,0-6.4-2.865-6.4-6.4l0,0C327.1,898.465,329.965,895.6,333.5,895.6C333.5,895.6,333.5,895.6,333.5,895.6z
				 M221.4,895.6H314c3.535,0,6.4,2.865,6.4,6.4l0,0c0,3.535-2.865,6.4-6.4,6.4c0,0,0,0,0,0h-92.6c-3.496-0.055-6.3-2.904-6.3-6.4
				C215.1,898.504,217.904,895.655,221.4,895.6z M378.5,847.3H471c3.496,0.055,6.3,2.904,6.3,6.4c0,3.496-2.804,6.345-6.3,6.4h-92.6
				c-3.535,0-6.4-2.865-6.4-6.4l0,0c0-3.535,2.865-6.4,6.4-6.4c0,0,0,0,0,0H378.5z M445.6,895.6h92.6c3.495,0.055,6.3,2.904,6.3,6.4
				c0,3.496-2.805,6.345-6.3,6.4h-92.6c-3.535,0-6.4-2.865-6.4-6.4l0,0C439.2,898.465,442.065,895.6,445.6,895.6
				C445.6,895.6,445.6,895.6,445.6,895.6z M490.5,847.3h92.6c3.535,0,6.4,2.865,6.4,6.4v0c0,3.535-2.865,6.4-6.4,6.4h0h-92.6
				c-3.535,0-6.4-2.865-6.4-6.4l0,0C484.1,850.165,486.965,847.3,490.5,847.3C490.5,847.3,490.5,847.3,490.5,847.3L490.5,847.3z
				 M551,871.5h136c3.496,0,6.345,2.805,6.4,6.3c0,3.535-2.865,6.4-6.4,6.4h0H551c-3.535,0-6.4-2.865-6.4-6.4v0
				C544.655,874.305,547.504,871.5,551,871.5z M557.6,895.6h92.6c3.535,0,6.4,2.865,6.4,6.4v0c0,3.535-2.865,6.4-6.4,6.4h0h-92.6
				c-3.535,0-6.4-2.865-6.4-6.4v0C551.2,898.465,554.065,895.6,557.6,895.6L557.6,895.6z"/>
		</g>
		
			<linearGradient id="SVGID_5_" gradientUnits="userSpaceOnUse" x1="930.7971" y1="14.2862" x2="930.7971" y2="15.2861" gradientTransform="matrix(90.3382 337.1468 -336.1808 90.0794 -78571.3281 -314179.1875)">
			<stop  offset="0" style="stop-color:#3ECF8E"/>
			<stop  offset="1" style="stop-color:#3ECF8E;stop-opacity:0.8"/>
		</linearGradient>
		<path style="fill:url(#SVGID_5_);" d="M490.959,801.617c92.823-24.872,188.292,30.43,213.235,123.52
			s-30.084,188.717-122.907,213.589c-92.823,24.872-188.292-30.43-213.235-123.52S398.135,826.489,490.959,801.617z"/>
	</g>
</g>
<g id="&#x56FE;&#x5C42;_2">
	<g style="opacity:0.22;">
		<path style="fill:#FFFFFF;" d="M365.798,2.515c-1.057,0.028-2.114,0.057-3.17,0.078l-0.206,36.508l-19.88,11.478
			c-3.867-1.548-9.229-1.327-12.689,0.67c-3.892,2.247-3.916,5.906-0.046,8.155c3.87,2.249,10.19,2.249,14.082,0.002
			c3.568-2.06,3.873-5.297,0.934-7.556l20.764-11.988L365.798,2.515z M340.907,57.673c-2.238,1.292-5.872,1.292-8.099-0.002
			c-2.224-1.292-2.212-3.397,0.026-4.689c2.08-1.201,5.351-1.286,7.589-0.263l0.959,0.557
			C343.146,54.578,342.987,56.473,340.907,57.673z"/>
	</g>
	<g style="opacity:0.22;">
		<path style="fill:#FFFFFF;" d="M338.741,2.683c-0.276,0.342-0.638,0.667-1.126,0.949c-2.242,1.294-5.876,1.294-8.102,0
			c-0.522-0.303-0.91-0.654-1.186-1.025c-1.482-0.01-2.965-0.017-4.448-0.025c0.397,1.02,1.267,1.99,2.632,2.783
			c1.576,0.916,3.562,1.452,5.62,1.623l-0.041,7.317l-54.296,31.348l10.29,5.98c-2.688,2.247-2.328,5.354,1.109,7.352
			c3.87,2.249,10.186,2.247,14.082-0.002c3.896-2.249,3.916-5.906,0.046-8.155c-3.542-2.058-9.123-2.228-13.032-0.522l-8.009-4.654
			l52.976-30.586l0.049-8.106c1.936-0.201,3.793-0.729,5.292-1.594c1.317-0.76,2.18-1.683,2.61-2.656
			C341.718,2.701,340.23,2.694,338.741,2.683z M292.22,52.559c2.238-1.292,5.872-1.292,8.099,0.002
			c2.224,1.292,2.212,3.397-0.026,4.689c-2.242,1.294-5.876,1.294-8.099,0.002C289.967,55.958,289.979,53.853,292.22,52.559z"/>
	</g>
	<g style="opacity:0.22;">
		<path style="fill:#FFFFFF;" d="M288.393,9.818c3.896-2.249,10.212-2.251,14.082-0.002c3.87,2.249,3.85,5.909-0.046,8.159
			c-3.511,2.027-8.986,2.22-12.864,0.592l-57.969,33.469c2.794,2.253,2.443,5.424-1.068,7.451
			c-3.896,2.249-10.211,2.247-14.082-0.002c-3.87-2.249-3.85-5.906,0.046-8.155c3.511-2.027,8.983-2.222,12.867-0.594l57.969-33.469
			C284.527,15.014,284.882,11.845,288.393,9.818z M299.447,16.242c2.242-1.294,2.253-3.399,0.026-4.693
			c-2.227-1.294-5.861-1.294-8.103,0c-2.242,1.294-2.253,3.399-0.026,4.693C293.571,17.536,297.205,17.536,299.447,16.242
			 M228.53,53.806l-1.634,0.943l-2.237-1.3l1.634-0.943c-2.173-0.696-4.974-0.513-6.824,0.555c-2.238,1.292-2.25,3.397-0.023,4.691
			c2.227,1.294,5.861,1.294,8.099,0.002C229.396,56.686,229.721,55.065,228.53,53.806"/>
	</g>
	<g style="opacity:0.22;enable-background:new    ;">
		<polyline style="fill:#FFFFFF;" points="288.393,9.818 288.404,9.811 288.393,9.818 		"/>
	</g>
	<g style="opacity:0.22;">
		<path style="fill:#FFFFFF;" d="M428.015,59.656c3.892-2.247,10.208-2.249,14.079,0c3.87,2.249,3.85,5.91-0.043,8.157
			c-3.599,2.078-9.262,2.232-13.152,0.472l-72.58,41.904l-44.003-25.572c-3.885,1.551-9.251,1.331-12.685-0.665
			c-3.87-2.249-3.85-5.91,0.042-8.157c3.896-2.249,10.215-2.249,14.085,0c3.538,2.056,3.813,5.29,0.852,7.551l41.719,24.244
			l70.406-40.649C424.161,64.698,424.589,61.634,428.015,59.656z M439.07,66.08c2.238-1.292,2.25-3.397,0.023-4.691
			c-2.224-1.292-5.858-1.292-8.096,0c-2.241,1.294-2.253,3.399-0.03,4.691C433.194,67.374,436.828,67.374,439.07,66.08
			 M302.632,82.219c2.224,1.292,5.858,1.292,8.096,0c2.242-1.294,2.253-3.399,0.03-4.691c-2.227-1.294-5.861-1.294-8.103,0
			C300.417,78.82,300.405,80.925,302.632,82.219"/>
	</g>
	<g style="opacity:0.22;">
		<path style="fill:#FFFFFF;" d="M273.625,58.654c3.913-1.707,9.494-1.538,13.036,0.521c3.87,2.249,3.846,5.907-0.049,8.157
			c-3.892,2.247-10.208,2.249-14.078,0c-3.438-1.998-3.797-5.105-1.109-7.352l-7.03-4.085L230.261,75.6l-67.455-0.002
			c-0.313,1.175-1.241,2.306-2.804,3.208c-3.896,2.249-10.212,2.247-14.082-0.002c-3.87-2.249-3.853-5.907,0.043-8.157
			c3.896-2.249,10.215-2.249,14.085,0c1.513,0.879,2.422,1.974,2.749,3.115l66.159,0l35.449-20.467L273.625,58.654z M158.469,73.762
			c-0.263-0.505-0.735-0.982-1.422-1.382c-2.227-1.294-5.861-1.294-8.103,0c-2.242,1.294-2.253,3.399-0.026,4.693
			c2.227,1.294,5.861,1.294,8.103,0c0.733-0.423,1.22-0.934,1.479-1.475l-3.856,0l0.01-1.836L158.469,73.762 M283.63,65.598
			c2.241-1.294,2.253-3.399,0.03-4.691c-2.227-1.294-5.861-1.294-8.102,0c-2.238,1.292-2.25,3.397-0.023,4.691
			C277.757,66.89,281.392,66.891,283.63,65.598"/>
	</g>
	<g style="opacity:0.22;">
		<path style="fill:#FFFFFF;" d="M433.655,3.716c-0.999,0-1.89-0.165-2.685-0.449l-5.806,3.352L424.89,55.27L361.655,91.78
			L330.93,73.924c2.957-2.259,2.682-5.492-0.856-7.549c-3.87-2.249-10.186-2.251-14.082-0.002c-3.896,2.249-3.916,5.909-0.046,8.159
			c3.434,1.996,8.8,2.216,12.685,0.665L361.64,94.38l66.419-38.347l0.27-48.654l6.494-3.749
			C434.449,3.68,434.064,3.716,433.655,3.716z M327.047,72.798c-2.242,1.294-5.876,1.294-8.099,0.002
			c-2.227-1.294-2.215-3.399,0.026-4.693c2.238-1.292,5.872-1.292,8.099,0.002C329.297,69.4,329.285,71.505,327.047,72.798z"/>
	</g>
	<g style="opacity:0.22;">
		<path style="fill:#FFFFFF;" d="M238.928,82.41c3.896-2.249,10.215-2.249,14.085,0c3.867,2.247,3.846,5.908-0.049,8.157
			c-3.892,2.247-10.211,2.247-14.078,0c-1.563-0.908-2.479-2.046-2.775-3.227l-23.789,0l-79.433,45.86l-0.224,39.846L52.688,219.22
			c2.683,2.247,2.295,5.366-1.172,7.367c-3.896,2.249-10.215,2.249-14.082,0.002c-3.87-2.249-3.85-5.91,0.046-8.159
			c3.555-2.052,9.121-2.224,13.008-0.532l79.007-45.615l0.224-39.846l81.296-46.936l25.135,0
			C236.498,84.369,237.419,83.281,238.928,82.41z M48.535,224.854c2.241-1.294,2.253-3.399,0.03-4.691
			c-2.227-1.294-5.861-1.294-8.102,0c-2.241,1.294-2.253,3.399-0.026,4.693C42.659,226.148,46.293,226.148,48.535,224.854
			 M249.983,88.834c2.241-1.294,2.253-3.399,0.03-4.691c-2.227-1.294-5.861-1.294-8.102,0c-2.238,1.292-2.25,3.397-0.023,4.691
			C244.11,90.126,247.744,90.126,249.983,88.834"/>
	</g>
	<g style="opacity:0.22;">
		<path style="fill:#FFFFFF;" d="M489.452,86.165c3.885-1.548,9.248-1.325,12.682,0.67c3.87,2.249,3.853,5.908-0.043,8.157
			c-3.896,2.249-10.215,2.249-14.085,0c-3.542-2.058-3.813-5.294-0.849-7.553l-13.211-7.677l-73.859,42.643l-52.161,0
			l-50.295-29.228c-3.917,1.795-9.623,1.651-13.218-0.439c-3.87-2.249-3.85-5.91,0.046-8.159c3.896-2.249,10.215-2.249,14.085,0
			c3.377,1.963,3.787,5.005,1.241,7.241l49.466,28.747l49.53,0l75.179-43.405L489.452,86.165z M499.11,93.259
			c2.238-1.292,2.253-3.399,0.026-4.693s-5.864-1.292-8.103,0c-2.242,1.294-2.253,3.399-0.026,4.693
			C493.234,94.554,496.868,94.554,499.11,93.259 M287.414,91.005c2.224,1.292,5.858,1.292,8.099-0.002
			c2.242-1.294,2.253-3.399,0.03-4.691c-2.227-1.294-5.861-1.294-8.103,0C285.199,87.606,285.187,89.711,287.414,91.005"/>
	</g>
	<g style="opacity:0.22;">
		<path style="fill:#FFFFFF;" d="M153.287,90.697c3.896-2.249,10.215-2.249,14.085,0c3.87,2.249,3.85,5.909-0.046,8.159
			c-3.599,2.078-9.259,2.23-13.152,0.468l-53.044,30.625l-0.188,33.352l-72.475,41.844c2.683,2.247,2.295,5.366-1.172,7.367
			c-3.896,2.249-10.215,2.249-14.085,0c-3.867-2.247-3.846-5.908,0.049-8.157c3.555-2.052,9.118-2.226,13.008-0.532l71.506-41.284
			l0.188-33.348l54.053-31.208C149.436,95.741,149.864,92.673,153.287,90.697z M24.313,210.778c2.242-1.294,2.253-3.399,0.027-4.693
			c-2.224-1.292-5.858-1.292-8.099,0.002c-2.242,1.294-2.253,3.399-0.03,4.691C18.438,212.072,22.072,212.072,24.313,210.778
			 M164.345,97.123c2.242-1.294,2.253-3.399,0.027-4.693c-2.227-1.294-5.861-1.294-8.103,0c-1.755,1.013-2.134,2.526-1.145,3.758
			l2.569-1.483l2.234,1.298l-2.714,1.567C159.425,98.39,162.407,98.242,164.345,97.123"/>
	</g>
	<g style="opacity:0.22;enable-background:new    ;">
		<path style="fill:#FFFFFF;" d="M153.299,90.69c3.897-2.242,10.207-2.24,14.074,0.007C163.506,88.45,157.195,88.448,153.299,90.69"
			/>
	</g>
	<g style="opacity:0.22;">
		<path style="fill:#FFFFFF;" d="M344.427,139.855l76.634-0.001l191.918,111.53l-0.271,48.18l-43.44,25.08
			c2.659,2.245,2.261,5.35-1.196,7.346c-3.896,2.249-10.214,2.249-14.085,0c-3.87-2.249-3.847-5.907,0.049-8.157
			c3.565-2.058,9.152-2.226,13.042-0.516l42.461-24.515l0.262-46.656L419.735,141.692l-76.634,0.001l-64.518-37.494
			c-3.914,1.805-9.636,1.663-13.238-0.431c-3.87-2.249-3.849-5.91,0.047-8.159c3.892-2.247,10.211-2.247,14.082,0.002
			c3.374,1.961,3.788,4.99,1.258,7.227L344.427,139.855z M565.091,330.258c2.238-1.292,2.25-3.397,0.023-4.691
			c-2.227-1.294-5.858-1.292-8.096,0c-2.241,1.294-2.257,3.397-0.03,4.691S562.85,331.552,565.091,330.258 M268.346,102.036
			c2.224,1.292,5.857,1.292,8.099-0.002c2.238-1.292,2.25-3.397,0.026-4.689c-2.227-1.294-5.861-1.294-8.099-0.002
			C266.131,98.636,266.119,100.741,268.346,102.036"/>
	</g>
	<g style="opacity:0.22;">
		<path style="fill:#FFFFFF;" d="M302.857,170.954l144.314-0.002l147.627,85.791l-0.217,37.939l-62.952,36.345l-0.254,45.081
			l-26.909,15.536c2.495,2.236,2.043,5.262-1.346,7.219c-3.896,2.249-10.215,2.25-14.085,0.001c-3.87-2.249-3.85-5.91,0.046-8.159
			c3.628-2.095,9.364-2.236,13.262-0.423l25.865-14.933l0.255-45.081l62.952-36.345l0.205-36.416L445.845,172.79l-144.315,0.001
			l-70.675-41.072c-3.91,1.76-9.572,1.606-13.144-0.47c-3.87-2.249-3.849-5.909,0.046-8.158c3.896-2.249,10.211-2.248,14.082,0.001
			c3.401,1.976,3.799,5.042,1.195,7.284L302.857,170.954z M500.139,397.13c2.238-1.292,2.25-3.397,0.023-4.691
			c-2.227-1.294-5.862-1.295-8.1-0.003c-2.242,1.294-2.252,3.399-0.025,4.694C494.264,398.425,497.898,398.425,500.139,397.13
			 M220.711,129.517c2.224,1.292,5.859,1.292,8.1-0.001c2.238-1.292,2.25-3.398,0.026-4.69c-2.227-1.294-5.862-1.294-8.1-0.001
			C218.497,126.117,218.484,128.222,220.711,129.517"/>
	</g>
	<g style="opacity:0.22;">
		<path style="fill:#FFFFFF;" d="M54.416,118.351c3.896-2.249,10.215-2.249,14.085,0c3.488,2.027,3.803,5.198,0.978,7.451
			l16.897,9.819l-0.057,10.722l-54.415,31.416c3.022,2.261,2.742,5.539-0.857,7.617c-3.896,2.249-10.215,2.249-14.085,0
			c-3.87-2.249-3.846-5.908,0.049-8.157c3.423-1.976,8.717-2.216,12.578-0.715l53.557-30.921l0.055-9.201L67.23,127.1
			c-3.899,1.629-9.369,1.434-12.857-0.593C50.503,124.258,50.52,120.6,54.416,118.351z M28.065,183.643
			c2.242-1.294,2.253-3.399,0.026-4.693c-2.224-1.292-5.858-1.292-8.099,0.002s-2.253,3.399-0.03,4.691
			C22.189,184.937,25.823,184.937,28.065,183.643 M65.47,124.775c2.242-1.294,2.253-3.399,0.03-4.691
			c-2.227-1.294-5.861-1.294-8.102,0c-2.242,1.294-2.253,3.399-0.026,4.693C59.594,126.069,63.228,126.069,65.47,124.775"/>
	</g>
	<g style="opacity:0.22;">
		<path style="fill:#FFFFFF;" d="M384.296,145.712c3.892-2.247,10.211-2.247,14.082,0.002c3.87,2.249,3.85,5.91-0.043,8.157
			c-3.896,2.249-10.215,2.249-14.085,0c-1.536-0.893-2.448-2.009-2.762-3.169l-83.071,0l-77.85-45.241l-51.174,29.545l-0.039,7.009
			c1.782,0.23,3.475,0.741,4.854,1.542c3.87,2.249,3.85,5.91-0.046,8.159c-3.896,2.249-10.212,2.247-14.082-0.002
			c-3.87-2.249-3.85-5.906,0.046-8.155c1.695-0.978,3.848-1.53,6.056-1.658l0.043-7.656l54.354-31.381l79.161,46.003l81.766,0.001
			C381.832,147.709,382.757,146.6,384.296,145.712z M395.354,152.138c2.238-1.292,2.25-3.397,0.023-4.691
			c-2.227-1.294-5.861-1.294-8.099-0.002c-2.241,1.294-2.253,3.399-0.026,4.693C389.478,153.432,393.112,153.432,395.354,152.138
			 M171.181,149.981c2.241-1.294,2.253-3.399,0.026-4.693c-0.721-0.419-1.591-0.702-2.516-0.848l-2.524,0l0-0.07
			c-1.121,0.115-2.193,0.419-3.06,0.92c-2.238,1.292-2.25,3.397-0.026,4.689C165.308,151.273,168.942,151.273,171.181,149.981"/>
	</g>
	<g style="opacity:0.22;">
		<path style="fill:#FFFFFF;" d="M282.169,193.825c-1.523-0.885-3.428-1.417-5.412-1.604l0.117-20.777l-38.107-22.145
			c2.906-2.257,2.618-5.467-0.903-7.514c-3.87-2.249-10.189-2.249-14.082-0.002c-3.896,2.249-3.916,5.91-0.046,8.159
			c3.458,2.009,8.864,2.218,12.753,0.637l37.211,21.625l-0.116,20.011c-2.01,0.181-3.948,0.713-5.5,1.61
			c-3.892,2.247-3.913,5.907-0.043,8.157c3.87,2.249,10.189,2.249,14.082,0.002C286.018,199.735,286.039,196.075,282.169,193.825z
			 M234.84,148.21c-2.242,1.294-5.876,1.294-8.103,0c-2.227-1.294-2.215-3.399,0.026-4.693c2.238-1.292,5.872-1.292,8.099,0.002
			C237.09,144.813,237.078,146.918,234.84,148.21 M279.141,200.251c-2.238,1.292-5.872,1.292-8.099-0.002
			c-2.227-1.294-2.215-3.399,0.023-4.691c2.242-1.294,5.876-1.294,8.103,0C281.394,196.852,281.383,198.957,279.141,200.251"/>
	</g>
	<g style="opacity:0.22;">
		<path style="fill:#FFFFFF;" d="M169.074,57.503c3.896-2.249,10.215-2.249,14.085,0s3.846,5.908-0.049,8.157
			c-3.896,2.249-10.208,2.249-14.078,0c-1.603-0.932-2.529-2.107-2.801-3.321L42.926,62.336L19.271,48.589
			c-3.888,1.557-9.257,1.339-12.699-0.661c-3.87-2.249-3.846-5.908,0.049-8.157c3.896-2.249,10.208-2.249,14.078,0
			c3.538,2.056,3.813,5.286,0.863,7.545L44.249,60.5L166.325,60.5C166.688,59.401,167.605,58.351,169.074,57.503z M180.132,63.929
			c2.242-1.294,2.253-3.399,0.026-4.693c-2.227-1.294-5.861-1.294-8.103,0c-2.241,1.294-2.253,3.399-0.026,4.693
			S177.89,65.223,180.132,63.929 M9.574,46.196c2.227,1.294,5.861,1.294,8.103,0c2.238-1.292,2.25-3.397,0.023-4.691
			c-2.227-1.294-5.861-1.294-8.099-0.002C7.359,42.797,7.347,44.902,9.574,46.196"/>
	</g>
	<g style="opacity:0.22;">
		<path style="fill:#FFFFFF;" d="M534.838,239.79c3.896-2.249,10.212-2.251,14.082-0.002c3.458,2.009,3.797,5.14,1.059,7.389
			l20.512,11.92l-0.148,26.207l-91.737,52.965c2.383,2.226,1.905,5.198-1.44,7.13c-3.896,2.249-10.215,2.249-14.085,0
			c-3.87-2.249-3.85-5.91,0.046-8.159c3.673-2.121,9.501-2.238,13.401-0.359l90.65-52.337l0.135-24.684l-19.556-11.365
			c-3.906,1.676-9.447,1.499-12.968-0.548C530.919,245.697,530.943,242.039,534.838,239.79z M545.893,246.214
			c2.242-1.294,2.253-3.399,0.026-4.693c-2.227-1.294-5.861-1.294-8.102,0c-2.242,1.294-2.253,3.399-0.026,4.693
			C540.017,247.508,543.651,247.508,545.893,246.214 M474.185,343.666c2.242-1.294,2.253-3.399,0.026-4.693
			c-2.227-1.294-5.861-1.294-8.102,0c-2.242,1.294-2.253,3.399-0.026,4.693C468.309,344.96,471.943,344.96,474.185,343.666"/>
	</g>
	<g style="opacity:0.22;">
		<path style="fill:#FFFFFF;" d="M249.975,5.845c3.896-2.249,10.215-2.249,14.085,0c3.87,2.249,3.85,5.909-0.046,8.159
			c-3.575,2.064-9.192,2.226-13.079,0.499l-53.236,30.736l-39.981,0c-0.219,1.284-1.179,2.538-2.883,3.522
			c-3.896,2.249-10.212,2.247-14.082-0.002c-3.87-2.249-3.85-5.906,0.046-8.155c3.896-2.249,10.211-2.251,14.082-0.002
			c1.372,0.797,2.244,1.774,2.639,2.801l38.874-0.002l52.362-30.231C246.123,10.928,246.531,7.833,249.975,5.845z M261.032,12.271
			c2.241-1.294,2.253-3.399,0.026-4.693c-2.227-1.294-5.861-1.294-8.103,0c-2.238,1.292-2.25,3.397-0.023,4.691
			S258.794,13.563,261.032,12.271 M151.853,47.028c2.241-1.294,2.253-3.399,0.026-4.693c-2.227-1.294-5.858-1.292-8.099,0.002
			c-2.238,1.292-2.253,3.395-0.026,4.689C145.981,48.32,149.615,48.32,151.853,47.028"/>
	</g>
	<g style="opacity:0.22;">
		<path style="fill:#FFFFFF;" d="M436.425,180.987c3.892-2.247,10.208-2.249,14.078,0c3.87,2.249,3.85,5.91-0.043,8.157
			c-3.896,2.249-10.215,2.249-14.085,0c-1.69-0.982-2.639-2.234-2.847-3.52l-27.195,0l-29.636,17.11
			c3.261,2.263,3.047,5.65-0.636,7.777c-3.896,2.249-10.211,2.251-14.082,0.002c-3.87-2.249-3.85-5.909,0.046-8.159
			c3.335-1.926,8.441-2.197,12.273-0.826l30.73-17.742l28.722,0C434.157,182.758,435.041,181.786,436.425,180.987z M373.081,208.778
			c2.241-1.294,2.253-3.399,0.03-4.691c-2.227-1.294-5.861-1.294-8.103,0c-2.242,1.294-2.253,3.399-0.026,4.693
			C367.205,210.072,370.839,210.072,373.081,208.778 M447.479,187.411c2.238-1.292,2.25-3.397,0.023-4.691
			c-2.224-1.292-5.858-1.292-8.096,0c-2.242,1.294-2.253,3.399-0.03,4.691C441.604,188.705,445.238,188.705,447.479,187.411"/>
	</g>
	<g style="opacity:0.22;">
		<path style="fill:#FFFFFF;" d="M528.241,287.279c3.896-2.249,10.211-2.251,14.082-0.002s3.85,5.91-0.046,8.159
			c-3.511,2.027-8.987,2.22-12.864,0.592L493.089,317l-34.399-0.002l-68.374,39.475c2.578,2.241,2.15,5.309-1.273,7.285
			c-3.896,2.249-10.215,2.249-14.085,0c-3.87-2.249-3.85-5.909,0.046-8.159c3.599-2.078,9.259-2.23,13.152-0.468l69.231-39.971
			l34.395,0l35.392-20.434C524.376,292.475,524.73,289.306,528.241,287.279z M386.063,362.026c2.238-1.292,2.25-3.397,0.023-4.691
			c-2.227-1.294-5.861-1.294-8.099-0.002c-2.242,1.294-2.253,3.399-0.026,4.693C380.187,363.32,383.821,363.32,386.063,362.026
			 M539.295,293.703c2.242-1.294,2.253-3.399,0.026-4.693c-2.227-1.294-5.858-1.292-8.099,0.002
			c-2.238,1.292-2.253,3.395-0.026,4.689C533.423,294.996,537.057,294.996,539.295,293.703"/>
	</g>
	<g style="opacity:0.22;">
		<path style="fill:#FFFFFF;" d="M100.607,218.286L216.06,151.63l33.257,19.327l-0.101,17.869l-38.211,22.061
			c2.222,2.21,1.697,5.101-1.58,6.993c-3.896,2.249-10.215,2.249-14.085,0c-3.87-2.249-3.846-5.908,0.049-8.157
			c3.737-2.158,9.697-2.241,13.592-0.259l37.066-21.4l0.092-16.345l-30.094-17.489l-113.174,65.341
			c2.884,2.255,2.56,5.465-0.984,7.512c-3.896,2.249-10.215,2.249-14.085,0c-3.87-2.249-3.846-5.908,0.049-8.157
			C91.328,216.918,96.733,216.708,100.607,218.286z M98.905,225.35c2.238-1.292,2.25-3.397,0.023-4.691
			c-2.227-1.294-5.861-1.294-8.099-0.002c-2.242,1.294-2.253,3.399-0.027,4.693C93.03,226.644,96.664,226.644,98.905,225.35
			 M206.443,216.147c2.241-1.294,2.253-3.399,0.026-4.693c-2.227-1.294-5.858-1.292-8.099,0.002
			c-2.242,1.294-2.257,3.397-0.03,4.691C200.568,217.441,204.202,217.441,206.443,216.147"/>
	</g>
	<g style="opacity:0.22;">
		<path style="fill:#FFFFFF;" d="M267.582,240.624c3.896-2.249,10.208-2.249,14.078,0c3.87,2.249,3.853,5.908-0.043,8.157
			c-3.896,2.249-10.215,2.249-14.085,0c-1.566-0.91-2.485-2.054-2.778-3.241l-60.002,0l-55.245-32.105l-22.797,13.162
			c2.942,2.261,2.634,5.496-0.931,7.554c-3.896,2.249-10.215,2.249-14.085,0c-3.867-2.247-3.846-5.908,0.049-8.157
			c3.457-1.996,8.818-2.216,12.686-0.668l25.096-14.489l56.553,32.865l58.73,0C265.155,242.573,266.076,241.493,267.582,240.624z
			 M278.636,247.048c2.241-1.294,2.25-3.397,0.023-4.691c-2.227-1.294-5.858-1.296-8.099-0.002
			c-2.242,1.294-2.253,3.399-0.026,4.693C272.761,248.342,276.395,248.342,278.636,247.048 M122.799,232.418
			c2.238-1.292,2.25-3.397,0.023-4.691c-2.224-1.292-5.857-1.292-8.096,0c-2.242,1.294-2.253,3.399-0.03,4.691
			C116.923,233.712,120.557,233.712,122.799,232.418"/>
	</g>
	<g style="opacity:0.22;">
		<path style="fill:#FFFFFF;" d="M1459.964,135.347c4.779-2.759,12.526-2.757,17.274,0.002c4.748,2.759,4.723,7.245-0.056,10.004
			c-4.162,2.403-10.574,2.711-15.295,0.932l-101.666,58.697l-51.369-0.003l-135.25,78.087c3.786,2.776,3.458,6.831-0.981,9.394
			c-4.779,2.759-12.527,2.761-17.275,0.002s-4.722-7.249,0.056-10.008c4.174-2.41,10.611-2.714,15.344-0.913l136.509-78.814
			l51.369-0.002l100.386-57.958C1455.192,141.991,1455.508,137.919,1459.964,135.347z M1473.529,143.23
			c2.75-1.588,2.764-4.17,0.032-5.757c-2.732-1.588-7.19-1.588-9.939,0c-2.75,1.588-2.764,4.17-0.032,5.757
			C1466.321,144.817,1470.779,144.817,1473.529,143.23 M1168.964,290.334c2.75-1.588,2.764-4.17,0.036-5.755
			c-2.732-1.588-7.19-1.588-9.94,0c-2.75,1.588-2.764,4.17-0.032,5.757C1161.756,291.922,1166.214,291.922,1168.964,290.334"/>
	</g>
	<g style="opacity:0.22;">
		<path style="fill:#FFFFFF;" d="M1744.005,57.528c4.164-1.736,9.997-1.531,13.722,0.634c4.126,2.398,4.108,6.301-0.049,8.701
			c-4.157,2.4-10.899,2.4-15.026,0.002c-3.725-2.165-4.058-5.546-1.05-7.95l-37.926-22.04c-4.156,1.736-9.997,1.531-13.719-0.632
			c-4.13-2.4-4.108-6.305,0.049-8.705c4.157-2.4,10.896-2.398,15.025,0.002c3.722,2.163,4.062,5.544,1.047,7.948L1744.005,57.528z
			 M1693.16,34.394c2.376,1.381,6.254,1.381,8.646,0c2.388-1.379,2.401-3.625,0.025-5.006c-2.376-1.381-6.254-1.381-8.642-0.002
			C1690.797,30.767,1690.784,33.013,1693.16,34.394 M1754.497,65.015c2.388-1.379,2.401-3.625,0.028-5.004
			c-2.376-1.381-6.254-1.381-8.642-0.002c-2.392,1.381-2.404,3.627-0.028,5.008C1748.228,66.395,1752.105,66.395,1754.497,65.015"/>
	</g>
	<g style="opacity:0.22;">
		<polygon style="fill:#FFFFFF;" points="1701.823,29.384 1701.83,29.388 1701.823,29.384 		"/>
	</g>
	<g style="opacity:0.22;enable-background:new    ;">
		<path style="fill:#FFFFFF;" d="M1690.007,27.537c0.004-0.002,0.008-0.005,0.012-0.007
			C1690.015,27.532,1690.011,27.535,1690.007,27.537"/>
	</g>
	<g style="opacity:0.22;">
		<path style="fill:#FFFFFF;" d="M1658.107,0.5c-0.823,0.393-1.786,0.623-2.899,0.623c-0.347,0-0.676-0.029-0.995-0.072
			l-0.197,34.642l-114.686,66.214c-4.764-2.03-11.527-1.805-15.858,0.696c-4.779,2.759-4.804,7.249-0.056,10.008
			c4.744,2.757,12.495,2.757,17.274-0.002c4.286-2.475,4.738-6.333,1.364-9.095l115.849-66.885L1658.107,0.5z M1537.033,110.483
			c-2.75,1.587-7.208,1.587-9.935,0.002c-2.732-1.587-2.717-4.17,0.032-5.757c2.75-1.588,7.208-1.588,9.939,0
			C1539.798,106.313,1539.783,108.895,1537.033,110.483z"/>
	</g>
	<g style="opacity:0.22;">
		<path style="fill:#FFFFFF;" d="M1696.715,54.003c4.157-2.4,10.896-2.402,15.026-0.002s4.108,6.305-0.049,8.705
			c-3.703,2.138-9.456,2.366-13.586,0.692l-72.116,41.636l-0.279,49.471c2.416,0.114,4.775,0.705,6.614,1.774
			c4.13,2.4,4.108,6.305-0.049,8.705c-4.153,2.398-10.896,2.398-15.025-0.002c-4.13-2.4-4.104-6.303,0.049-8.701
			c1.437-0.83,3.185-1.366,5.025-1.624l0.284-50.436l73.07-42.187C1692.584,59.626,1692.926,56.19,1696.715,54.003z M1708.51,60.857
			c2.392-1.381,2.405-3.627,0.028-5.008c-2.376-1.381-6.25-1.379-8.642,0.002c-2.392,1.381-2.408,3.625-0.032,5.006
			C1702.241,62.238,1706.119,62.238,1708.51,60.857 M1629.095,163.136c2.392-1.381,2.405-3.627,0.028-5.008
			c-2.373-1.379-6.25-1.379-8.642,0.002c-2.388,1.379-2.401,3.625-0.028,5.004C1622.829,164.514,1626.707,164.514,1629.095,163.136"
			/>
	</g>
	<g style="opacity:0.22;enable-background:new    ;">
		<polyline style="fill:#FFFFFF;" points="1708.539,55.849 1708.532,55.845 1708.539,55.849 		"/>
	</g>
	<g style="opacity:0.22;">
		<path style="fill:#FFFFFF;" d="M1807.592,62.22c-4.13-2.4-10.872-2.4-15.029,0c-3.725,2.15-4.113,5.505-1.19,7.905l-67.333,38.874
			l-0.136,24.195c-2.223,0.177-4.37,0.749-6.081,1.736c-4.157,2.4-4.179,6.305-0.049,8.705c4.13,2.4,10.869,2.398,15.026-0.002
			c4.157-2.4,4.179-6.301,0.049-8.701c-1.571-0.913-3.517-1.477-5.559-1.695l0.132-23.425l66.317-38.288
			c4.148,1.772,10.037,1.576,13.805-0.599C1811.699,68.525,1811.721,64.62,1807.592,62.22z M1729.65,136.779
			c2.373,1.379,2.36,3.625-0.032,5.006c-2.392,1.381-6.269,1.381-8.642,0.002c-2.376-1.381-2.364-3.627,0.028-5.008
			C1723.396,135.398,1727.274,135.398,1729.65,136.779 M1804.361,69.076c-2.392,1.381-6.269,1.381-8.646,0
			c-2.376-1.381-2.364-3.627,0.028-5.008c2.392-1.381,6.269-1.381,8.645,0C1806.766,65.45,1806.753,67.695,1804.361,69.076"/>
	</g>
	<g style="opacity:0.22;">
		<path style="fill:#FFFFFF;" d="M1832.995,73.427c4.153-2.398,10.896-2.398,15.022,0c4.13,2.4,4.108,6.305-0.046,8.703
			c-3.724,2.15-9.517,2.369-13.654,0.665l-79.612,45.964l-0.308,55.458l-17.852,10.307c3.135,2.41,2.803,5.865-1,8.061
			c-4.157,2.4-10.896,2.398-15.022,0c-4.13-2.4-4.111-6.303,0.046-8.703c3.688-2.13,9.409-2.364,13.539-0.715l16.908-9.762
			l0.312-55.456l80.584-46.525C1828.867,79.015,1829.224,75.605,1832.995,73.427z M1732.364,200.736
			c2.392-1.381,2.404-3.627,0.032-5.006c-2.376-1.381-6.254-1.381-8.646,0s-2.404,3.627-0.028,5.008
			C1726.094,202.117,1729.972,202.117,1732.364,200.736 M1844.79,80.282c2.388-1.379,2.401-3.625,0.025-5.006
			c-2.373-1.379-6.25-1.379-8.638,0c-2.392,1.381-2.405,3.627-0.032,5.006C1838.521,81.663,1842.398,81.663,1844.79,80.282"/>
	</g>
	<g style="opacity:0.22;">
		<path style="fill:#FFFFFF;" d="M1698.115,75.225c4.157-2.4,10.899-2.4,15.029,0c4.13,2.4,4.108,6.305-0.049,8.705
			c-3.609,2.084-9.169,2.354-13.271,0.817l-36.341,20.981l-0.223,39.625l27.634,16.059l-0.348,61.899l27.015,15.699
			c4.179-1.94,10.304-1.791,14.154,0.447c4.13,2.4,4.108,6.306-0.049,8.706c-4.157,2.4-10.896,2.398-15.026-0.002
			c-3.593-2.088-4.042-5.311-1.361-7.697l-28.121-16.342l0.348-61.899l-27.634-16.059l0.229-41.25l37.205-21.481
			C1693.964,81.021,1694.232,77.467,1698.115,75.225z M1709.913,82.082c2.391-1.381,2.404-3.627,0.028-5.008
			c-2.376-1.381-6.254-1.381-8.645,0c-2.388,1.379-2.401,3.625-0.025,5.006C1703.648,83.461,1707.525,83.461,1709.913,82.082
			 M1728.513,241.308c-2.376-1.381-6.25-1.379-8.642,0.002c-2.392,1.381-2.404,3.623-0.028,5.003
			c2.376,1.381,6.25,1.383,8.642,0.002C1730.876,244.935,1730.889,242.689,1728.513,241.308"/>
	</g>
	<g style="opacity:0.22;enable-background:new    ;">
		<path style="fill:#FFFFFF;" d="M1709.934,77.07L1709.934,77.07c-2.377-1.377-6.249-1.375-8.638,0.004
			C1703.685,75.695,1707.558,75.694,1709.934,77.07"/>
	</g>
	<g style="opacity:0.22;">
		<path style="fill:#FFFFFF;" d="M1372.029,24.105c4.779-2.759,12.531-2.759,17.279,0s4.719,7.247-0.06,10.006
			c-4.241,2.448-10.818,2.718-15.562,0.82l-29.85,17.234l-0.184,33.394c2.736,0.146,5.398,0.825,7.484,2.037
			c4.744,2.757,4.719,7.247-0.06,10.006c-4.779,2.759-12.526,2.757-17.27,0c-4.748-2.759-4.727-7.247,0.052-10.006
			c1.685-0.973,3.74-1.597,5.901-1.882l0.194-34.482l30.93-17.858C1367.274,30.601,1367.656,26.63,1372.029,24.105z
			 M1385.589,31.986c2.75-1.588,2.764-4.17,0.036-5.755c-2.732-1.588-7.19-1.588-9.939,0c-2.75,1.588-2.764,4.17-0.032,5.757
			C1378.382,33.573,1382.839,33.573,1385.589,31.986 M1347.418,95.476c2.75-1.588,2.764-4.17,0.037-5.755
			c-2.732-1.588-7.19-1.588-9.94,0c-2.746,1.585-2.76,4.167-0.028,5.755C1340.214,97.062,1344.672,97.062,1347.418,95.476"/>
	</g>
	<g style="opacity:0.22;">
		<path style="fill:#FFFFFF;" d="M1855.057,86.87c4.157-2.4,10.896-2.402,15.025-0.002c4.13,2.4,4.108,6.305-0.049,8.705
			c-3.836,2.215-9.88,2.379-14.034,0.499l-77.425,44.701l-0.352,63.161l-18.396,10.621c3.735,2.413,3.592,6.139-0.428,8.46
			c-4.157,2.4-10.896,2.398-15.022,0c-4.13-2.4-4.111-6.303,0.045-8.703c3.462-1.999,8.713-2.327,12.759-0.994l17.661-10.196
			l0.355-63.159l78.499-45.321C1850.944,92.25,1851.404,88.979,1855.057,86.87z M1866.852,93.725
			c2.392-1.381,2.404-3.627,0.028-5.008c-2.376-1.381-6.254-1.381-8.645,0c-2.388,1.379-2.401,3.625-0.025,5.006
			C1860.586,95.103,1864.464,95.103,1866.852,93.725 M1756.217,221.167c2.392-1.381,2.405-3.627,0.032-5.006
			c-2.376-1.381-6.254-1.381-8.645,0c-2.392,1.381-2.404,3.627-0.028,5.008C1749.948,222.548,1753.826,222.547,1756.217,221.167"/>
	</g>
	<g style="opacity:0.22;">
		<path style="fill:#FFFFFF;" d="M1579.434,2.443c-0.87,0-1.714-0.078-2.545-0.191l-0.131,23.191l-60.929,35.177l-0.136,24.22
			l-21.625,12.485l-0.248,44.098l-41.892,24.186c-4.753-1.956-11.412-1.71-15.694,0.763c-4.779,2.759-4.804,7.249-0.056,10.008
			c4.748,2.759,12.499,2.759,17.278,0c4.332-2.501,4.737-6.424,1.241-9.19l43.01-24.832l0.248-44.099l21.625-12.485l0.136-24.22
			l60.929-35.177l0.135-23.994C1580.333,2.419,1579.884,2.443,1579.434,2.443z M1449.799,174.256c-2.75,1.588-7.208,1.587-9.94,0
			c-2.732-1.588-2.717-4.17,0.033-5.757c2.745-1.585,7.207-1.587,9.939,0C1452.563,170.086,1452.544,172.67,1449.799,174.256z"/>
	</g>
	<g style="opacity:0.22;">
		<path style="fill:#FFFFFF;" d="M1918.94,393.085l-9.771-5.678l-65.156-0.001l-72.04-41.865l0.064-12.31
			c2.184-0.186,4.283-0.756,5.966-1.728c4.156-2.399,4.18-6.301,0.049-8.702c-4.129-2.4-10.868-2.401-15.024-0.001
			c-4.156,2.4-4.18,6.305-0.051,8.705c1.6,0.93,3.593,1.496,5.679,1.705l-0.074,13.143l74.017,43.014l65.157,0l11.565,6.721
			C1919.178,395.092,1919.053,394.09,1918.94,393.085z M1766.18,329.655c-2.375-1.38-2.364-3.625,0.028-5.007
			c2.388-1.379,6.267-1.379,8.642,0.001c2.373,1.379,2.36,3.625-0.028,5.004C1772.43,331.035,1768.553,331.034,1766.18,329.655z"/>
		<path style="fill:#FFFFFF;" d="M1920.105,341.099l-71.776-41.712c2.175-1.932,2.289-4.412,0.346-6.395
			c3.526,1.165,7.969,1.063,11.347-0.307l60.911,35.397c0.054-0.896,0.105-1.792,0.158-2.688l-58.638-34.077
			c3.114-2.406,2.805-5.836-0.956-8.021c-4.129-2.4-10.865-2.401-15.022,0c-3.469,2.003-4.045,5.048-1.754,7.397
			c-4.045-1.337-9.304-1.013-12.773,0.99c-4.156,2.399-4.178,6.302-0.049,8.702c3.851,2.238,9.967,2.388,14.145,0.454l73.886,42.938
			C1919.99,342.884,1920.046,341.992,1920.105,341.099z M1843.745,298.539c-2.388,1.379-6.267,1.379-8.643-0.002
			c-2.373-1.379-2.358-3.624,0.03-5.003c2.392-1.381,6.269-1.382,8.641-0.003C1846.149,294.911,1846.137,297.158,1843.745,298.539z
			 M1849.658,285.147c2.388-1.379,6.265-1.38,8.638-0.001c2.376,1.381,2.364,3.628-0.024,5.007c-2.392,1.381-6.269,1.38-8.645-0.001
			C1847.253,288.772,1847.266,286.528,1849.658,285.147z"/>
		<path style="fill:#FFFFFF;" d="M1918.75,360.852l-115.9-67.354l0.76-135.699l48.916-28.242c4.144,1.736,9.981,1.529,13.728-0.634
			c4.158-2.401,4.183-6.303,0.055-8.703c-4.131-2.401-10.872-2.401-15.03,0c-3.747,2.163-4.12,5.546-1.14,7.949l-49.909,28.815
			l-0.773,137.323l119.13,69.231C1918.639,362.637,1918.693,361.741,1918.75,360.852z M1854.46,122.069
			c2.392-1.381,6.271-1.381,8.647,0c2.371,1.378,2.358,3.624-0.034,5.005c-2.392,1.381-6.269,1.38-8.64,0.002
			C1852.057,125.696,1852.068,123.45,1854.46,122.069z"/>
	</g>
	<g style="opacity:0.22;enable-background:new    ;">
		<path style="fill:#FFFFFF;" d="M1851.279,120.221c0.004-0.002,0.008-0.005,0.012-0.007
			C1851.287,120.216,1851.283,120.218,1851.279,120.221"/>
	</g>
	<g style="opacity:0.22;">
		<path style="fill:#FFFFFF;" d="M1685.985,115.08c4.153-2.398,10.896-2.398,15.022,0c4.13,2.4,4.108,6.305-0.045,8.703
			c-1.776,1.025-4.023,1.61-6.34,1.757l-0.101,17.964l17.274,10.039c4.138-1.622,9.82-1.379,13.467,0.74
			c4.13,2.4,4.104,6.303-0.052,8.703c-4.157,2.4-10.896,2.402-15.025,0.002c-3.801-2.209-4.075-5.686-0.859-8.098l-18.194-10.573
			l0.106-18.871c-1.945-0.237-3.798-0.788-5.304-1.664C1681.806,121.385,1681.828,117.479,1685.985,115.08z M1722.059,156.132
			c-2.376-1.381-6.254-1.381-8.645,0c-2.392,1.381-2.404,3.627-0.028,5.008c2.373,1.379,6.25,1.379,8.642-0.002
			C1724.419,159.757,1724.432,157.511,1722.059,156.132 M1697.78,121.934c2.388-1.379,2.401-3.625,0.025-5.006
			c-2.373-1.379-6.25-1.379-8.638,0c-2.392,1.381-2.404,3.627-0.032,5.006C1691.511,123.315,1695.388,123.315,1697.78,121.934"/>
	</g>
	<g style="opacity:0.22;">
		<path style="fill:#FFFFFF;" d="M1878.136,135.827c4.157-2.4,10.899-2.4,15.029,0c4.13,2.4,4.104,6.303-0.052,8.703
			c-3.937,2.273-10.188,2.392-14.349,0.358l-47.176,27.237l-0.221,39.243c2.16,0.191,4.239,0.761,5.896,1.724
			c4.126,2.398,4.108,6.301-0.049,8.701c-4.157,2.4-10.899,2.4-15.026,0.002c-4.13-2.4-4.108-6.305,0.049-8.705
			c1.625-0.938,3.642-1.502,5.744-1.707l0.225-40.071l48.354-27.917C1874.064,141.026,1874.585,137.877,1878.136,135.827z
			 M1889.931,142.681c2.392-1.381,2.404-3.627,0.032-5.006c-2.376-1.381-6.254-1.381-8.646,0c-2.392,1.381-2.404,3.627-0.028,5.008
			C1883.662,144.062,1887.54,144.062,1889.931,142.681 M1834.033,219.944c2.388-1.379,2.401-3.625,0.028-5.004
			c-2.376-1.381-6.254-1.381-8.642-0.002c-2.392,1.381-2.404,3.627-0.028,5.008C1827.764,221.325,1831.642,221.325,1834.033,219.944
			"/>
	</g>
	<g style="opacity:0.22;">
		<path style="fill:#FFFFFF;" d="M1437.73,8.488c4.779-2.759,12.531-2.759,17.274-0.002c4.748,2.759,4.722,7.249-0.056,10.008
			c-4.332,2.501-11.103,2.726-15.871,0.689l-70.242,40.554l-0.31,54.991l-25.472,14.706c3.604,2.771,3.231,6.742-1.146,9.27
			c-4.775,2.757-12.526,2.757-17.274-0.003c-4.748-2.759-4.718-7.247,0.056-10.004c4.245-2.451,10.822-2.721,15.566-0.823
			l24.387-14.08l0.31-54.991l71.41-41.229C1432.996,14.814,1433.452,10.958,1437.73,8.488z M1451.29,16.368
			c2.75-1.587,2.764-4.17,0.032-5.757c-2.728-1.585-7.186-1.585-9.935,0.002c-2.746,1.585-2.76,4.167-0.032,5.753
			C1444.087,17.954,1448.544,17.954,1451.29,16.368 M1338.832,131.185l-1.177-0.684c-2.746-1.255-6.759-1.15-9.31,0.323
			c-2.746,1.585-2.76,4.167-0.032,5.752c2.732,1.588,7.19,1.588,9.935,0.002C1340.8,135.106,1340.995,132.782,1338.832,131.185"/>
	</g>
	<g style="opacity:0.22;">
		<path style="fill:#FFFFFF;" d="M1608.488,25.45c4.775-2.757,12.526-2.757,17.274,0.002c4.748,2.759,4.719,7.247-0.056,10.004
			c-1.797,1.038-4.009,1.686-6.33,1.944l-0.047,8.258l-34.678,20.021c3.365,2.762,2.91,6.618-1.372,9.09
			c-4.779,2.759-12.527,2.757-17.274-0.002s-4.723-7.245,0.056-10.004c4.336-2.503,11.107-2.728,15.875-0.691l33.506-19.345
			l0.041-7.268c-2.583-0.191-5.076-0.854-7.051-2.001C1603.684,32.699,1603.709,28.209,1608.488,25.45z M1579.621,72.644
			c2.75-1.588,2.764-4.17,0.032-5.757c-2.728-1.585-7.186-1.585-9.935,0.002c-2.746,1.585-2.76,4.167-0.032,5.753
			C1572.418,74.229,1576.876,74.229,1579.621,72.644 M1622.048,33.33c2.746-1.585,2.76-4.167,0.032-5.753
			c-2.732-1.588-7.19-1.588-9.935-0.002c-2.75,1.588-2.764,4.17-0.032,5.757C1614.841,34.918,1619.299,34.918,1622.048,33.33"/>
	</g>
	<g style="opacity:0.22;">
		<path style="fill:#FFFFFF;" d="M1527.996,19.898c4.779-2.759,12.531-2.759,17.278,0c4.748,2.759,4.719,7.247-0.06,10.006
			c-4.779,2.759-12.527,2.761-17.275,0.002c-1.954-1.136-3.081-2.563-3.424-4.043l-23.165,0l-80.914,46.716l-0.15,26.573
			c2.488,0.218,4.886,0.873,6.795,1.982c4.748,2.759,4.723,7.249-0.056,10.008c-4.779,2.759-12.531,2.759-17.279,0
			c-4.748-2.759-4.723-7.249,0.056-10.008c1.863-1.076,4.179-1.726,6.591-1.961l0.155-27.529l83.2-48.036l24.861,0.003
			C1525.052,22.251,1526.178,20.947,1527.996,19.898z M1423.369,109.017c2.75-1.588,2.764-4.17,0.032-5.757
			c-2.732-1.588-7.19-1.588-9.939,0c-2.75,1.588-2.764,4.17-0.032,5.757C1416.161,110.604,1420.619,110.604,1423.369,109.017
			 M1541.557,27.778c2.75-1.588,2.764-4.17,0.036-5.755c-2.732-1.588-7.19-1.588-9.939,0c-2.75,1.588-2.764,4.17-0.032,5.757
			C1534.349,29.366,1538.807,29.366,1541.557,27.778"/>
	</g>
	<g style="opacity:0.22;">
		<path style="fill:#FFFFFF;" d="M1653.146,47.406c4.779-2.759,12.531-2.759,17.279,0c4.748,2.759,4.719,7.247-0.06,10.006
			c-4.39,2.534-11.272,2.733-16.044,0.617l-77.506,44.748l-0.211,37.456l-19.074,11.013c3.328,2.759,2.86,6.599-1.405,9.062
			c-4.779,2.759-12.527,2.761-17.274,0.002c-4.748-2.759-4.723-7.249,0.056-10.008c4.348-2.51,11.148-2.728,15.916-0.672
			l17.894-10.331l0.211-37.456l78.719-45.449C1648.417,53.639,1648.918,49.847,1653.146,47.406z M1666.706,55.286
			c2.75-1.588,2.764-4.17,0.036-5.755c-2.732-1.588-7.19-1.588-9.939,0c-2.75,1.588-2.764,4.17-0.033,5.757
			C1659.499,56.874,1663.957,56.874,1666.706,55.286 M1552.467,158.182c2.75-1.588,2.764-4.17,0.037-5.755
			c-2.732-1.588-7.19-1.588-9.94,0c-2.75,1.588-2.764,4.17-0.032,5.757C1545.259,159.769,1549.717,159.769,1552.467,158.182"/>
	</g>
	<g style="opacity:0.22;">
		<path style="fill:#FFFFFF;" d="M1923.336,267.977c0.013-0.922,0.012-1.844,0.022-2.766l-54.75-31.818l0.195-34.684
			c1.965-0.235,3.839-0.79,5.363-1.67c4.157-2.4,4.179-6.301,0.049-8.701s-10.869-2.402-15.025-0.002
			c-4.157,2.4-4.179,6.305-0.049,8.705c1.754,1.019,3.98,1.599,6.28,1.755l-0.199,35.408L1923.336,267.977z M1862.342,195.192
			c-2.376-1.381-2.363-3.627,0.028-5.008c2.388-1.379,6.266-1.379,8.642,0.002c2.373,1.379,2.36,3.625-0.028,5.004
			C1868.593,196.571,1864.715,196.571,1862.342,195.192z"/>
	</g>
	<g style="opacity:0.22;">
		<path style="fill:#FFFFFF;" d="M1521.912,0.428c-0.456,0.036-0.912,0.061-1.371,0.061c-0.99,0-1.947-0.099-2.885-0.244
			c-0.69,0.112-1.385,0.196-2.086,0.224c0.114,0.057,0.236,0.106,0.344,0.169c2.732,1.588,2.717,4.17-0.032,5.757
			s-7.208,1.588-9.939,0c-2.472-1.437-2.687-3.685-0.67-5.277c-0.022,0-0.044,0.003-0.065,0.003
			c-1.719-0.017-3.446-0.321-5.016-0.949c-2.179,2.341-1.922,5.241,0.77,7.445l-109.94,63.474l-0.325,57.846l-24.371,14.07
			c-4.757-1.958-11.416-1.707-15.698,0.765c-4.775,2.757-4.8,7.247-0.052,10.006c4.748,2.759,12.496,2.757,17.27,0
			c4.336-2.503,4.746-6.424,1.249-9.191l25.489-14.716l0.322-57.848l108.78-62.804c4.769,2.027,11.527,1.8,15.854-0.698
			C1523.328,6.335,1524.112,3.065,1521.912,0.428z M1364.193,151.656c-2.745,1.585-7.203,1.585-9.935-0.002
			c-2.732-1.588-2.717-4.17,0.028-5.755c2.75-1.588,7.207-1.588,9.939,0C1366.958,147.486,1366.943,150.068,1364.193,151.656z"/>
	</g>
	<g style="opacity:0.22;">
		<path style="fill:#FFFFFF;" d="M1475.434,46.298c4.775-2.757,12.526-2.757,17.27,0c4.748,2.759,4.723,7.249-0.052,10.006
			c-4.39,2.534-11.276,2.735-16.048,0.614l-31.112,17.963l-0.332,59.685l-81.477,47.041l-40.492-23.532
			c-4.766,1.903-11.348,1.633-15.561-0.815c-4.748-2.759-4.722-7.249,0.057-10.008c4.779-2.759,12.526-2.757,17.274,0.002
			c4.34,2.522,4.677,6.489,1.05,9.26l37.691,21.903l77.572-44.786l0.336-59.682l32.326-18.663
			C1470.705,52.531,1471.206,48.739,1475.434,46.298z M1488.994,54.179c2.745-1.585,2.76-4.167,0.028-5.755
			c-2.728-1.585-7.186-1.585-9.931,0c-2.75,1.588-2.764,4.165-0.041,5.753C1481.795,55.766,1486.245,55.766,1488.994,54.179
			 M1311.31,155.134c2.728,1.585,7.186,1.585,9.936-0.002c2.746-1.585,2.76-4.167,0.032-5.753c-2.732-1.587-7.19-1.588-9.935-0.002
			C1308.593,150.965,1308.579,153.547,1311.31,155.134"/>
	</g>
</g>
</svg>
