<?xml version="1.0" encoding="utf-8"?>
<!-- Generator: Adobe Illustrator 22.0.0, SVG Export Plug-In . SVG Version: 6.00 Build 0)  -->
<svg version="1.1" id="图层_1" xmlns="http://www.w3.org/2000/svg" xmlns:xlink="http://www.w3.org/1999/xlink" x="0px" y="0px"
	 viewBox="0 0 1920 1145" style="enable-background:new 0 0 1920 1145;" xml:space="preserve">
<style type="text/css">
	.st0{clip-path:url(#SVGID_2_);}
	.st1{fill:url(#SVGID_3_);}
	.st2{opacity:0.2;fill:#3F1ABB;enable-background:new    ;}
	.st3{display:none;fill:url(#SVGID_4_);}
	.st4{opacity:0.5;}
	.st5{opacity:0.2;fill:#DEDEDE;enable-background:new    ;}
	.st6{display:none;fill:url(#SVGID_5_);}
	.st7{opacity:0.22;}
	.st8{fill:#FFFFFF;}
	.st9{opacity:0.22;enable-background:new    ;}
	.st10{opacity:0.22;fill:#FFFFFF;enable-background:new    ;}
	.st11{clip-path:url(#SVGID_9_);enable-background:new    ;}
	.st12{clip-path:url(#SVGID_13_);enable-background:new    ;}
	.st13{clip-path:url(#SVGID_17_);enable-background:new    ;}
	.st14{clip-path:url(#SVGID_21_);enable-background:new    ;}
	.st15{clip-path:url(#SVGID_25_);enable-background:new    ;}
	.st16{clip-path:url(#SVGID_27_);enable-background:new    ;}
	.st17{clip-path:url(#SVGID_29_);enable-background:new    ;}
	.st18{clip-path:url(#SVGID_31_);enable-background:new    ;}
	.st19{clip-path:url(#SVGID_33_);enable-background:new    ;}
	.st20{clip-path:url(#SVGID_35_);enable-background:new    ;}
</style>
<g id="tuceng_1">
	<g>
		<g>
			<g>
				<defs>
					<rect id="SVGID_1_" x="0" width="1920" height="1145"/>
				</defs>
				<clipPath id="SVGID_2_">
					<use xlink:href="#SVGID_1_"  style="overflow:visible;"/>
				</clipPath>
				<g class="st0">
					
						<linearGradient id="SVGID_3_" gradientUnits="userSpaceOnUse" x1="931.0394" y1="11.5985" x2="930.9394" y2="13.4985" gradientTransform="matrix(1920 0 0 882.94 -1786589 -10231.0527)">
						<stop  offset="0" style="stop-color:#4A93FD"/>
						<stop  offset="1" style="stop-color:#4A93FD"/>
					</linearGradient>
					<path class="st1" d="M0-0.8h1920v837c0,0-466.8,46-946.8,46S0,836.1,0,836.1V-0.8z"/>
					<path class="st2" d="M924,323.6l586.6-492.3c133.6-112.1,332.8-94.7,445,38.9s94.7,332.8-38.9,445l0,0L1330,807.4
						c-132.8,113.1-332.1,97.1-445.2-35.7s-97.1-332.1,35.7-445.2C921.7,325.5,922.8,324.6,924,323.6L924,323.6z"/>
					
						<linearGradient id="SVGID_4_" gradientUnits="userSpaceOnUse" x1="927.6064" y1="9.2504" x2="927.6064" y2="10.2508" gradientTransform="matrix(212.0787 -56.8263 56.8263 212.0787 -195855.125 51360.9766)">
						<stop  offset="0" style="stop-color:#FEB02E"/>
						<stop  offset="1" style="stop-color:#FEB02E;stop-opacity:0.9"/>
					</linearGradient>
					<circle class="st3" cx="1458.4" cy="842.8" r="109.8"/>
					<g class="st4">
						<path class="st5" d="M241.6,768.4h289.2c3.5,0,6.3,2.8,6.4,6.3c0,3.5-2.9,6.4-6.4,6.4l0,0H241.6c-3.5,0-6.4-2.9-6.4-6.4l0,0
							c0-3.5,2.9-6.4,6.4-6.4l0,0V768.4z M398.6,816.7h199.3c3.5,0,6.3,2.8,6.4,6.3c0,3.5-2.9,6.4-6.4,6.4l0,0H398.6
							c-3.5,0-6.4-2.9-6.4-6.4l0,0C392.3,819.5,395.1,816.7,398.6,816.7z M255,816.7h124.1c3.5,0,6.3,2.8,6.4,6.3
							c0,3.5-2.9,6.4-6.4,6.4l0,0H255c-3.5,0-6.4-2.9-6.4-6.4l0,0C248.7,819.5,251.5,816.7,255,816.7z M266.4,744.2H359
							c3.5,0,6.4,2.9,6.4,6.4l0,0c0,3.5-2.9,6.4-6.4,6.4l0,0h-92.6c-3.5,0-6.4-2.9-6.4-6.4l0,0C260,747.1,262.9,744.2,266.4,744.2
							L266.4,744.2z M333.5,792.5h92.6c3.5,0,6.4,2.9,6.4,6.4l0,0c0,3.5-2.9,6.4-6.4,6.4l0,0h-92.6c-3.5,0-6.4-2.9-6.4-6.4l0,0
							C327.1,795.4,330,792.5,333.5,792.5L333.5,792.5z M221.4,792.5H314c3.5,0,6.4,2.9,6.4,6.4l0,0c0,3.5-2.9,6.4-6.4,6.4l0,0
							h-92.6c-3.5-0.1-6.3-2.9-6.3-6.4C215.1,795.4,217.9,792.6,221.4,792.5z M378.5,744.2H471c3.5,0.1,6.3,2.9,6.3,6.4
							s-2.8,6.3-6.3,6.4h-92.6c-3.5,0-6.4-2.9-6.4-6.4l0,0c0-3.5,2.9-6.4,6.4-6.4l0,0H378.5z M445.6,792.5h92.6
							c3.5,0.1,6.3,2.9,6.3,6.4s-2.8,6.3-6.3,6.4h-92.6c-3.5,0-6.4-2.9-6.4-6.4l0,0C439.2,795.4,442.1,792.5,445.6,792.5
							L445.6,792.5z M490.5,744.2h92.6c3.5,0,6.4,2.9,6.4,6.4l0,0c0,3.5-2.9,6.4-6.4,6.4l0,0h-92.6c-3.5,0-6.4-2.9-6.4-6.4l0,0
							C484.1,747.1,487,744.2,490.5,744.2L490.5,744.2L490.5,744.2z M551,768.4h136c3.5,0,6.3,2.8,6.4,6.3c0,3.5-2.9,6.4-6.4,6.4
							l0,0H551c-3.5,0-6.4-2.9-6.4-6.4l0,0c0-3.5,2.9-6.4,6.4-6.4l0,0V768.4z M557.6,792.5h92.6c3.5,0,6.4,2.9,6.4,6.4l0,0
							c0,3.5-2.9,6.4-6.4,6.4l0,0h-92.6c-3.5,0-6.4-2.9-6.4-6.4l0,0C551.2,795.4,554.1,792.5,557.6,792.5L557.6,792.5z"/>
					</g>
					<g class="st4">
						<path class="st5" d="M246.7,669.3h289.2c3.5,0,6.4,2.9,6.4,6.4l0,0c0,3.5-2.9,6.4-6.4,6.4l0,0H246.7c-3.5,0-6.4-2.9-6.4-6.4
							l0,0C240.3,672.2,243.2,669.3,246.7,669.3L246.7,669.3z M403.7,717.6H603c3.5,0,6.4,2.9,6.4,6.4l0,0c0,3.5-2.9,6.4-6.4,6.4
							l0,0H403.7c-3.5,0-6.4-2.9-6.4-6.4l0,0C397.3,720.5,400.2,717.6,403.7,717.6L403.7,717.6z M260.1,717.6h124.1
							c3.5,0,6.4,2.9,6.4,6.4l0,0c0,3.5-2.9,6.4-6.4,6.4l0,0H260.1c-3.5,0-6.4-2.9-6.4-6.4l0,0C253.7,720.5,256.6,717.6,260.1,717.6
							L260.1,717.6z M271.5,645.2h92.6c3.5,0,6.3,2.8,6.4,6.3c0,3.5-2.9,6.4-6.4,6.4l0,0h-92.6c-3.5,0-6.4-2.9-6.4-6.4l0,0
							C265.2,648,268,645.2,271.5,645.2z M338.6,693.5h92.6c3.5,0,6.4,2.9,6.4,6.4l0,0c-0.1,3.5-2.9,6.3-6.4,6.3h-92.6
							c-3.5,0-6.3-2.8-6.4-6.3C332.2,696.4,335.1,693.5,338.6,693.5L338.6,693.5z M226.6,693.5h92.6c3.5,0.1,6.3,2.9,6.3,6.4
							c-0.1,3.5-2.9,6.3-6.4,6.3h-92.6c-3.5-0.1-6.2-2.8-6.3-6.3C220.2,696.4,223.1,693.5,226.6,693.5L226.6,693.5L226.6,693.5z
							 M383.6,645.2h92.6c3.5,0.1,6.2,2.8,6.3,6.3c0,3.5-2.8,6.3-6.3,6.4h-92.6c-3.5,0-6.4-2.9-6.4-6.4l0,0
							C377.3,648,380.1,645.2,383.6,645.2z M450.7,693.5h92.6c3.5,0.1,6.3,2.9,6.3,6.4c-0.1,3.5-2.8,6.2-6.3,6.3h-92.6
							c-3.5,0-6.3-2.8-6.4-6.3C444.3,696.4,447.2,693.5,450.7,693.5L450.7,693.5L450.7,693.5z M495.6,645.2h92.6
							c3.5,0,6.3,2.8,6.4,6.3c0,3.5-2.9,6.4-6.4,6.4l0,0h-92.6c-3.5,0-6.4-2.9-6.4-6.4l0,0C489.3,648,492.1,645.2,495.6,645.2z
							 M556,669.3h136.2c3.5,0,6.4,2.9,6.4,6.4l0,0c0,3.5-2.9,6.4-6.4,6.4l0,0H556c-3.5,0-6.4-2.9-6.4-6.4l0,0
							C549.6,672.2,552.5,669.3,556,669.3L556,669.3z M562.7,693.5h92.6c3.5,0,6.4,2.9,6.4,6.4l0,0c-0.1,3.5-2.9,6.3-6.4,6.3h-92.6
							c-3.5,0-6.3-2.8-6.4-6.3C556.3,696.4,559.2,693.5,562.7,693.5L562.7,693.5z"/>
					</g>
					<g class="st4">
						<path class="st5" d="M241.6,871.5h289.2c3.5,0,6.3,2.8,6.4,6.3c0,3.5-2.9,6.4-6.4,6.4l0,0H241.6c-3.5,0-6.4-2.9-6.4-6.4l0,0
							C235.3,874.3,238.1,871.5,241.6,871.5z M398.6,919.8h199.3c3.5,0,6.4,2.9,6.4,6.4l0,0c-0.1,3.5-2.9,6.3-6.4,6.3H398.6
							c-3.5,0-6.4-2.9-6.4-6.4l0,0C392.3,922.6,395.1,919.8,398.6,919.8z M255,919.8h124.1c3.5,0,6.4,2.9,6.4,6.4l0,0
							c-0.1,3.5-2.9,6.3-6.4,6.3H255c-3.5,0-6.4-2.9-6.4-6.4l0,0C248.7,922.6,251.5,919.8,255,919.8z M266.4,847.3H359
							c3.5,0,6.4,2.9,6.4,6.4l0,0c0,3.5-2.9,6.4-6.4,6.4l0,0h-92.6c-3.5,0-6.4-2.9-6.4-6.4l0,0C260,850.2,262.9,847.3,266.4,847.3
							L266.4,847.3z M333.5,895.6h92.6c3.5,0,6.4,2.9,6.4,6.4l0,0c0,3.5-2.9,6.4-6.4,6.4l0,0h-92.6c-3.5,0-6.4-2.9-6.4-6.4l0,0
							C327.1,898.5,330,895.6,333.5,895.6L333.5,895.6z M221.4,895.6H314c3.5,0,6.4,2.9,6.4,6.4l0,0c0,3.5-2.9,6.4-6.4,6.4l0,0
							h-92.6c-3.5-0.1-6.3-2.9-6.3-6.4C215.1,898.5,217.9,895.7,221.4,895.6z M378.5,847.3H471c3.5,0.1,6.3,2.9,6.3,6.4
							s-2.8,6.3-6.3,6.4h-92.6c-3.5,0-6.4-2.9-6.4-6.4l0,0c0-3.5,2.9-6.4,6.4-6.4l0,0H378.5z M445.6,895.6h92.6
							c3.5,0.1,6.3,2.9,6.3,6.4s-2.8,6.3-6.3,6.4h-92.6c-3.5,0-6.4-2.9-6.4-6.4l0,0C439.2,898.5,442.1,895.6,445.6,895.6
							L445.6,895.6z M490.5,847.3h92.6c3.5,0,6.4,2.9,6.4,6.4l0,0c0,3.5-2.9,6.4-6.4,6.4l0,0h-92.6c-3.5,0-6.4-2.9-6.4-6.4l0,0
							C484.1,850.2,487,847.3,490.5,847.3L490.5,847.3L490.5,847.3z M551,871.5h136c3.5,0,6.3,2.8,6.4,6.3c0,3.5-2.9,6.4-6.4,6.4
							l0,0H551c-3.5,0-6.4-2.9-6.4-6.4l0,0C544.7,874.3,547.5,871.5,551,871.5z M557.6,895.6h92.6c3.5,0,6.4,2.9,6.4,6.4l0,0
							c0,3.5-2.9,6.4-6.4,6.4l0,0h-92.6c-3.5,0-6.4-2.9-6.4-6.4l0,0C551.2,898.5,554.1,895.6,557.6,895.6L557.6,895.6z"/>
					</g>
					
						<linearGradient id="SVGID_5_" gradientUnits="userSpaceOnUse" x1="929.7977" y1="14.2834" x2="929.7977" y2="15.2832" gradientTransform="matrix(90.3382 337.1468 -336.1808 90.0794 -78482 -313842.0313)">
						<stop  offset="0" style="stop-color:#3ECF8E"/>
						<stop  offset="1" style="stop-color:#3ECF8E;stop-opacity:0.8"/>
					</linearGradient>
					<path class="st6" d="M491,801.6c92.8-24.9,188.3,30.4,213.2,123.5s-30.1,188.7-122.9,213.6s-188.3-30.4-213.2-123.5
						S398.1,826.5,491,801.6z"/>
				</g>
			</g>
		</g>
	</g>
</g>
<g id="tuceng_3">
	<g class="st7">
		<path class="st8" d="M1455.4,137.8c4.8-2.8,12.5-2.8,17.3,0s4.7,7.2-0.1,10c-4.2,2.4-10.6,2.7-15.3,0.9l-101.7,58.7h-51.4
			L1169,285.6c3.8,2.8,3.5,6.8-1,9.4c-4.8,2.8-12.5,2.8-17.3,0s-4.7-7.2,0.1-10c4.2-2.4,10.6-2.7,15.3-0.9l136.5-78.8h51.4l100.4-58
			C1450.6,144.5,1450.9,140.4,1455.4,137.8z M1469,145.7c2.8-1.6,2.8-4.2,0-5.8c-2.7-1.6-7.2-1.6-9.9,0c-2.8,1.6-2.8,4.2,0,5.8
			C1461.7,147.3,1466.2,147.3,1469,145.7 M1164.4,292.8c2.8-1.6,2.8-4.2,0-5.8c-2.7-1.6-7.2-1.6-9.9,0s-2.8,4.2,0,5.8
			C1157.2,294.4,1161.6,294.4,1164.4,292.8"/>
	</g>
	<g class="st7">
		<path class="st8" d="M1739.4,60c4.2-1.7,10-1.5,13.7,0.6c4.1,2.4,4.1,6.3,0,8.7s-10.9,2.4-15,0c-3.7-2.2-4.1-5.5-1.1-7.9l-37.9-22
			c-4.2,1.7-10,1.5-13.7-0.6c-4.1-2.4-4.1-6.3,0-8.7s10.9-2.4,15,0c3.7,2.2,4.1,5.5,1,7.9L1739.4,60z M1688.6,36.9
			c2.4,1.4,6.3,1.4,8.6,0c2.4-1.4,2.4-3.6,0-5c-2.4-1.4-6.3-1.4-8.6,0C1686.2,33.3,1686.2,35.5,1688.6,36.9 M1749.9,67.5
			c2.4-1.4,2.4-3.6,0-5s-6.3-1.4-8.6,0c-2.4,1.4-2.4,3.6,0,5C1743.7,68.9,1747.5,68.9,1749.9,67.5"/>
	</g>
	<g class="st9">
		<g>
			<path id="SVGID_6_" class="st10" d="M1741.3,67.5c2.4,1.4,6.2,1.4,8.6,0C1747.5,68.9,1743.7,68.9,1741.3,67.5z"/>
		</g>
		<g>
			<g>
				<defs>
					<path id="SVGID_7_" d="M1741.3,67.5c2.4,1.4,6.2,1.4,8.6,0C1747.5,68.9,1743.7,68.9,1741.3,67.5z"/>
				</defs>
				<clipPath id="SVGID_9_">
					<use xlink:href="#SVGID_7_"  style="overflow:visible;"/>
				</clipPath>
				<g class="st11">
					<path class="st8" d="M1741.3,67.5c2.4,1.4,6.2,1.4,8.6,0C1747.5,68.9,1743.7,68.9,1741.3,67.5"/>
				</g>
			</g>
		</g>
	</g>
	<g class="st9">
		<g>
			<path id="SVGID_8_" class="st10" d="M1738.1,69.4c-3.7-2.2-4-5.5-1-7.9C1734,63.8,1734.4,67.2,1738.1,69.4z"/>
		</g>
		<g>
			<g>
				<defs>
					<path id="SVGID_11_" d="M1738.1,69.4c-3.7-2.2-4-5.5-1-7.9C1734,63.8,1734.4,67.2,1738.1,69.4z"/>
				</defs>
				<clipPath id="SVGID_13_">
					<use xlink:href="#SVGID_11_"  style="overflow:visible;"/>
				</clipPath>
				<g class="st12">
					<path class="st8" d="M1738.1,69.4c-3.7-2.2-4-5.5-1-7.9C1734,63.8,1734.4,67.2,1738.1,69.4"/>
				</g>
			</g>
		</g>
	</g>
	<g class="st7">
		<path class="st8" d="M1697.2,31.9L1697.2,31.9L1697.2,31.9z"/>
	</g>
	<g class="st9">
		<path class="st8" d="M1685.4,30L1685.4,30L1685.4,30"/>
	</g>
	<g class="st7">
		<path class="st8" d="M1653.5,3c-0.8,0.4-1.8,0.6-2.9,0.6c-0.3,0-0.7,0-1-0.1l-0.2,34.6l-114.7,66.2c-4.8-2-11.5-1.8-15.9,0.7
			c-4.8,2.8-4.8,7.2-0.1,10c4.7,2.8,12.5,2.8,17.3,0c4.3-2.5,4.7-6.3,1.4-9.1L1653.2,39L1653.5,3z M1532.5,113
			c-2.8,1.6-7.2,1.6-9.9,0c-2.7-1.6-2.7-4.2,0-5.8c2.8-1.6,7.2-1.6,9.9,0C1535.2,108.8,1535.2,111.4,1532.5,113z"/>
	</g>
	<g class="st7">
		<path class="st8" d="M1692.1,56.5c4.2-2.4,10.9-2.4,15,0s4.1,6.3,0,8.7c-3.7,2.1-9.5,2.4-13.6,0.7l-72.1,41.6l-0.3,49.5
			c2.4,0.1,4.8,0.7,6.6,1.8c4.1,2.4,4.1,6.3,0,8.7c-4.2,2.4-10.9,2.4-15,0s-4.1-6.3,0-8.7c1.4-0.8,3.2-1.4,5-1.6l0.3-50.4l73.1-42.2
			C1688,62.1,1688.4,58.7,1692.1,56.5z M1703.9,63.4c2.4-1.4,2.4-3.6,0-5s-6.3-1.4-8.6,0s-2.4,3.6,0,5
			C1697.7,64.7,1701.5,64.7,1703.9,63.4 M1624.5,165.6c2.4-1.4,2.4-3.6,0-5s-6.3-1.4-8.6,0c-2.4,1.4-2.4,3.6,0,5
			S1622.1,167,1624.5,165.6"/>
	</g>
	<g class="st9">
		<g>
			<path id="SVGID_10_" class="st10" d="M1703.9,63.4L1703.9,63.4L1703.9,63.4z"/>
		</g>
		<g>
			<g>
				<defs>
					<path id="SVGID_15_" d="M1703.9,63.4L1703.9,63.4L1703.9,63.4z"/>
				</defs>
				<clipPath id="SVGID_17_">
					<use xlink:href="#SVGID_15_"  style="overflow:visible;"/>
				</clipPath>
				<g class="st13">
					<polyline class="st8" points="1703.9,63.4 1703.9,63.4 1703.9,63.4 					"/>
				</g>
			</g>
		</g>
	</g>
	<g class="st9">
		<polyline class="st8" points="1704,58.3 1704,58.3 1704,58.3 		"/>
	</g>
	<g class="st7">
		<path class="st8" d="M1803,64.7c-4.1-2.4-10.9-2.4-15,0c-3.7,2.2-4.1,5.5-1.2,7.9l-67.3,38.9l-0.1,24.2c-2.2,0.2-4.4,0.7-6.1,1.7
			c-4.2,2.4-4.2,6.3,0,8.7c4.1,2.4,10.9,2.4,15,0s4.2-6.3,0-8.7c-1.6-0.9-3.5-1.5-5.6-1.7l0.1-23.4l66.3-38.3
			c4.1,1.8,10,1.6,13.8-0.6C1807.1,71,1807.1,67.1,1803,64.7z M1725.1,139.3c2.4,1.4,2.4,3.6,0,5s-6.3,1.4-8.6,0
			c-2.4-1.4-2.4-3.6,0-5C1718.8,137.9,1722.7,137.9,1725.1,139.3 M1799.8,71.6c-2.4,1.4-6.3,1.4-8.6,0c-2.4-1.4-2.4-3.6,0-5
			s6.3-1.4,8.6,0C1802.2,67.9,1802.2,70.2,1799.8,71.6"/>
	</g>
	<g class="st7">
		<path class="st8" d="M1828.4,75.9c4.2-2.4,10.9-2.4,15,0s4.1,6.3,0,8.7c-3.7,2.2-9.5,2.4-13.7,0.7l-79.6,46l-0.3,55.5L1732,197
			c3.1,2.4,2.8,5.9-1,8.1c-4.2,2.4-10.9,2.4-15,0s-4.1-6.3,0-8.7c3.7-2.1,9.4-2.4,13.5-0.7l16.9-9.8l0.3-55.5l80.6-46.5
			C1824.3,81.5,1824.6,78.1,1828.4,75.9z M1727.8,203.2c2.4-1.4,2.4-3.6,0-5s-6.3-1.4-8.6,0s-2.4,3.6,0,5
			C1721.5,204.6,1725.4,204.6,1727.8,203.2 M1840.2,82.8c2.4-1.4,2.4-3.6,0-5s-6.3-1.4-8.6,0c-2.4,1.4-2.4,3.6,0,5
			C1833.9,84.2,1837.8,84.2,1840.2,82.8"/>
	</g>
	<g class="st7">
		<path class="st8" d="M1693.5,77.7c4.2-2.4,10.9-2.4,15,0s4.1,6.3,0,8.7c-3.6,2.1-9.2,2.4-13.3,0.8l-36.3,21l-0.2,39.6l27.6,16.1
			l-0.3,61.9l27,15.7c4.2-1.9,10.3-1.8,14.2,0.4c4.1,2.4,4.1,6.3,0,8.7s-10.9,2.4-15,0c-3.6-2.1-4-5.3-1.4-7.7l-28.1-16.3l0.3-61.9
			l-27.6-16.1l0.2-41.3l37.2-21.5C1689.4,83.5,1689.7,80,1693.5,77.7z M1705.3,84.6c2.4-1.4,2.4-3.6,0-5s-6.3-1.4-8.6,0
			c-2.4,1.4-2.4,3.6,0,5C1699.1,86,1703,86,1705.3,84.6 M1723.9,243.8c-2.4-1.4-6.3-1.4-8.6,0s-2.4,3.6,0,5s6.3,1.4,8.6,0
			C1726.3,247.4,1726.3,245.2,1723.9,243.8"/>
	</g>
	<g class="st9">
		<path class="st8" d="M1705.4,79.6L1705.4,79.6c-2.4-1.4-6.2-1.4-8.6,0C1699.1,78.2,1703,78.2,1705.4,79.6"/>
	</g>
	<g class="st7">
		<path class="st8" d="M1367.5,26.6c4.8-2.8,12.5-2.8,17.3,0s4.7,7.2-0.1,10c-4.2,2.4-10.8,2.7-15.6,0.8l-29.8,17.2l-0.2,33.4
			c2.7,0.1,5.4,0.8,7.5,2c4.7,2.8,4.7,7.2-0.1,10c-4.8,2.8-12.5,2.8-17.3,0c-4.7-2.8-4.7-7.2,0.1-10c1.7-1,3.7-1.6,5.9-1.9l0.2-34.5
			l30.9-17.9C1362.7,33.1,1363.1,29.1,1367.5,26.6z M1381,34.5c2.8-1.6,2.8-4.2,0-5.8c-2.7-1.6-7.2-1.6-9.9,0
			c-2.8,1.6-2.8,4.2,0,5.8C1373.8,36.1,1378.3,36.1,1381,34.5 M1342.8,98c2.8-1.6,2.8-4.2,0-5.8c-2.7-1.6-7.2-1.6-9.9,0
			c-2.7,1.6-2.8,4.2,0,5.8C1335.6,99.6,1340.1,99.6,1342.8,98"/>
	</g>
	<g class="st7">
		<path class="st8" d="M1850.5,89.4c4.2-2.4,10.9-2.4,15,0s4.1,6.3,0,8.7c-3.8,2.2-9.9,2.4-14,0.5l-77.4,44.7l-0.4,63.2l-18.4,10.6
			c3.7,2.4,3.6,6.1-0.4,8.5c-4.2,2.4-10.9,2.4-15,0s-4.1-6.3,0-8.7c3.5-2,8.7-2.3,12.8-1l17.7-10.2l0.4-63.2l78.5-45.3
			C1846.4,94.7,1846.8,91.5,1850.5,89.4z M1862.3,96.2c2.4-1.4,2.4-3.6,0-5s-6.3-1.4-8.6,0c-2.4,1.4-2.4,3.6,0,5
			C1856,97.6,1859.9,97.6,1862.3,96.2 M1751.6,223.7c2.4-1.4,2.4-3.6,0-5s-6.3-1.4-8.6,0c-2.4,1.4-2.4,3.6,0,5
			C1745.4,225,1749.3,225,1751.6,223.7"/>
	</g>
	<g class="st7">
		<path class="st8" d="M1574.9,4.9c-0.9,0-1.7-0.1-2.5-0.2l-0.1,23.2l-60.9,35.2l-0.1,24.2l-21.6,12.5l-0.2,44.1l-41.9,24.2
			c-4.8-2-11.4-1.7-15.7,0.8c-4.8,2.8-4.8,7.2-0.1,10c4.7,2.8,12.5,2.8,17.3,0c4.3-2.5,4.7-6.4,1.2-9.2l43-24.8l0.2-44.1l21.6-12.5
			l0.1-24.2l60.9-35.2l0.1-24C1575.8,4.9,1575.3,4.9,1574.9,4.9z M1445.2,176.8c-2.8,1.6-7.2,1.6-9.9,0c-2.7-1.6-2.7-4.2,0-5.8
			s7.2-1.6,9.9,0C1448,172.6,1448,175.2,1445.2,176.8z"/>
	</g>
	<g class="st7">
		<path class="st8" d="M1914.4,395.6l-9.8-5.7h-65.2l-72-41.9l0.1-12.3c2.2-0.2,4.3-0.8,6-1.7c4.2-2.4,4.2-6.3,0-8.7
			c-4.1-2.4-10.9-2.4-15,0s-4.2,6.3-0.1,8.7c1.6,0.9,3.6,1.5,5.7,1.7l-0.1,13.1l74,43h65.2l11.6,6.7
			C1914.6,397.6,1914.5,396.6,1914.4,395.6z M1761.6,332.2c-2.4-1.4-2.4-3.6,0-5s6.3-1.4,8.6,0c2.4,1.4,2.4,3.6,0,5
			C1767.9,333.5,1764,333.5,1761.6,332.2z"/>
		<path class="st8" d="M1915.5,343.6l-71.8-41.7c2.2-1.9,2.3-4.4,0.3-6.4c3.5,1.2,8,1.1,11.3-0.3l60.9,35.4c0.1-0.9,0.1-1.8,0.2-2.7
			l-58.6-34.1c3.1-2.4,2.8-5.8-1-8c-4.1-2.4-10.9-2.4-15,0c-3.5,2-4,5-1.8,7.4c-4-1.3-9.3-1-12.8,1c-4.2,2.4-4.2,6.3,0,8.7
			c3.9,2.2,10,2.4,14.1,0.5l73.9,42.9C1915.4,345.4,1915.5,344.5,1915.5,343.6z M1839.2,301c-2.4,1.4-6.3,1.4-8.6,0
			c-2.4-1.4-2.4-3.6,0-5s6.3-1.4,8.6,0C1841.6,297.4,1841.6,299.7,1839.2,301z M1845.1,287.6c2.4-1.4,6.3-1.4,8.6,0
			c2.4,1.4,2.4,3.6,0,5s-6.3,1.4-8.6,0C1842.7,291.3,1842.7,289,1845.1,287.6z"/>
		<path class="st8" d="M1914.2,363.3L1798.3,296l0.8-135.7l48.9-28.2c4.1,1.7,10,1.5,13.7-0.6c4.2-2.4,4.2-6.3,0.1-8.7
			c-4.1-2.4-10.9-2.4-15,0c-3.7,2.2-4.1,5.5-1.1,7.9l-49.9,28.8l-0.8,137.3l119,69.2C1914.1,365.1,1914.1,364.2,1914.2,363.3z
			 M1849.9,124.6c2.4-1.4,6.3-1.4,8.6,0c2.4,1.4,2.4,3.6,0,5c-2.4,1.4-6.3,1.4-8.6,0C1847.5,128.2,1847.5,125.9,1849.9,124.6z"/>
	</g>
	<g class="st9">
		<path class="st8" d="M1846.7,122.7L1846.7,122.7L1846.7,122.7"/>
	</g>
	<g class="st7">
		<path class="st8" d="M1681.4,117.6c4.2-2.4,10.9-2.4,15,0s4.1,6.3,0,8.7c-1.8,1-4,1.6-6.3,1.8l-0.1,18l17.3,10
			c4.1-1.6,9.8-1.4,13.5,0.7c4.1,2.4,4.1,6.3-0.1,8.7s-10.9,2.4-15,0c-3.8-2.2-4.1-5.7-0.9-8.1l-18.2-10.6l0.1-18.9
			c-1.9-0.2-3.8-0.8-5.3-1.7C1677.2,123.9,1677.3,120,1681.4,117.6z M1717.5,158.6c-2.4-1.4-6.3-1.4-8.6,0c-2.4,1.4-2.4,3.6,0,5
			s6.3,1.4,8.6,0C1719.8,162.3,1719.9,160,1717.5,158.6 M1693.2,124.4c2.4-1.4,2.4-3.6,0-5s-6.3-1.4-8.6,0c-2.4,1.4-2.4,3.6,0,5
			C1686.9,125.8,1690.8,125.8,1693.2,124.4"/>
	</g>
	<g class="st7">
		<path class="st8" d="M1873.6,138.3c4.2-2.4,10.9-2.4,15,0s4.1,6.3-0.1,8.7c-3.9,2.3-10.2,2.4-14.3,0.4l-47.2,27.2l-0.2,39.2
			c2.2,0.2,4.2,0.8,5.9,1.7c4.1,2.4,4.1,6.3,0,8.7c-4.2,2.4-10.9,2.4-15,0s-4.1-6.3,0-8.7c1.6-0.9,3.6-1.5,5.7-1.7l0.2-40.1
			l48.4-27.9C1869.5,143.5,1870,140.4,1873.6,138.3z M1885.4,145.2c2.4-1.4,2.4-3.6,0-5s-6.3-1.4-8.6,0s-2.4,3.6,0,5
			C1879.1,146.6,1883,146.6,1885.4,145.2 M1829.5,222.4c2.4-1.4,2.4-3.6,0-5s-6.3-1.4-8.6,0c-2.4,1.4-2.4,3.6,0,5
			C1823.2,223.8,1827.1,223.8,1829.5,222.4"/>
	</g>
	<g class="st7">
		<path class="st8" d="M1433.2,11c4.8-2.8,12.5-2.8,17.3,0c4.7,2.8,4.7,7.2-0.1,10c-4.3,2.5-11.1,2.7-15.9,0.7l-70.2,40.6l-0.3,55
			l-25.5,14.7c3.6,2.8,3.2,6.7-1.1,9.3c-4.8,2.8-12.5,2.8-17.3,0c-4.7-2.8-4.7-7.2,0.1-10c4.2-2.5,10.8-2.7,15.6-0.8l24.4-14.1
			l0.3-55l71.4-41.2C1428.4,17.3,1428.9,13.5,1433.2,11z M1446.7,18.9c2.8-1.6,2.8-4.2,0-5.8c-2.7-1.6-7.2-1.6-9.9,0
			c-2.7,1.6-2.8,4.2,0,5.8C1439.5,20.5,1444,20.5,1446.7,18.9 M1334.3,133.7l-1.2-0.7c-2.7-1.3-6.8-1.1-9.3,0.3
			c-2.7,1.6-2.8,4.2,0,5.8c2.7,1.6,7.2,1.6,9.9,0C1336.2,137.6,1336.4,135.3,1334.3,133.7"/>
	</g>
	<g class="st7">
		<path class="st8" d="M1603.9,27.9c4.8-2.8,12.5-2.8,17.3,0s4.7,7.2-0.1,10c-1.8,1-4,1.7-6.3,1.9v8.3l-34.7,20
			c3.4,2.8,2.9,6.6-1.4,9.1c-4.8,2.8-12.5,2.8-17.3,0s-4.7-7.2,0.1-10c4.3-2.5,11.1-2.7,15.9-0.7l33.5-19.3v-7.3
			c-2.6-0.2-5.1-0.9-7.1-2C1599.1,35.2,1599.1,30.7,1603.9,27.9z M1575,75.1c2.8-1.6,2.8-4.2,0-5.8c-2.7-1.6-7.2-1.6-9.9,0
			c-2.7,1.6-2.8,4.2,0,5.8C1567.8,76.7,1572.3,76.7,1575,75.1 M1617.5,35.8c2.7-1.6,2.8-4.2,0-5.8c-2.7-1.6-7.2-1.6-9.9,0
			c-2.8,1.6-2.8,4.2,0,5.8C1610.3,37.4,1614.7,37.4,1617.5,35.8"/>
	</g>
	<g class="st7">
		<path class="st8" d="M1523.4,22.4c4.8-2.8,12.5-2.8,17.3,0c4.7,2.8,4.7,7.2-0.1,10s-12.5,2.8-17.3,0c-2-1.1-3.1-2.6-3.4-4h-23.2
			l-80.9,46.7l-0.2,26.6c2.5,0.2,4.9,0.9,6.8,2c4.7,2.8,4.7,7.2-0.1,10s-12.5,2.8-17.3,0s-4.7-7.2,0.1-10c1.9-1.1,4.2-1.7,6.6-2
			l0.2-27.5l83.2-48h24.9C1520.5,24.7,1521.6,23.4,1523.4,22.4z M1418.8,111.5c2.8-1.6,2.8-4.2,0-5.8c-2.7-1.6-7.2-1.6-9.9,0
			c-2.8,1.6-2.8,4.2,0,5.8C1411.6,113.1,1416,113.1,1418.8,111.5 M1537,30.3c2.8-1.6,2.8-4.2,0-5.8c-2.7-1.6-7.2-1.6-9.9,0
			c-2.8,1.6-2.8,4.2,0,5.8C1529.8,31.9,1534.2,31.9,1537,30.3"/>
	</g>
	<g class="st7">
		<path class="st8" d="M1648.6,49.9c4.8-2.8,12.5-2.8,17.3,0s4.7,7.2-0.1,10c-4.4,2.5-11.3,2.7-16,0.6l-77.5,44.7l-0.2,37.5
			l-19.1,11c3.3,2.8,2.9,6.6-1.4,9.1c-4.8,2.8-12.5,2.8-17.3,0c-4.7-2.8-4.7-7.2,0.1-10c4.3-2.5,11.1-2.7,15.9-0.7l17.9-10.3
			l0.2-37.5l78.7-45.4C1643.8,56.1,1644.3,52.3,1648.6,49.9z M1662.1,57.8c2.8-1.6,2.8-4.2,0-5.8c-2.7-1.6-7.2-1.6-9.9,0
			c-2.8,1.6-2.8,4.2,0,5.8C1654.9,59.4,1659.4,59.4,1662.1,57.8 M1547.9,160.7c2.8-1.6,2.8-4.2,0-5.8c-2.7-1.6-7.2-1.6-9.9,0
			s-2.8,4.2,0,5.8C1540.7,162.3,1545.1,162.3,1547.9,160.7"/>
	</g>
	<g class="st7">
		<path class="st8" d="M1918.8,270.5c0-0.9,0-1.8,0-2.8l-54.8-31.8l0.2-34.7c2-0.2,3.8-0.8,5.4-1.7c4.2-2.4,4.2-6.3,0-8.7
			s-10.9-2.4-15,0c-4.2,2.4-4.2,6.3,0,8.7c1.8,1,4,1.6,6.3,1.8l-0.2,35.4L1918.8,270.5z M1857.8,197.7c-2.4-1.4-2.4-3.6,0-5
			s6.3-1.4,8.6,0c2.4,1.4,2.4,3.6,0,5C1864,199.1,1860.1,199.1,1857.8,197.7z"/>
	</g>
	<g class="st9">
		<g>
			<path id="SVGID_12_" class="st10" d="M1832.7,215.6L1832.7,215.6L1832.7,215.6z"/>
		</g>
		<g>
			<g>
				<defs>
					<path id="SVGID_19_" d="M1832.7,215.6L1832.7,215.6L1832.7,215.6z"/>
				</defs>
				<clipPath id="SVGID_21_">
					<use xlink:href="#SVGID_19_"  style="overflow:visible;"/>
				</clipPath>
				<g class="st14">
					<path class="st8" d="M1832.7,215.6L1832.7,215.6L1832.7,215.6"/>
				</g>
			</g>
		</g>
	</g>
	<g class="st9">
		<g>
			<path id="SVGID_14_" class="st10" d="M1755.3,217.1L1755.3,217.1L1755.3,217.1z"/>
		</g>
		<g>
			<g>
				<defs>
					<path id="SVGID_23_" d="M1755.3,217.1L1755.3,217.1L1755.3,217.1z"/>
				</defs>
				<clipPath id="SVGID_25_">
					<use xlink:href="#SVGID_23_"  style="overflow:visible;"/>
				</clipPath>
				<g class="st15">
					<polyline class="st8" points="1755.3,217.1 1755.3,217.1 1755.3,217.1 					"/>
				</g>
			</g>
		</g>
	</g>
	<g class="st9">
		<g>
			<path id="SVGID_16_" class="st10" d="M1743,218.7L1743,218.7L1743,218.7z"/>
		</g>
		<g>
			<g>
				<defs>
					<path id="SVGID_26_" d="M1743,218.7L1743,218.7L1743,218.7z"/>
				</defs>
				<clipPath id="SVGID_27_">
					<use xlink:href="#SVGID_26_"  style="overflow:visible;"/>
				</clipPath>
				<g class="st16">
					<polyline class="st8" points="1743,218.7 1743,218.7 1743,218.7 					"/>
				</g>
			</g>
		</g>
	</g>
	<g class="st7">
		<path class="st8" d="M1517.3,2.9c-0.5,0-0.9,0.1-1.4,0.1c-1,0-1.9-0.1-2.9-0.2c-0.7,0.1-1.4,0.2-2.1,0.2c0.1,0.1,0.2,0.1,0.3,0.2
			c2.7,1.6,2.7,4.2,0,5.8s-7.2,1.6-9.9,0c-2.5-1.4-2.7-3.7-0.7-5.3c0,0,0,0-0.1,0c-1.7,0-3.4-0.3-5-0.9c-2.2,2.3-1.9,5.2,0.8,7.4
			l-109.9,63.5l-0.3,57.8l-24.4,14.1c-4.8-2-11.4-1.7-15.7,0.8c-4.8,2.8-4.8,7.2-0.1,10s12.5,2.8,17.3,0c4.3-2.5,4.7-6.4,1.2-9.2
			l25.5-14.7l0.3-57.8L1499,11.9c4.8,2,11.5,1.8,15.9-0.7C1518.8,8.8,1519.5,5.6,1517.3,2.9z M1359.6,154.2c-2.7,1.6-7.2,1.6-9.9,0
			c-2.7-1.6-2.7-4.2,0-5.8c2.8-1.6,7.2-1.6,9.9,0C1362.4,150,1362.4,152.6,1359.6,154.2z"/>
	</g>
	<g class="st7">
		<path class="st8" d="M1470.9,48.8c4.8-2.8,12.5-2.8,17.3,0c4.7,2.8,4.7,7.2-0.1,10c-4.4,2.5-11.3,2.7-16,0.6l-31.1,18l-0.3,59.7
			l-81.5,47l-40.5-23.5c-4.8,1.9-11.3,1.6-15.6-0.8c-4.7-2.8-4.7-7.2,0.1-10s12.5-2.8,17.3,0c4.3,2.5,4.7,6.5,1.1,9.3l37.7,21.9
			l77.6-44.8l0.3-59.7l32.3-18.7C1466.1,55,1466.6,51.2,1470.9,48.8z M1484.4,56.7c2.7-1.6,2.8-4.2,0-5.8c-2.7-1.6-7.2-1.6-9.9,0
			c-2.8,1.6-2.8,4.2,0,5.8C1477.2,58.3,1481.7,58.3,1484.4,56.7 M1306.7,157.6c2.7,1.6,7.2,1.6,9.9,0c2.7-1.6,2.8-4.2,0-5.8
			c-2.7-1.6-7.2-1.6-9.9,0C1304,153.5,1304,156,1306.7,157.6"/>
	</g>
</g>
<g id="tuceng2">
	<g class="st7">
		<path class="st8" d="M365.2,3c-1.1,0-2.1,0.1-3.2,0.1l-0.2,36.5L342,51.1c-3.9-1.5-9.2-1.3-12.7,0.7c-3.9,2.2-3.9,5.9,0,8.2
			c3.9,2.2,10.2,2.2,14.1,0c3.6-2.1,3.9-5.3,0.9-7.6l20.8-12L365.2,3z M340.3,58.2c-2.2,1.3-5.9,1.3-8.1,0s-2.2-3.4,0-4.7
			c2.1-1.2,5.4-1.3,7.6-0.3l1,0.6C342.6,55.1,342.4,57,340.3,58.2z"/>
	</g>
	<g class="st7">
		<path class="st8" d="M338.2,3.2c-0.3,0.3-0.6,0.7-1.1,0.9c-2.2,1.3-5.9,1.3-8.1,0c-0.5-0.3-0.9-0.7-1.2-1c-1.5,0-3,0-4.4,0
			c0.4,1,1.3,2,2.6,2.8c1.6,0.9,3.6,1.5,5.6,1.6v7.3l-54.3,31.3l10.3,6c-2.7,2.2-2.3,5.4,1.1,7.4c3.9,2.2,10.2,2.2,14.1,0
			s3.9-5.9,0-8.2c-3.5-2.1-9.1-2.2-13-0.5l-8-4.7l53-30.6V7.4c1.9-0.2,3.8-0.7,5.3-1.6c1.3-0.8,2.2-1.7,2.6-2.7
			C341.1,3.2,339.7,3.2,338.2,3.2z M291.6,53.1c2.2-1.3,5.9-1.3,8.1,0s2.2,3.4,0,4.7s-5.9,1.3-8.1,0S289.4,54.4,291.6,53.1z"/>
	</g>
	<g class="st7">
		<path class="st8" d="M287.8,10.3c3.9-2.2,10.2-2.3,14.1,0s3.9,5.9,0,8.2c-3.5,2-9,2.2-12.9,0.6l-58,33.5c2.8,2.3,2.4,5.4-1.1,7.5
			c-3.9,2.2-10.2,2.2-14.1,0c-3.9-2.2-3.9-5.9,0-8.2c3.5-2,9-2.2,12.9-0.6l58-33.5C284,15.5,284.3,12.3,287.8,10.3z M298.9,16.7
			c2.2-1.3,2.3-3.4,0-4.7s-5.9-1.3-8.1,0s-2.3,3.4,0,4.7C293,18,296.6,18,298.9,16.7 M228,54.3l-1.6,0.9l-2.2-1.3l1.6-0.9
			c-2.2-0.7-5-0.5-6.8,0.6c-2.2,1.3-2.3,3.4,0,4.7s5.9,1.3,8.1,0C228.8,57.2,229.1,55.6,228,54.3"/>
	</g>
	<g class="st9">
		<polyline class="st8" points="287.8,10.3 287.8,10.3 287.8,10.3 		"/>
	</g>
	<g class="st7">
		<path class="st8" d="M427.4,60.2c3.9-2.2,10.2-2.2,14.1,0s3.9,5.9,0,8.2c-3.6,2.1-9.3,2.2-13.2,0.5l-72.6,41.9l-44-25.6
			c-3.9,1.6-9.3,1.3-12.7-0.7c-3.9-2.2-3.9-5.9,0-8.2c3.9-2.2,10.2-2.2,14.1,0c3.5,2.1,3.8,5.3,0.9,7.6l41.7,24.2l70.4-40.6
			C423.6,65.2,424,62.1,427.4,60.2z M438.5,66.6c2.2-1.3,2.3-3.4,0-4.7c-2.2-1.3-5.9-1.3-8.1,0s-2.3,3.4,0,4.7
			C432.6,67.9,436.3,67.9,438.5,66.6 M302.1,82.7c2.2,1.3,5.9,1.3,8.1,0s2.3-3.4,0-4.7c-2.2-1.3-5.9-1.3-8.1,0
			C299.8,79.3,299.8,81.4,302.1,82.7"/>
	</g>
	<g class="st7">
		<path class="st8" d="M273.1,59.2c3.9-1.7,9.5-1.5,13,0.5c3.9,2.2,3.8,5.9,0,8.2c-3.9,2.2-10.2,2.2-14.1,0c-3.4-2-3.8-5.1-1.1-7.4
			l-7-4.1l-34.1,19.7h-67.5c-0.3,1.2-1.2,2.3-2.8,3.2c-3.9,2.2-10.2,2.2-14.1,0s-3.9-5.9,0-8.2c3.9-2.2,10.2-2.2,14.1,0
			c1.5,0.9,2.4,2,2.7,3.1h66.2l35.4-20.5L273.1,59.2z M157.9,74.3c-0.3-0.5-0.7-1-1.4-1.4c-2.2-1.3-5.9-1.3-8.1,0s-2.3,3.4,0,4.7
			s5.9,1.3,8.1,0c0.7-0.4,1.2-0.9,1.5-1.5h-3.9v-1.8L157.9,74.3 M283.1,66.1c2.2-1.3,2.3-3.4,0-4.7c-2.2-1.3-5.9-1.3-8.1,0
			s-2.3,3.4,0,4.7C277.2,67.4,280.8,67.4,283.1,66.1"/>
	</g>
	<g class="st9">
		<g>
			<path id="SVGID_18_" class="st10" d="M283.4,62.5c-2.2-1.3-5.9-1.3-8.1,0C277.6,61.2,281.2,61.2,283.4,62.5z"/>
		</g>
		<g>
			<g>
				<defs>
					<path id="SVGID_28_" d="M283.4,62.5c-2.2-1.3-5.9-1.3-8.1,0C277.6,61.2,281.2,61.2,283.4,62.5z"/>
				</defs>
				<clipPath id="SVGID_29_">
					<use xlink:href="#SVGID_28_"  style="overflow:visible;"/>
				</clipPath>
				<g class="st17">
					<path class="st8" d="M283.4,62.5c-2.2-1.3-5.9-1.3-8.1,0C277.6,61.2,281.2,61.2,283.4,62.5"/>
				</g>
			</g>
		</g>
	</g>
	<g class="st9">
		<g>
			<path id="SVGID_20_" class="st10" d="M283.4,62.5L283.4,62.5L283.4,62.5z"/>
		</g>
		<g>
			<g>
				<defs>
					<path id="SVGID_30_" d="M283.4,62.5L283.4,62.5L283.4,62.5z"/>
				</defs>
				<clipPath id="SVGID_31_">
					<use xlink:href="#SVGID_30_"  style="overflow:visible;"/>
				</clipPath>
				<g class="st18">
					<polyline class="st8" points="283.4,62.5 283.4,62.5 283.4,62.5 					"/>
				</g>
			</g>
		</g>
	</g>
	<g class="st7">
		<path class="st8" d="M433.1,4.2c-1,0-1.9-0.2-2.7-0.4l-5.8,3.4l-0.3,48.7l-63.2,36.5l-30.7-17.9c3-2.3,2.7-5.5-0.9-7.5
			c-3.9-2.2-10.2-2.3-14.1,0s-3.9,5.9,0,8.2c3.4,2,8.8,2.2,12.7,0.7l33,19.2l66.4-38.3l0.3-48.7l6.5-3.7
			C433.9,4.2,433.5,4.2,433.1,4.2z M326.5,73.3c-2.2,1.3-5.9,1.3-8.1,0s-2.2-3.4,0-4.7c2.2-1.3,5.9-1.3,8.1,0
			C328.7,69.9,328.7,72,326.5,73.3z"/>
	</g>
	<g class="st7">
		<path class="st8" d="M238.4,82.9c3.9-2.2,10.2-2.2,14.1,0c3.9,2.2,3.8,5.9,0,8.2c-3.9,2.2-10.2,2.2-14.1,0c-1.6-0.9-2.5-2-2.8-3.2
			h-23.8l-79.4,45.9l-0.2,39.8l-80,46.2c2.7,2.2,2.3,5.4-1.2,7.4c-3.9,2.2-10.2,2.2-14.1,0s-3.8-5.9,0-8.2c3.6-2.1,9.1-2.2,13-0.5
			l79-45.6l0.2-39.8L210.4,86h25.1C235.9,84.9,236.8,83.8,238.4,82.9z M48,225.4c2.2-1.3,2.3-3.4,0-4.7c-2.2-1.3-5.9-1.3-8.1,0
			s-2.3,3.4,0,4.7C42.1,226.6,45.7,226.6,48,225.4 M249.4,89.3c2.2-1.3,2.3-3.4,0-4.7c-2.2-1.3-5.9-1.3-8.1,0
			c-2.2,1.3-2.3,3.4,0,4.7C243.5,90.6,247.2,90.6,249.4,89.3"/>
	</g>
	<g class="st7">
		<path class="st8" d="M488.9,86.7c3.9-1.5,9.2-1.3,12.7,0.7c3.9,2.2,3.9,5.9,0,8.2s-10.2,2.2-14.1,0c-3.5-2.1-3.8-5.3-0.8-7.6
			l-13.2-7.7l-73.9,42.6h-52.2l-50.3-29.2c-3.9,1.8-9.6,1.7-13.2-0.4c-3.9-2.2-3.9-5.9,0-8.2c3.9-2.2,10.2-2.2,14.1,0
			c3.4,2,3.8,5,1.2,7.2l49.5,28.7h49.5l75.2-43.4L488.9,86.7z M498.5,93.8c2.2-1.3,2.3-3.4,0-4.7s-5.9-1.3-8.1,0s-2.3,3.4,0,4.7
			C492.7,95.1,496.3,95.1,498.5,93.8 M286.8,91.5c2.2,1.3,5.9,1.3,8.1,0s2.3-3.4,0-4.7c-2.2-1.3-5.9-1.3-8.1,0
			C284.6,88.1,284.6,90.2,286.8,91.5"/>
	</g>
	<g class="st7">
		<path class="st8" d="M152.7,91.2c3.9-2.2,10.2-2.2,14.1,0c3.9,2.2,3.9,5.9,0,8.2c-3.6,2.1-9.3,2.2-13.2,0.5l-53,30.6l-0.2,33.4
			l-72.5,41.8c2.7,2.2,2.3,5.4-1.2,7.4c-3.9,2.2-10.2,2.2-14.1,0s-3.8-5.9,0-8.2c3.6-2.1,9.1-2.2,13-0.5L97.2,163l0.2-33.3
			l54.1-31.2C148.9,96.2,149.3,93.2,152.7,91.2z M23.7,211.3c2.2-1.3,2.3-3.4,0-4.7c-2.2-1.3-5.9-1.3-8.1,0s-2.3,3.4,0,4.7
			S21.5,212.6,23.7,211.3 M163.8,97.6c2.2-1.3,2.3-3.4,0-4.7c-2.2-1.3-5.9-1.3-8.1,0c-1.8,1-2.1,2.5-1.1,3.8l2.6-1.5l2.2,1.3
			l-2.7,1.6C158.9,98.9,161.8,98.7,163.8,97.6"/>
	</g>
	<g class="st9">
		<g>
			<path id="SVGID_22_" class="st10" d="M163.8,97.6L163.8,97.6c2.2-1.3,2.2-3.4,0-4.7C166,94.2,166,96.3,163.8,97.6z"/>
		</g>
		<g>
			<g>
				<defs>
					<path id="SVGID_32_" d="M163.8,97.6L163.8,97.6c2.2-1.3,2.2-3.4,0-4.7C166,94.2,166,96.3,163.8,97.6z"/>
				</defs>
				<clipPath id="SVGID_33_">
					<use xlink:href="#SVGID_32_"  style="overflow:visible;"/>
				</clipPath>
				<g class="st19">
					<path class="st8" d="M163.8,97.6L163.8,97.6c2.2-1.3,2.2-3.4,0-4.7C166,94.2,166,96.3,163.8,97.6"/>
				</g>
			</g>
		</g>
	</g>
	<g class="st9">
		<path class="st8" d="M152.7,91.2c3.9-2.2,10.2-2.2,14.1,0C162.9,88.9,156.6,88.9,152.7,91.2"/>
	</g>
	<g class="st7">
		<path class="st8" d="M343.9,140.4h76.6l191.9,111.5l-0.3,48.2l-43.4,25.1c2.7,2.2,2.3,5.4-1.2,7.3c-3.9,2.2-10.2,2.2-14.1,0
			c-3.9-2.2-3.8-5.9,0-8.2c3.6-2.1,9.2-2.2,13-0.5l42.5-24.5l0.3-46.7l-190-110.4h-76.6L278,104.7c-3.9,1.8-9.6,1.7-13.2-0.4
			c-3.9-2.2-3.8-5.9,0-8.2c3.9-2.2,10.2-2.2,14.1,0c3.4,2,3.8,5,1.3,7.2L343.9,140.4z M564.5,330.8c2.2-1.3,2.3-3.4,0-4.7
			s-5.9-1.3-8.1,0c-2.2,1.3-2.3,3.4,0,4.7S562.3,332,564.5,330.8 M267.8,102.5c2.2,1.3,5.9,1.3,8.1,0s2.3-3.4,0-4.7
			c-2.2-1.3-5.9-1.3-8.1,0C265.6,99.1,265.5,101.2,267.8,102.5"/>
	</g>
	<g class="st7">
		<path class="st8" d="M302.3,171.5h144.3l147.6,85.8l-0.2,37.9l-63,36.3l-0.3,45.1l-26.9,15.5c2.5,2.2,2,5.3-1.3,7.2
			c-3.9,2.2-10.2,2.3-14.1,0s-3.9-5.9,0-8.2c3.6-2.1,9.4-2.2,13.3-0.4l25.9-14.9l0.3-45.1l63-36.3L591,258l-145.8-84.7H300.9
			l-70.7-41.1c-3.9,1.8-9.6,1.6-13.1-0.5c-3.9-2.2-3.8-5.9,0-8.2c3.9-2.2,10.2-2.2,14.1,0c3.4,2,3.8,5,1.2,7.3L302.3,171.5z
			 M499.6,397.6c2.2-1.3,2.3-3.4,0-4.7s-5.9-1.3-8.1,0s-2.3,3.4,0,4.7C493.7,398.9,497.3,398.9,499.6,397.6 M220.1,130
			c2.2,1.3,5.9,1.3,8.1,0c2.2-1.3,2.3-3.4,0-4.7c-2.2-1.3-5.9-1.3-8.1,0C217.9,126.6,217.9,128.7,220.1,130"/>
	</g>
	<g class="st7">
		<path class="st8" d="M53.8,118.8c3.9-2.2,10.2-2.2,14.1,0c3.5,2,3.8,5.2,1,7.5l16.9,9.8l-0.1,10.7l-54.4,31.4
			c3,2.3,2.7,5.5-0.9,7.6c-3.9,2.2-10.2,2.2-14.1,0s-3.8-5.9,0-8.2c3.4-2,8.7-2.2,12.6-0.7L82.5,146l0.1-9.2l-16-9.3
			c-3.9,1.6-9.4,1.4-12.9-0.6C49.9,124.8,49.9,121.1,53.8,118.8z M27.5,184.1c2.2-1.3,2.3-3.4,0-4.7c-2.2-1.3-5.9-1.3-8.1,0
			s-2.3,3.4,0,4.7C21.6,185.4,25.2,185.4,27.5,184.1 M64.9,125.3c2.2-1.3,2.3-3.4,0-4.7c-2.2-1.3-5.9-1.3-8.1,0
			c-2.2,1.3-2.3,3.4,0,4.7C59,126.6,62.7,126.6,64.9,125.3"/>
	</g>
	<g class="st9">
		<g>
			<path id="SVGID_24_" class="st10" d="M230.3,132.2L230.3,132.2c-3.9,1.8-9.6,1.6-13.1-0.5C220.7,133.8,226.4,134,230.3,132.2z"/>
		</g>
		<g>
			<g>
				<defs>
					<path id="SVGID_34_" d="M230.3,132.2L230.3,132.2c-3.9,1.8-9.6,1.6-13.1-0.5C220.7,133.8,226.4,134,230.3,132.2z"/>
				</defs>
				<clipPath id="SVGID_35_">
					<use xlink:href="#SVGID_34_"  style="overflow:visible;"/>
				</clipPath>
				<g class="st20">
					<path class="st8" d="M230.3,132.2L230.3,132.2c-3.9,1.8-9.6,1.6-13.1-0.5C220.7,133.8,226.4,134,230.3,132.2"/>
				</g>
			</g>
		</g>
	</g>
	<g class="st7">
		<path class="st8" d="M383.7,146.2c3.9-2.2,10.2-2.2,14.1,0s3.9,5.9,0,8.2c-3.9,2.2-10.2,2.2-14.1,0c-1.5-0.9-2.4-2-2.8-3.2h-83.1
			L220,106l-51.2,29.5v7c1.8,0.2,3.5,0.7,4.9,1.5c3.9,2.2,3.9,5.9,0,8.2c-3.9,2.2-10.2,2.2-14.1,0s-3.9-5.9,0-8.2
			c1.7-1,3.8-1.5,6.1-1.7v-7.7l54.4-31.4l79.2,46h81.8C381.3,148.2,382.2,147.1,383.7,146.2z M394.8,152.6c2.2-1.3,2.3-3.4,0-4.7
			c-2.2-1.3-5.9-1.3-8.1,0s-2.3,3.4,0,4.7C388.9,153.9,392.5,153.9,394.8,152.6 M170.6,150.5c2.2-1.3,2.3-3.4,0-4.7
			c-0.7-0.4-1.6-0.7-2.5-0.8h-2.5v-0.1c-1.1,0.1-2.2,0.4-3.1,0.9c-2.2,1.3-2.3,3.4,0,4.7C164.7,151.8,168.4,151.8,170.6,150.5"/>
	</g>
	<g class="st7">
		<path class="st8" d="M281.6,194.3c-1.5-0.9-3.4-1.4-5.4-1.6l0.1-20.8l-38.1-22.1c2.9-2.3,2.6-5.5-0.9-7.5
			c-3.9-2.2-10.2-2.2-14.1,0c-3.9,2.2-3.9,5.9,0,8.2c3.5,2,8.9,2.2,12.8,0.6l37.2,21.6l-0.1,20c-2,0.2-3.9,0.7-5.5,1.6
			c-3.9,2.2-3.9,5.9,0,8.2c3.9,2.2,10.2,2.2,14.1,0C285.4,200.2,285.5,196.6,281.6,194.3z M234.3,148.7c-2.2,1.3-5.9,1.3-8.1,0
			c-2.2-1.3-2.2-3.4,0-4.7s5.9-1.3,8.1,0C236.5,145.3,236.5,147.4,234.3,148.7 M278.6,200.7c-2.2,1.3-5.9,1.3-8.1,0s-2.2-3.4,0-4.7
			s5.9-1.3,8.1,0C280.8,197.3,280.8,199.5,278.6,200.7"/>
	</g>
	<g class="st7">
		<path class="st8" d="M168.5,58c3.9-2.2,10.2-2.2,14.1,0s3.8,5.9,0,8.2c-3.9,2.2-10.2,2.2-14.1,0c-1.6-0.9-2.5-2.1-2.8-3.3H42.4
			L18.7,49.1c-3.9,1.6-9.3,1.3-12.7-0.7c-3.9-2.2-3.8-5.9,0-8.2c3.9-2.2,10.2-2.2,14.1,0c3.5,2.1,3.8,5.3,0.9,7.5L43.7,61h122.1
			C166.1,59.9,167,58.8,168.5,58z M179.6,64.4c2.2-1.3,2.3-3.4,0-4.7c-2.2-1.3-5.9-1.3-8.1,0c-2.2,1.3-2.3,3.4,0,4.7
			C173.7,65.7,177.3,65.7,179.6,64.4 M9,46.7c2.2,1.3,5.9,1.3,8.1,0s2.3-3.4,0-4.7c-2.2-1.3-5.9-1.3-8.1,0S6.8,45.4,9,46.7"/>
	</g>
	<g class="st7">
		<path class="st8" d="M534.3,240.3c3.9-2.2,10.2-2.3,14.1,0c3.5,2,3.8,5.1,1.1,7.4l20.5,11.9l-0.1,26.2l-91.7,53
			c2.4,2.2,1.9,5.2-1.4,7.1c-3.9,2.2-10.2,2.2-14.1,0s-3.9-5.9,0-8.2c3.7-2.1,9.5-2.2,13.4-0.4l90.7-52.3l0.1-24.7L547.2,249
			c-3.9,1.7-9.4,1.5-13-0.5C530.3,246.2,530.4,242.5,534.3,240.3z M545.3,246.7c2.2-1.3,2.3-3.4,0-4.7c-2.2-1.3-5.9-1.3-8.1,0
			c-2.2,1.3-2.3,3.4,0,4.7C539.4,248,543.1,248,545.3,246.7 M473.6,344.2c2.2-1.3,2.3-3.4,0-4.7s-5.9-1.3-8.1,0s-2.3,3.4,0,4.7
			C467.7,345.5,471.4,345.5,473.6,344.2"/>
	</g>
	<g class="st7">
		<path class="st8" d="M249.4,6.3c3.9-2.2,10.2-2.2,14.1,0s3.9,5.9,0,8.2c-3.6,2.1-9.2,2.2-13.1,0.5l-53.2,30.7h-40
			c-0.2,1.3-1.2,2.5-2.9,3.5c-3.9,2.2-10.2,2.2-14.1,0s-3.9-5.9,0-8.2c3.9-2.2,10.2-2.3,14.1,0c1.4,0.8,2.2,1.8,2.6,2.8h38.9
			l52.4-30.2C245.5,11.4,246,8.3,249.4,6.3z M260.5,12.8c2.2-1.3,2.3-3.4,0-4.7s-5.9-1.3-8.1,0c-2.2,1.3-2.3,3.4,0,4.7
			C254.6,14.1,258.2,14.1,260.5,12.8 M151.3,47.5c2.2-1.3,2.3-3.4,0-4.7c-2.2-1.3-5.9-1.3-8.1,0c-2.2,1.3-2.3,3.4,0,4.7
			C145.4,48.8,149,48.8,151.3,47.5"/>
	</g>
	<g class="st7">
		<path class="st8" d="M435.9,181.5c3.9-2.2,10.2-2.2,14.1,0s3.9,5.9,0,8.2c-3.9,2.2-10.2,2.2-14.1,0c-1.7-1-2.6-2.2-2.8-3.5h-27.2
			l-29.6,17.1c3.3,2.3,3,5.6-0.6,7.8c-3.9,2.2-10.2,2.3-14.1,0c-3.9-2.2-3.9-5.9,0-8.2c3.3-1.9,8.4-2.2,12.3-0.8l30.7-17.7h28.7
			C433.6,183.3,434.5,182.3,435.9,181.5z M372.5,209.3c2.2-1.3,2.3-3.4,0-4.7c-2.2-1.3-5.9-1.3-8.1,0s-2.3,3.4,0,4.7
			C366.6,210.6,370.3,210.6,372.5,209.3 M446.9,187.9c2.2-1.3,2.3-3.4,0-4.7c-2.2-1.3-5.9-1.3-8.1,0s-2.3,3.4,0,4.7
			C441,189.2,444.7,189.2,446.9,187.9"/>
	</g>
	<g class="st7">
		<path class="st8" d="M527.7,287.8c3.9-2.2,10.2-2.3,14.1,0s3.8,5.9,0,8.2c-3.5,2-9,2.2-12.9,0.6l-36.3,21h-34.4L389.7,357
			c2.6,2.2,2.1,5.3-1.3,7.3c-3.9,2.2-10.2,2.2-14.1,0s-3.9-5.9,0-8.2c3.6-2.1,9.3-2.2,13.2-0.5l69.2-40h34.4l35.4-20.4
			C523.8,293,524.2,289.8,527.7,287.8z M385.5,362.5c2.2-1.3,2.3-3.4,0-4.7s-5.9-1.3-8.1,0s-2.3,3.4,0,4.7
			C379.6,363.8,383.2,363.8,385.5,362.5 M538.7,294.2c2.2-1.3,2.3-3.4,0-4.7s-5.9-1.3-8.1,0c-2.2,1.3-2.3,3.4,0,4.7
			C532.8,295.5,536.5,295.5,538.7,294.2"/>
	</g>
	<g class="st7">
		<path class="st8" d="M100,218.8l115.5-66.7l33.3,19.3l-0.1,17.9l-38.2,22.1c2.2,2.2,1.7,5.1-1.6,7c-3.9,2.2-10.2,2.2-14.1,0
			c-3.9-2.2-3.8-5.9,0-8.2c3.7-2.2,9.7-2.2,13.6-0.3l37.1-21.4l0.1-16.3l-30.1-17.5L102.3,220c2.9,2.3,2.6,5.5-1,7.5
			c-3.9,2.2-10.2,2.2-14.1,0s-3.8-5.9,0-8.2C90.8,217.4,96.2,217.2,100,218.8z M98.3,225.8c2.2-1.3,2.3-3.4,0-4.7
			c-2.2-1.3-5.9-1.3-8.1,0s-2.3,3.4,0,4.7C92.5,227.1,96.1,227.1,98.3,225.8 M205.9,216.6c2.2-1.3,2.3-3.4,0-4.7
			c-2.2-1.3-5.9-1.3-8.1,0c-2.2,1.3-2.3,3.4,0,4.7C200,217.9,203.6,217.9,205.9,216.6"/>
	</g>
	<g class="st7">
		<path class="st8" d="M267,241.1c3.9-2.2,10.2-2.2,14.1,0s3.9,5.9,0,8.2s-10.2,2.2-14.1,0c-1.6-0.9-2.5-2.1-2.8-3.2h-60L149,214
			l-22.8,13.2c2.9,2.3,2.6,5.5-0.9,7.6c-3.9,2.2-10.2,2.2-14.1,0s-3.8-5.9,0-8.2c3.5-2,8.8-2.2,12.7-0.7l25.1-14.5l56.6,32.9h58.7
			C264.6,243.1,265.5,242,267,241.1z M278.1,247.5c2.2-1.3,2.3-3.4,0-4.7c-2.2-1.3-5.9-1.3-8.1,0s-2.3,3.4,0,4.7
			S275.8,248.8,278.1,247.5 M122.2,232.9c2.2-1.3,2.3-3.4,0-4.7c-2.2-1.3-5.9-1.3-8.1,0s-2.3,3.4,0,4.7
			C116.3,234.2,120,234.2,122.2,232.9"/>
	</g>
</g>
</svg>
