<?xml version="1.0" encoding="utf-8"?>
<!-- Generator: Adobe Illustrator 22.0.0, SVG Export Plug-In . SVG Version: 6.00 Build 0)  -->
<svg version="1.1" id="图层_1" xmlns="http://www.w3.org/2000/svg" xmlns:xlink="http://www.w3.org/1999/xlink" x="0px" y="0px"
	 viewBox="0 0 1920 1145" style="enable-background:new 0 0 1920 1145;" xml:space="preserve">
<style type="text/css">
	.st0{clip-path:url(#SVGID_2_);}
	.st1{fill:url(#SVGID_3_);}
	.st2{opacity:0.4;fill:#36B77D;enable-background:new    ;}
	.st3{fill:url(#SVGID_4_);}
	.st4{opacity:0.5;}
	.st5{opacity:0.2;fill:#DEDEDE;enable-background:new    ;}
	.st6{fill:url(#SVGID_5_);}
	.st7{opacity:0.22;}
	.st8{fill:#FFFFFF;}
	.st9{opacity:0.22;enable-background:new    ;}
	.st10{opacity:0.22;fill:#FFFFFF;enable-background:new    ;}
	.st11{clip-path:url(#SVGID_9_);enable-background:new    ;}
	.st12{clip-path:url(#SVGID_13_);enable-background:new    ;}
	.st13{clip-path:url(#SVGID_17_);enable-background:new    ;}
	.st14{clip-path:url(#SVGID_21_);enable-background:new    ;}
	.st15{clip-path:url(#SVGID_25_);enable-background:new    ;}
	.st16{clip-path:url(#SVGID_27_);enable-background:new    ;}
	.st17{clip-path:url(#SVGID_29_);enable-background:new    ;}
	.st18{clip-path:url(#SVGID_31_);enable-background:new    ;}
	.st19{clip-path:url(#SVGID_33_);enable-background:new    ;}
	.st20{clip-path:url(#SVGID_35_);enable-background:new    ;}
</style>
<g id="图层_1_1_">
	<g>
		<g>
			<defs>
				<rect id="SVGID_1_" width="1920" height="1145"/>
			</defs>
			<clipPath id="SVGID_2_">
				<use xlink:href="#SVGID_1_"  style="overflow:visible;"/>
			</clipPath>
			<g class="st0">
				
					<linearGradient id="SVGID_3_" gradientUnits="userSpaceOnUse" x1="931.0394" y1="1133.4015" x2="930.9394" y2="1131.5015" gradientTransform="matrix(1920 0 0 -882.94 -1786589 1000735.25)">
					<stop  offset="0" style="stop-color:#3ECF8E"/>
					<stop  offset="1" style="stop-color:#4DD092"/>
				</linearGradient>
				<path class="st1" d="M0-0.8h1920v837c0,0-466.8,46-946.8,46S0,836.1,0,836.1V-0.8z"/>
				<path class="st2" d="M924,323.6l586.6-492.3c133.6-112.1,332.8-94.7,445,38.9s94.7,332.8-38.9,445l0,0L1330,807.4
					c-132.8,113.1-332.1,97.1-445.2-35.7s-97.1-332.1,35.7-445.2C921.7,325.5,922.8,324.6,924,323.6L924,323.6z"/>
				
					<linearGradient id="SVGID_4_" gradientUnits="userSpaceOnUse" x1="927.6064" y1="1135.7496" x2="927.6064" y2="1134.7491" gradientTransform="matrix(212.0787 -56.8263 -56.8263 -212.0787 -130789.0078 294191.0938)">
					<stop  offset="0" style="stop-color:#649FE5"/>
					<stop  offset="1" style="stop-color:#4F5FD8;stop-opacity:0.8"/>
				</linearGradient>
				<circle class="st3" cx="1458.4" cy="842.8" r="109.8"/>
				<g class="st4">
					<path class="st5" d="M241.6,768.4h289.2c3.5,0,6.3,2.8,6.4,6.3c0,3.5-2.9,6.4-6.4,6.4l0,0H241.6c-3.5,0-6.4-2.9-6.4-6.4l0,0
						c0-3.5,2.9-6.4,6.4-6.4l0,0V768.4z M398.6,816.7h199.3c3.5,0,6.3,2.8,6.4,6.3c0,3.5-2.9,6.4-6.4,6.4l0,0H398.6
						c-3.5,0-6.4-2.9-6.4-6.4l0,0C392.3,819.5,395.1,816.7,398.6,816.7z M255,816.7h124.1c3.5,0,6.3,2.8,6.4,6.3
						c0,3.5-2.9,6.4-6.4,6.4l0,0H255c-3.5,0-6.4-2.9-6.4-6.4l0,0C248.7,819.5,251.5,816.7,255,816.7z M266.4,744.2H359
						c3.5,0,6.4,2.9,6.4,6.4l0,0c0,3.5-2.9,6.4-6.4,6.4l0,0h-92.6c-3.5,0-6.4-2.9-6.4-6.4l0,0C260,747.1,262.9,744.2,266.4,744.2
						L266.4,744.2z M333.5,792.5h92.6c3.5,0,6.4,2.9,6.4,6.4l0,0c0,3.5-2.9,6.4-6.4,6.4l0,0h-92.6c-3.5,0-6.4-2.9-6.4-6.4l0,0
						C327.1,795.4,330,792.5,333.5,792.5L333.5,792.5z M221.4,792.5H314c3.5,0,6.4,2.9,6.4,6.4l0,0c0,3.5-2.9,6.4-6.4,6.4l0,0h-92.6
						c-3.5-0.1-6.3-2.9-6.3-6.4C215.1,795.4,217.9,792.6,221.4,792.5z M378.5,744.2H471c3.5,0.1,6.3,2.9,6.3,6.4
						c0,3.5-2.8,6.3-6.3,6.4h-92.6c-3.5,0-6.4-2.9-6.4-6.4l0,0c0-3.5,2.9-6.4,6.4-6.4l0,0H378.5z M445.6,792.5h92.6
						c3.5,0.1,6.3,2.9,6.3,6.4c0,3.5-2.8,6.3-6.3,6.4h-92.6c-3.5,0-6.4-2.9-6.4-6.4l0,0C439.2,795.4,442.1,792.5,445.6,792.5
						L445.6,792.5z M490.5,744.2h92.6c3.5,0,6.4,2.9,6.4,6.4l0,0c0,3.5-2.9,6.4-6.4,6.4l0,0h-92.6c-3.5,0-6.4-2.9-6.4-6.4l0,0
						C484.1,747.1,487,744.2,490.5,744.2L490.5,744.2L490.5,744.2z M551,768.4h136c3.5,0,6.3,2.8,6.4,6.3c0,3.5-2.9,6.4-6.4,6.4l0,0
						H551c-3.5,0-6.4-2.9-6.4-6.4l0,0c0-3.5,2.9-6.4,6.4-6.4l0,0V768.4z M557.6,792.5h92.6c3.5,0,6.4,2.9,6.4,6.4l0,0
						c0,3.5-2.9,6.4-6.4,6.4l0,0h-92.6c-3.5,0-6.4-2.9-6.4-6.4l0,0C551.2,795.4,554.1,792.5,557.6,792.5L557.6,792.5z"/>
				</g>
				<g class="st4">
					<path class="st5" d="M246.7,669.3h289.2c3.5,0,6.4,2.9,6.4,6.4l0,0c0,3.5-2.9,6.4-6.4,6.4l0,0H246.7c-3.5,0-6.4-2.9-6.4-6.4
						l0,0C240.3,672.2,243.2,669.3,246.7,669.3L246.7,669.3z M403.7,717.6H603c3.5,0,6.4,2.9,6.4,6.4l0,0c0,3.5-2.9,6.4-6.4,6.4l0,0
						H403.7c-3.5,0-6.4-2.9-6.4-6.4l0,0C397.3,720.5,400.2,717.6,403.7,717.6L403.7,717.6z M260.1,717.6h124.1
						c3.5,0,6.4,2.9,6.4,6.4l0,0c0,3.5-2.9,6.4-6.4,6.4l0,0H260.1c-3.5,0-6.4-2.9-6.4-6.4l0,0C253.7,720.5,256.6,717.6,260.1,717.6
						L260.1,717.6z M271.5,645.2h92.6c3.5,0,6.3,2.8,6.4,6.3c0,3.5-2.9,6.4-6.4,6.4l0,0h-92.6c-3.5,0-6.4-2.9-6.4-6.4l0,0
						C265.2,648,268,645.2,271.5,645.2z M338.6,693.5h92.6c3.5,0,6.4,2.9,6.4,6.4l0,0c-0.1,3.5-2.9,6.3-6.4,6.3h-92.6
						c-3.5,0-6.3-2.8-6.4-6.3C332.2,696.4,335.1,693.5,338.6,693.5L338.6,693.5z M226.6,693.5h92.6c3.5,0.1,6.3,2.9,6.3,6.4
						c-0.1,3.5-2.9,6.3-6.4,6.3h-92.6c-3.5-0.1-6.2-2.8-6.3-6.3C220.2,696.4,223.1,693.5,226.6,693.5L226.6,693.5L226.6,693.5z
						 M383.6,645.2h92.6c3.5,0.1,6.2,2.8,6.3,6.3c0,3.5-2.8,6.3-6.3,6.4h-92.6c-3.5,0-6.4-2.9-6.4-6.4l0,0
						C377.3,648,380.1,645.2,383.6,645.2z M450.7,693.5h92.6c3.5,0.1,6.3,2.9,6.3,6.4c-0.1,3.5-2.8,6.2-6.3,6.3h-92.6
						c-3.5,0-6.3-2.8-6.4-6.3C444.3,696.4,447.2,693.5,450.7,693.5L450.7,693.5L450.7,693.5z M495.6,645.2h92.6
						c3.5,0,6.3,2.8,6.4,6.3c0,3.5-2.9,6.4-6.4,6.4l0,0h-92.6c-3.5,0-6.4-2.9-6.4-6.4l0,0C489.3,648,492.1,645.2,495.6,645.2z
						 M556,669.3h136.2c3.5,0,6.4,2.9,6.4,6.4l0,0c0,3.5-2.9,6.4-6.4,6.4l0,0H556c-3.5,0-6.4-2.9-6.4-6.4l0,0
						C549.6,672.2,552.5,669.3,556,669.3L556,669.3z M562.7,693.5h92.6c3.5,0,6.4,2.9,6.4,6.4l0,0c-0.1,3.5-2.9,6.3-6.4,6.3h-92.6
						c-3.5,0-6.3-2.8-6.4-6.3C556.3,696.4,559.2,693.5,562.7,693.5L562.7,693.5z"/>
				</g>
				<g class="st4">
					<path class="st5" d="M241.6,871.5h289.2c3.5,0,6.3,2.8,6.4,6.3c0,3.5-2.9,6.4-6.4,6.4l0,0H241.6c-3.5,0-6.4-2.9-6.4-6.4l0,0
						C235.3,874.3,238.1,871.5,241.6,871.5z M398.6,919.8h199.3c3.5,0,6.4,2.9,6.4,6.4l0,0c-0.1,3.5-2.9,6.3-6.4,6.3H398.6
						c-3.5,0-6.4-2.9-6.4-6.4l0,0C392.3,922.6,395.1,919.8,398.6,919.8z M255,919.8h124.1c3.5,0,6.4,2.9,6.4,6.4l0,0
						c-0.1,3.5-2.9,6.3-6.4,6.3H255c-3.5,0-6.4-2.9-6.4-6.4l0,0C248.7,922.6,251.5,919.8,255,919.8z M266.4,847.3H359
						c3.5,0,6.4,2.9,6.4,6.4l0,0c0,3.5-2.9,6.4-6.4,6.4l0,0h-92.6c-3.5,0-6.4-2.9-6.4-6.4l0,0C260,850.2,262.9,847.3,266.4,847.3
						L266.4,847.3z M333.5,895.6h92.6c3.5,0,6.4,2.9,6.4,6.4l0,0c0,3.5-2.9,6.4-6.4,6.4l0,0h-92.6c-3.5,0-6.4-2.9-6.4-6.4l0,0
						C327.1,898.5,330,895.6,333.5,895.6L333.5,895.6z M221.4,895.6H314c3.5,0,6.4,2.9,6.4,6.4l0,0c0,3.5-2.9,6.4-6.4,6.4l0,0h-92.6
						c-3.5-0.1-6.3-2.9-6.3-6.4C215.1,898.5,217.9,895.7,221.4,895.6z M378.5,847.3H471c3.5,0.1,6.3,2.9,6.3,6.4
						c0,3.5-2.8,6.3-6.3,6.4h-92.6c-3.5,0-6.4-2.9-6.4-6.4l0,0c0-3.5,2.9-6.4,6.4-6.4l0,0H378.5z M445.6,895.6h92.6
						c3.5,0.1,6.3,2.9,6.3,6.4c0,3.5-2.8,6.3-6.3,6.4h-92.6c-3.5,0-6.4-2.9-6.4-6.4l0,0C439.2,898.5,442.1,895.6,445.6,895.6
						L445.6,895.6z M490.5,847.3h92.6c3.5,0,6.4,2.9,6.4,6.4l0,0c0,3.5-2.9,6.4-6.4,6.4l0,0h-92.6c-3.5,0-6.4-2.9-6.4-6.4l0,0
						C484.1,850.2,487,847.3,490.5,847.3L490.5,847.3L490.5,847.3z M551,871.5h136c3.5,0,6.3,2.8,6.4,6.3c0,3.5-2.9,6.4-6.4,6.4l0,0
						H551c-3.5,0-6.4-2.9-6.4-6.4l0,0C544.7,874.3,547.5,871.5,551,871.5z M557.6,895.6h92.6c3.5,0,6.4,2.9,6.4,6.4l0,0
						c0,3.5-2.9,6.4-6.4,6.4l0,0h-92.6c-3.5,0-6.4-2.9-6.4-6.4l0,0C551.2,898.5,554.1,895.6,557.6,895.6L557.6,895.6z"/>
				</g>
				
					<linearGradient id="SVGID_5_" gradientUnits="userSpaceOnUse" x1="929.7977" y1="1130.7166" x2="929.7977" y2="1129.7167" gradientTransform="matrix(90.3382 337.1468 336.1808 -90.0794 -463409 -210701.125)">
					<stop  offset="0" style="stop-color:#EF7171"/>
					<stop  offset="1" style="stop-color:#EF7171;stop-opacity:0.8"/>
				</linearGradient>
				<path class="st6" d="M491,801.6c92.8-24.9,188.3,30.4,213.2,123.5s-30.1,188.7-122.9,213.6c-92.8,24.9-188.3-30.4-213.2-123.5
					S398.1,826.5,491,801.6z"/>
			</g>
		</g>
	</g>
</g>
<g id="图层_3">
	<g class="st7">
		<path class="st8" d="M1459,135.3c4.8-2.8,12.5-2.8,17.3,0s4.7,7.2-0.1,10c-4.2,2.4-10.6,2.7-15.3,0.9L1359.2,205l-51.4,0
			l-135.3,78.1c3.8,2.8,3.5,6.8-1,9.4c-4.8,2.8-12.5,2.8-17.3,0s-4.7-7.2,0.1-10c4.2-2.4,10.6-2.7,15.3-0.9l136.5-78.8l51.4,0
			l100.4-58C1454.2,142,1454.5,137.9,1459,135.3z M1472.5,143.2c2.8-1.6,2.8-4.2,0-5.8c-2.7-1.6-7.2-1.6-9.9,0
			c-2.8,1.6-2.8,4.2,0,5.8C1465.3,144.8,1469.8,144.8,1472.5,143.2 M1168,290.3c2.8-1.6,2.8-4.2,0-5.8c-2.7-1.6-7.2-1.6-9.9,0
			s-2.8,4.2,0,5.8C1160.8,291.9,1165.2,291.9,1168,290.3"/>
	</g>
	<g class="st7">
		<path class="st8" d="M1743,57.5c4.2-1.7,10-1.5,13.7,0.6c4.1,2.4,4.1,6.3,0,8.7s-10.9,2.4-15,0c-3.7-2.2-4.1-5.5-1.1-8l-37.9-22
			c-4.2,1.7-10,1.5-13.7-0.6c-4.1-2.4-4.1-6.3,0-8.7s10.9-2.4,15,0c3.7,2.2,4.1,5.5,1,7.9L1743,57.5z M1692.2,34.4
			c2.4,1.4,6.3,1.4,8.6,0c2.4-1.4,2.4-3.6,0-5s-6.3-1.4-8.6,0C1689.8,30.8,1689.8,33,1692.2,34.4 M1753.5,65c2.4-1.4,2.4-3.6,0-5
			c-2.4-1.4-6.3-1.4-8.6,0c-2.4,1.4-2.4,3.6,0,5C1747.2,66.4,1751.1,66.4,1753.5,65"/>
	</g>
	<g class="st9">
		<g>
			<path id="SVGID_6_" class="st10" d="M1744.9,65c2.4,1.4,6.2,1.4,8.6,0C1751.1,66.4,1747.2,66.4,1744.9,65z"/>
		</g>
		<g>
			<defs>
				<path id="SVGID_7_" d="M1744.9,65c2.4,1.4,6.2,1.4,8.6,0C1751.1,66.4,1747.2,66.4,1744.9,65z"/>
			</defs>
			<clipPath id="SVGID_9_">
				<use xlink:href="#SVGID_7_"  style="overflow:visible;"/>
			</clipPath>
			<g class="st11">
				<path class="st8" d="M1744.9,65c2.4,1.4,6.2,1.4,8.6,0C1751.1,66.4,1747.2,66.4,1744.9,65"/>
			</g>
		</g>
	</g>
	<g class="st9">
		<g>
			<path id="SVGID_8_" class="st10" d="M1741.6,66.9c-3.7-2.2-4-5.5-1-7.9C1737.6,61.3,1737.9,64.7,1741.6,66.9z"/>
		</g>
		<g>
			<defs>
				<path id="SVGID_11_" d="M1741.6,66.9c-3.7-2.2-4-5.5-1-7.9C1737.6,61.3,1737.9,64.7,1741.6,66.9z"/>
			</defs>
			<clipPath id="SVGID_13_">
				<use xlink:href="#SVGID_11_"  style="overflow:visible;"/>
			</clipPath>
			<g class="st12">
				<path class="st8" d="M1741.6,66.9c-3.7-2.2-4-5.5-1-7.9C1737.6,61.3,1737.9,64.7,1741.6,66.9"/>
			</g>
		</g>
	</g>
	<g class="st7">
		<path class="st8" d="M1700.8,29.4L1700.8,29.4L1700.8,29.4z"/>
	</g>
	<g class="st9">
		<path class="st8" d="M1689,27.5C1689,27.5,1689,27.5,1689,27.5C1689,27.5,1689,27.5,1689,27.5"/>
	</g>
	<g class="st7">
		<path class="st8" d="M1657.1,0.5c-0.8,0.4-1.8,0.6-2.9,0.6c-0.3,0-0.7,0-1-0.1l-0.2,34.6l-114.7,66.2c-4.8-2-11.5-1.8-15.9,0.7
			c-4.8,2.8-4.8,7.2-0.1,10c4.7,2.8,12.5,2.8,17.3,0c4.3-2.5,4.7-6.3,1.4-9.1l115.8-66.9L1657.1,0.5z M1536,110.5
			c-2.8,1.6-7.2,1.6-9.9,0c-2.7-1.6-2.7-4.2,0-5.8c2.8-1.6,7.2-1.6,9.9,0C1538.8,106.3,1538.8,108.9,1536,110.5z"/>
	</g>
	<g class="st7">
		<path class="st8" d="M1695.7,54c4.2-2.4,10.9-2.4,15,0s4.1,6.3,0,8.7c-3.7,2.1-9.5,2.4-13.6,0.7L1625,105l-0.3,49.5
			c2.4,0.1,4.8,0.7,6.6,1.8c4.1,2.4,4.1,6.3,0,8.7c-4.2,2.4-10.9,2.4-15,0c-4.1-2.4-4.1-6.3,0-8.7c1.4-0.8,3.2-1.4,5-1.6l0.3-50.4
			l73.1-42.2C1691.6,59.6,1691.9,56.2,1695.7,54z M1707.5,60.9c2.4-1.4,2.4-3.6,0-5c-2.4-1.4-6.3-1.4-8.6,0s-2.4,3.6,0,5
			C1701.2,62.2,1705.1,62.2,1707.5,60.9 M1628.1,163.1c2.4-1.4,2.4-3.6,0-5c-2.4-1.4-6.3-1.4-8.6,0c-2.4,1.4-2.4,3.6,0,5
			C1621.8,164.5,1625.7,164.5,1628.1,163.1"/>
	</g>
	<g class="st9">
		<g>
			<polygon id="SVGID_10_" class="st10" points="1707.5,60.9 1707.5,60.9 1707.5,60.9 			"/>
		</g>
		<g>
			<defs>
				<polygon id="SVGID_15_" points="1707.5,60.9 1707.5,60.9 1707.5,60.9 				"/>
			</defs>
			<clipPath id="SVGID_17_">
				<use xlink:href="#SVGID_15_"  style="overflow:visible;"/>
			</clipPath>
			<g class="st13">
				<polyline class="st8" points="1707.5,60.9 1707.5,60.9 1707.5,60.9 				"/>
			</g>
		</g>
	</g>
	<g class="st9">
		<polyline class="st8" points="1707.5,55.8 1707.5,55.8 1707.5,55.8 		"/>
	</g>
	<g class="st7">
		<path class="st8" d="M1806.6,62.2c-4.1-2.4-10.9-2.4-15,0c-3.7,2.2-4.1,5.5-1.2,7.9L1723,109l-0.1,24.2c-2.2,0.2-4.4,0.7-6.1,1.7
			c-4.2,2.4-4.2,6.3,0,8.7c4.1,2.4,10.9,2.4,15,0s4.2-6.3,0-8.7c-1.6-0.9-3.5-1.5-5.6-1.7l0.1-23.4l66.3-38.3
			c4.1,1.8,10,1.6,13.8-0.6C1810.7,68.5,1810.7,64.6,1806.6,62.2z M1728.7,136.8c2.4,1.4,2.4,3.6,0,5s-6.3,1.4-8.6,0
			c-2.4-1.4-2.4-3.6,0-5C1722.4,135.4,1726.3,135.4,1728.7,136.8 M1803.4,69.1c-2.4,1.4-6.3,1.4-8.6,0c-2.4-1.4-2.4-3.6,0-5
			c2.4-1.4,6.3-1.4,8.6,0C1805.8,65.4,1805.8,67.7,1803.4,69.1"/>
	</g>
	<g class="st7">
		<path class="st8" d="M1832,73.4c4.2-2.4,10.9-2.4,15,0c4.1,2.4,4.1,6.3,0,8.7c-3.7,2.2-9.5,2.4-13.7,0.7l-79.6,46l-0.3,55.5
			l-17.9,10.3c3.1,2.4,2.8,5.9-1,8.1c-4.2,2.4-10.9,2.4-15,0c-4.1-2.4-4.1-6.3,0-8.7c3.7-2.1,9.4-2.4,13.5-0.7l16.9-9.8l0.3-55.5
			l80.6-46.5C1827.9,79,1828.2,75.6,1832,73.4z M1731.4,200.7c2.4-1.4,2.4-3.6,0-5c-2.4-1.4-6.3-1.4-8.6,0s-2.4,3.6,0,5
			C1725.1,202.1,1729,202.1,1731.4,200.7 M1843.8,80.3c2.4-1.4,2.4-3.6,0-5c-2.4-1.4-6.3-1.4-8.6,0c-2.4,1.4-2.4,3.6,0,5
			C1837.5,81.7,1841.4,81.7,1843.8,80.3"/>
	</g>
	<g class="st7">
		<path class="st8" d="M1697.1,75.2c4.2-2.4,10.9-2.4,15,0s4.1,6.3,0,8.7c-3.6,2.1-9.2,2.4-13.3,0.8l-36.3,21l-0.2,39.6l27.6,16.1
			l-0.3,61.9l27,15.7c4.2-1.9,10.3-1.8,14.2,0.4c4.1,2.4,4.1,6.3,0,8.7s-10.9,2.4-15,0c-3.6-2.1-4-5.3-1.4-7.7l-28.1-16.3l0.3-61.9
			l-27.6-16.1l0.2-41.3l37.2-21.5C1693,81,1693.2,77.5,1697.1,75.2z M1708.9,82.1c2.4-1.4,2.4-3.6,0-5c-2.4-1.4-6.3-1.4-8.6,0
			c-2.4,1.4-2.4,3.6,0,5C1702.6,83.5,1706.5,83.5,1708.9,82.1 M1727.5,241.3c-2.4-1.4-6.3-1.4-8.6,0s-2.4,3.6,0,5
			c2.4,1.4,6.3,1.4,8.6,0C1729.9,244.9,1729.9,242.7,1727.5,241.3"/>
	</g>
	<g class="st9">
		<path class="st8" d="M1708.9,77.1L1708.9,77.1c-2.4-1.4-6.2-1.4-8.6,0C1702.7,75.7,1706.6,75.7,1708.9,77.1"/>
	</g>
	<g class="st7">
		<path class="st8" d="M1371,24.1c4.8-2.8,12.5-2.8,17.3,0s4.7,7.2-0.1,10c-4.2,2.4-10.8,2.7-15.6,0.8l-29.8,17.2l-0.2,33.4
			c2.7,0.1,5.4,0.8,7.5,2c4.7,2.8,4.7,7.2-0.1,10c-4.8,2.8-12.5,2.8-17.3,0c-4.7-2.8-4.7-7.2,0.1-10c1.7-1,3.7-1.6,5.9-1.9l0.2-34.5
			l30.9-17.9C1366.3,30.6,1366.7,26.6,1371,24.1z M1384.6,32c2.8-1.6,2.8-4.2,0-5.8c-2.7-1.6-7.2-1.6-9.9,0c-2.8,1.6-2.8,4.2,0,5.8
			C1377.4,33.6,1381.8,33.6,1384.6,32 M1346.4,95.5c2.8-1.6,2.8-4.2,0-5.8c-2.7-1.6-7.2-1.6-9.9,0c-2.7,1.6-2.8,4.2,0,5.8
			C1339.2,97.1,1343.7,97.1,1346.4,95.5"/>
	</g>
	<g class="st7">
		<path class="st8" d="M1854.1,86.9c4.2-2.4,10.9-2.4,15,0c4.1,2.4,4.1,6.3,0,8.7c-3.8,2.2-9.9,2.4-14,0.5l-77.4,44.7l-0.4,63.2
			l-18.4,10.6c3.7,2.4,3.6,6.1-0.4,8.5c-4.2,2.4-10.9,2.4-15,0c-4.1-2.4-4.1-6.3,0-8.7c3.5-2,8.7-2.3,12.8-1l17.7-10.2l0.4-63.2
			l78.5-45.3C1849.9,92.3,1850.4,89,1854.1,86.9z M1865.9,93.7c2.4-1.4,2.4-3.6,0-5c-2.4-1.4-6.3-1.4-8.6,0c-2.4,1.4-2.4,3.6,0,5
			C1859.6,95.1,1863.5,95.1,1865.9,93.7 M1755.2,221.2c2.4-1.4,2.4-3.6,0-5c-2.4-1.4-6.3-1.4-8.6,0c-2.4,1.4-2.4,3.6,0,5
			C1748.9,222.5,1752.8,222.5,1755.2,221.2"/>
	</g>
	<g class="st7">
		<path class="st8" d="M1578.4,2.4c-0.9,0-1.7-0.1-2.5-0.2l-0.1,23.2l-60.9,35.2l-0.1,24.2l-21.6,12.5l-0.2,44.1l-41.9,24.2
			c-4.8-2-11.4-1.7-15.7,0.8c-4.8,2.8-4.8,7.2-0.1,10c4.7,2.8,12.5,2.8,17.3,0c4.3-2.5,4.7-6.4,1.2-9.2l43-24.8l0.2-44.1l21.6-12.5
			l0.1-24.2l60.9-35.2l0.1-24C1579.3,2.4,1578.9,2.4,1578.4,2.4z M1448.8,174.3c-2.8,1.6-7.2,1.6-9.9,0c-2.7-1.6-2.7-4.2,0-5.8
			c2.7-1.6,7.2-1.6,9.9,0C1451.6,170.1,1451.5,172.7,1448.8,174.3z"/>
	</g>
	<g class="st7">
		<path class="st8" d="M1917.9,393.1l-9.8-5.7l-65.2,0l-72-41.9l0.1-12.3c2.2-0.2,4.3-0.8,6-1.7c4.2-2.4,4.2-6.3,0-8.7
			c-4.1-2.4-10.9-2.4-15,0s-4.2,6.3-0.1,8.7c1.6,0.9,3.6,1.5,5.7,1.7l-0.1,13.1l74,43h65.2l11.6,6.7
			C1918.2,395.1,1918.1,394.1,1917.9,393.1z M1765.2,329.7c-2.4-1.4-2.4-3.6,0-5c2.4-1.4,6.3-1.4,8.6,0c2.4,1.4,2.4,3.6,0,5
			C1771.4,331,1767.6,331,1765.2,329.7z"/>
		<path class="st8" d="M1919.1,341.1l-71.8-41.7c2.2-1.9,2.3-4.4,0.3-6.4c3.5,1.2,8,1.1,11.3-0.3l60.9,35.4c0.1-0.9,0.1-1.8,0.2-2.7
			l-58.6-34.1c3.1-2.4,2.8-5.8-1-8c-4.1-2.4-10.9-2.4-15,0c-3.5,2-4,5-1.8,7.4c-4-1.3-9.3-1-12.8,1c-4.2,2.4-4.2,6.3,0,8.7
			c3.9,2.2,10,2.4,14.1,0.5l73.9,42.9C1919,342.9,1919,342,1919.1,341.1z M1842.7,298.5c-2.4,1.4-6.3,1.4-8.6,0
			c-2.4-1.4-2.4-3.6,0-5c2.4-1.4,6.3-1.4,8.6,0C1845.1,294.9,1845.1,297.2,1842.7,298.5z M1848.7,285.1c2.4-1.4,6.3-1.4,8.6,0
			c2.4,1.4,2.4,3.6,0,5c-2.4,1.4-6.3,1.4-8.6,0C1846.3,288.8,1846.3,286.5,1848.7,285.1z"/>
		<path class="st8" d="M1917.8,360.9l-115.9-67.4l0.8-135.7l48.9-28.2c4.1,1.7,10,1.5,13.7-0.6c4.2-2.4,4.2-6.3,0.1-8.7
			c-4.1-2.4-10.9-2.4-15,0c-3.7,2.2-4.1,5.5-1.1,7.9l-49.9,28.8l-0.8,137.3l119.1,69.2C1917.6,362.6,1917.7,361.7,1917.8,360.9z
			 M1853.5,122.1c2.4-1.4,6.3-1.4,8.6,0c2.4,1.4,2.4,3.6,0,5c-2.4,1.4-6.3,1.4-8.6,0C1851.1,125.7,1851.1,123.4,1853.5,122.1z"/>
	</g>
	<g class="st9">
		<path class="st8" d="M1850.3,120.2C1850.3,120.2,1850.3,120.2,1850.3,120.2C1850.3,120.2,1850.3,120.2,1850.3,120.2"/>
	</g>
	<g class="st7">
		<path class="st8" d="M1685,115.1c4.2-2.4,10.9-2.4,15,0c4.1,2.4,4.1,6.3,0,8.7c-1.8,1-4,1.6-6.3,1.8l-0.1,18l17.3,10
			c4.1-1.6,9.8-1.4,13.5,0.7c4.1,2.4,4.1,6.3-0.1,8.7c-4.2,2.4-10.9,2.4-15,0c-3.8-2.2-4.1-5.7-0.9-8.1l-18.2-10.6l0.1-18.9
			c-1.9-0.2-3.8-0.8-5.3-1.7C1680.8,121.4,1680.8,117.5,1685,115.1z M1721.1,156.1c-2.4-1.4-6.3-1.4-8.6,0c-2.4,1.4-2.4,3.6,0,5
			c2.4,1.4,6.3,1.4,8.6,0C1723.4,159.8,1723.4,157.5,1721.1,156.1 M1696.8,121.9c2.4-1.4,2.4-3.6,0-5c-2.4-1.4-6.3-1.4-8.6,0
			c-2.4,1.4-2.4,3.6,0,5C1690.5,123.3,1694.4,123.3,1696.8,121.9"/>
	</g>
	<g class="st7">
		<path class="st8" d="M1877.1,135.8c4.2-2.4,10.9-2.4,15,0s4.1,6.3-0.1,8.7c-3.9,2.3-10.2,2.4-14.3,0.4l-47.2,27.2l-0.2,39.2
			c2.2,0.2,4.2,0.8,5.9,1.7c4.1,2.4,4.1,6.3,0,8.7c-4.2,2.4-10.9,2.4-15,0c-4.1-2.4-4.1-6.3,0-8.7c1.6-0.9,3.6-1.5,5.7-1.7l0.2-40.1
			l48.4-27.9C1873.1,141,1873.6,137.9,1877.1,135.8z M1888.9,142.7c2.4-1.4,2.4-3.6,0-5c-2.4-1.4-6.3-1.4-8.6,0s-2.4,3.6,0,5
			C1882.7,144.1,1886.5,144.1,1888.9,142.7 M1833,219.9c2.4-1.4,2.4-3.6,0-5c-2.4-1.4-6.3-1.4-8.6,0c-2.4,1.4-2.4,3.6,0,5
			C1826.8,221.3,1830.6,221.3,1833,219.9"/>
	</g>
	<g class="st7">
		<path class="st8" d="M1436.7,8.5c4.8-2.8,12.5-2.8,17.3,0c4.7,2.8,4.7,7.2-0.1,10c-4.3,2.5-11.1,2.7-15.9,0.7l-70.2,40.6l-0.3,55
			l-25.5,14.7c3.6,2.8,3.2,6.7-1.1,9.3c-4.8,2.8-12.5,2.8-17.3,0c-4.7-2.8-4.7-7.2,0.1-10c4.2-2.5,10.8-2.7,15.6-0.8l24.4-14.1
			l0.3-55l71.4-41.2C1432,14.8,1432.5,11,1436.7,8.5z M1450.3,16.4c2.8-1.6,2.8-4.2,0-5.8c-2.7-1.6-7.2-1.6-9.9,0
			c-2.7,1.6-2.8,4.2,0,5.8C1443.1,18,1447.5,18,1450.3,16.4 M1337.8,131.2l-1.2-0.7c-2.7-1.3-6.8-1.1-9.3,0.3
			c-2.7,1.6-2.8,4.2,0,5.8c2.7,1.6,7.2,1.6,9.9,0C1339.8,135.1,1340,132.8,1337.8,131.2"/>
	</g>
	<g class="st7">
		<path class="st8" d="M1607.5,25.5c4.8-2.8,12.5-2.8,17.3,0s4.7,7.2-0.1,10c-1.8,1-4,1.7-6.3,1.9l0,8.3l-34.7,20
			c3.4,2.8,2.9,6.6-1.4,9.1c-4.8,2.8-12.5,2.8-17.3,0s-4.7-7.2,0.1-10c4.3-2.5,11.1-2.7,15.9-0.7l33.5-19.3l0-7.3
			c-2.6-0.2-5.1-0.9-7.1-2C1602.7,32.7,1602.7,28.2,1607.5,25.5z M1578.6,72.6c2.8-1.6,2.8-4.2,0-5.8c-2.7-1.6-7.2-1.6-9.9,0
			c-2.7,1.6-2.8,4.2,0,5.8C1571.4,74.2,1575.9,74.2,1578.6,72.6 M1621,33.3c2.7-1.6,2.8-4.2,0-5.8c-2.7-1.6-7.2-1.6-9.9,0
			c-2.8,1.6-2.8,4.2,0,5.8C1613.8,34.9,1618.3,34.9,1621,33.3"/>
	</g>
	<g class="st7">
		<path class="st8" d="M1527,19.9c4.8-2.8,12.5-2.8,17.3,0c4.7,2.8,4.7,7.2-0.1,10s-12.5,2.8-17.3,0c-2-1.1-3.1-2.6-3.4-4h-23.2
			l-80.9,46.7l-0.2,26.6c2.5,0.2,4.9,0.9,6.8,2c4.7,2.8,4.7,7.2-0.1,10s-12.5,2.8-17.3,0s-4.7-7.2,0.1-10c1.9-1.1,4.2-1.7,6.6-2
			l0.2-27.5l83.2-48l24.9,0C1524.1,22.3,1525.2,20.9,1527,19.9z M1422.4,109c2.8-1.6,2.8-4.2,0-5.8c-2.7-1.6-7.2-1.6-9.9,0
			c-2.8,1.6-2.8,4.2,0,5.8C1415.2,110.6,1419.6,110.6,1422.4,109 M1540.6,27.8c2.8-1.6,2.8-4.2,0-5.8c-2.7-1.6-7.2-1.6-9.9,0
			c-2.8,1.6-2.8,4.2,0,5.8C1533.3,29.4,1537.8,29.4,1540.6,27.8"/>
	</g>
	<g class="st7">
		<path class="st8" d="M1652.1,47.4c4.8-2.8,12.5-2.8,17.3,0s4.7,7.2-0.1,10c-4.4,2.5-11.3,2.7-16,0.6l-77.5,44.7l-0.2,37.5
			l-19.1,11c3.3,2.8,2.9,6.6-1.4,9.1c-4.8,2.8-12.5,2.8-17.3,0c-4.7-2.8-4.7-7.2,0.1-10c4.3-2.5,11.1-2.7,15.9-0.7l17.9-10.3
			l0.2-37.5l78.7-45.4C1647.4,53.6,1647.9,49.8,1652.1,47.4z M1665.7,55.3c2.8-1.6,2.8-4.2,0-5.8c-2.7-1.6-7.2-1.6-9.9,0
			c-2.8,1.6-2.8,4.2,0,5.8C1658.5,56.9,1663,56.9,1665.7,55.3 M1551.5,158.2c2.8-1.6,2.8-4.2,0-5.8c-2.7-1.6-7.2-1.6-9.9,0
			s-2.8,4.2,0,5.8C1544.3,159.8,1548.7,159.8,1551.5,158.2"/>
	</g>
	<g class="st7">
		<path class="st8" d="M1922.3,268c0-0.9,0-1.8,0-2.8l-54.8-31.8l0.2-34.7c2-0.2,3.8-0.8,5.4-1.7c4.2-2.4,4.2-6.3,0-8.7
			s-10.9-2.4-15,0c-4.2,2.4-4.2,6.3,0,8.7c1.8,1,4,1.6,6.3,1.8l-0.2,35.4L1922.3,268z M1861.3,195.2c-2.4-1.4-2.4-3.6,0-5
			c2.4-1.4,6.3-1.4,8.6,0c2.4,1.4,2.4,3.6,0,5C1867.6,196.6,1863.7,196.6,1861.3,195.2z"/>
	</g>
	<g class="st9">
		<g>
			<path id="SVGID_12_" class="st10" d="M1836.3,213.1C1836.3,213.1,1836.3,213.1,1836.3,213.1
				C1836.3,213.1,1836.3,213.1,1836.3,213.1z"/>
		</g>
		<g>
			<defs>
				<path id="SVGID_19_" d="M1836.3,213.1C1836.3,213.1,1836.3,213.1,1836.3,213.1C1836.3,213.1,1836.3,213.1,1836.3,213.1z"/>
			</defs>
			<clipPath id="SVGID_21_">
				<use xlink:href="#SVGID_19_"  style="overflow:visible;"/>
			</clipPath>
			<g class="st14">
				<path class="st8" d="M1836.3,213.1C1836.3,213.1,1836.3,213.1,1836.3,213.1C1836.3,213.1,1836.3,213.1,1836.3,213.1"/>
			</g>
		</g>
	</g>
	<g class="st9">
		<g>
			<path id="SVGID_14_" class="st10" d="M1758.8,214.6C1758.8,214.6,1758.8,214.6,1758.8,214.6
				C1758.8,214.6,1758.8,214.6,1758.8,214.6z"/>
		</g>
		<g>
			<defs>
				<path id="SVGID_23_" d="M1758.8,214.6C1758.8,214.6,1758.8,214.6,1758.8,214.6C1758.8,214.6,1758.8,214.6,1758.8,214.6z"/>
			</defs>
			<clipPath id="SVGID_25_">
				<use xlink:href="#SVGID_23_"  style="overflow:visible;"/>
			</clipPath>
			<g class="st15">
				<polyline class="st8" points="1758.8,214.6 1758.8,214.6 1758.8,214.6 				"/>
			</g>
		</g>
	</g>
	<g class="st9">
		<g>
			<polygon id="SVGID_16_" class="st10" points="1746.6,216.2 1746.6,216.2 1746.6,216.2 			"/>
		</g>
		<g>
			<defs>
				<polygon id="SVGID_26_" points="1746.6,216.2 1746.6,216.2 1746.6,216.2 				"/>
			</defs>
			<clipPath id="SVGID_27_">
				<use xlink:href="#SVGID_26_"  style="overflow:visible;"/>
			</clipPath>
			<g class="st16">
				<polyline class="st8" points="1746.6,216.2 1746.6,216.2 1746.6,216.2 				"/>
			</g>
		</g>
	</g>
	<g class="st7">
		<path class="st8" d="M1520.9,0.4c-0.5,0-0.9,0.1-1.4,0.1c-1,0-1.9-0.1-2.9-0.2c-0.7,0.1-1.4,0.2-2.1,0.2c0.1,0.1,0.2,0.1,0.3,0.2
			c2.7,1.6,2.7,4.2,0,5.8s-7.2,1.6-9.9,0c-2.5-1.4-2.7-3.7-0.7-5.3c0,0,0,0-0.1,0c-1.7,0-3.4-0.3-5-0.9c-2.2,2.3-1.9,5.2,0.8,7.4
			L1390,71.1l-0.3,57.8l-24.4,14.1c-4.8-2-11.4-1.7-15.7,0.8c-4.8,2.8-4.8,7.2-0.1,10s12.5,2.8,17.3,0c4.3-2.5,4.7-6.4,1.2-9.2
			l25.5-14.7l0.3-57.8l108.8-62.8c4.8,2,11.5,1.8,15.9-0.7C1522.3,6.3,1523.1,3.1,1520.9,0.4z M1363.2,151.7c-2.7,1.6-7.2,1.6-9.9,0
			c-2.7-1.6-2.7-4.2,0-5.8c2.8-1.6,7.2-1.6,9.9,0C1366,147.5,1365.9,150.1,1363.2,151.7z"/>
	</g>
	<g class="st7">
		<path class="st8" d="M1474.4,46.3c4.8-2.8,12.5-2.8,17.3,0c4.7,2.8,4.7,7.2-0.1,10c-4.4,2.5-11.3,2.7-16,0.6l-31.1,18l-0.3,59.7
			l-81.5,47l-40.5-23.5c-4.8,1.9-11.3,1.6-15.6-0.8c-4.7-2.8-4.7-7.2,0.1-10s12.5-2.8,17.3,0c4.3,2.5,4.7,6.5,1.1,9.3l37.7,21.9
			l77.6-44.8l0.3-59.7l32.3-18.7C1469.7,52.5,1470.2,48.7,1474.4,46.3z M1488,54.2c2.7-1.6,2.8-4.2,0-5.8c-2.7-1.6-7.2-1.6-9.9,0
			c-2.8,1.6-2.8,4.2,0,5.8C1480.8,55.8,1485.2,55.8,1488,54.2 M1310.3,155.1c2.7,1.6,7.2,1.6,9.9,0c2.7-1.6,2.8-4.2,0-5.8
			c-2.7-1.6-7.2-1.6-9.9,0C1307.6,151,1307.6,153.5,1310.3,155.1"/>
	</g>
</g>
<g id="图层_2_1_">
	<g class="st7">
		<path class="st8" d="M368.8,0.5c-1.1,0-2.1,0.1-3.2,0.1l-0.2,36.5l-19.9,11.5c-3.9-1.5-9.2-1.3-12.7,0.7c-3.9,2.2-3.9,5.9,0,8.2
			c3.9,2.2,10.2,2.2,14.1,0c3.6-2.1,3.9-5.3,0.9-7.6l20.8-12L368.8,0.5z M343.9,55.7c-2.2,1.3-5.9,1.3-8.1,0c-2.2-1.3-2.2-3.4,0-4.7
			c2.1-1.2,5.4-1.3,7.6-0.3l1,0.6C346.1,52.6,346,54.5,343.9,55.7z"/>
	</g>
	<g class="st7">
		<path class="st8" d="M341.7,0.7c-0.3,0.3-0.6,0.7-1.1,0.9c-2.2,1.3-5.9,1.3-8.1,0c-0.5-0.3-0.9-0.7-1.2-1c-1.5,0-3,0-4.4,0
			c0.4,1,1.3,2,2.6,2.8c1.6,0.9,3.6,1.5,5.6,1.6l0,7.3l-54.3,31.3l10.3,6c-2.7,2.2-2.3,5.4,1.1,7.4c3.9,2.2,10.2,2.2,14.1,0
			s3.9-5.9,0-8.2c-3.5-2.1-9.1-2.2-13-0.5l-8-4.7l53-30.6l0-8.1c1.9-0.2,3.8-0.7,5.3-1.6c1.3-0.8,2.2-1.7,2.6-2.7
			C344.7,0.7,343.2,0.7,341.7,0.7z M295.2,50.6c2.2-1.3,5.9-1.3,8.1,0c2.2,1.3,2.2,3.4,0,4.7c-2.2,1.3-5.9,1.3-8.1,0
			C293,54,293,51.9,295.2,50.6z"/>
	</g>
	<g class="st7">
		<path class="st8" d="M291.4,7.8c3.9-2.2,10.2-2.3,14.1,0s3.9,5.9,0,8.2c-3.5,2-9,2.2-12.9,0.6l-58,33.5c2.8,2.3,2.4,5.4-1.1,7.5
			c-3.9,2.2-10.2,2.2-14.1,0c-3.9-2.2-3.9-5.9,0-8.2c3.5-2,9-2.2,12.9-0.6l58-33.5C287.5,13,287.9,9.8,291.4,7.8z M302.4,14.2
			c2.2-1.3,2.3-3.4,0-4.7s-5.9-1.3-8.1,0s-2.3,3.4,0,4.7C296.6,15.5,300.2,15.5,302.4,14.2 M231.5,51.8l-1.6,0.9l-2.2-1.3l1.6-0.9
			c-2.2-0.7-5-0.5-6.8,0.6c-2.2,1.3-2.3,3.4,0,4.7s5.9,1.3,8.1,0C232.4,54.7,232.7,53.1,231.5,51.8"/>
	</g>
	<g class="st9">
		<polyline class="st8" points="291.4,7.8 291.4,7.8 291.4,7.8 		"/>
	</g>
	<g class="st7">
		<path class="st8" d="M431,57.7c3.9-2.2,10.2-2.2,14.1,0c3.9,2.2,3.9,5.9,0,8.2c-3.6,2.1-9.3,2.2-13.2,0.5l-72.6,41.9l-44-25.6
			c-3.9,1.6-9.3,1.3-12.7-0.7c-3.9-2.2-3.9-5.9,0-8.2c3.9-2.2,10.2-2.2,14.1,0c3.5,2.1,3.8,5.3,0.9,7.6l41.7,24.2l70.4-40.6
			C427.2,62.7,427.6,59.6,431,57.7z M442.1,64.1c2.2-1.3,2.3-3.4,0-4.7c-2.2-1.3-5.9-1.3-8.1,0c-2.2,1.3-2.3,3.4,0,4.7
			C436.2,65.4,439.8,65.4,442.1,64.1 M305.6,80.2c2.2,1.3,5.9,1.3,8.1,0c2.2-1.3,2.3-3.4,0-4.7c-2.2-1.3-5.9-1.3-8.1,0
			C303.4,76.8,303.4,78.9,305.6,80.2"/>
	</g>
	<g class="st7">
		<path class="st8" d="M276.6,56.7c3.9-1.7,9.5-1.5,13,0.5c3.9,2.2,3.8,5.9,0,8.2c-3.9,2.2-10.2,2.2-14.1,0c-3.4-2-3.8-5.1-1.1-7.4
			l-7-4.1l-34.1,19.7l-67.5,0c-0.3,1.2-1.2,2.3-2.8,3.2c-3.9,2.2-10.2,2.2-14.1,0s-3.9-5.9,0-8.2c3.9-2.2,10.2-2.2,14.1,0
			c1.5,0.9,2.4,2,2.7,3.1H232l35.4-20.5L276.6,56.7z M161.5,71.8c-0.3-0.5-0.7-1-1.4-1.4c-2.2-1.3-5.9-1.3-8.1,0s-2.3,3.4,0,4.7
			s5.9,1.3,8.1,0c0.7-0.4,1.2-0.9,1.5-1.5h-3.9l0-1.8L161.5,71.8 M286.6,63.6c2.2-1.3,2.3-3.4,0-4.7c-2.2-1.3-5.9-1.3-8.1,0
			c-2.2,1.3-2.3,3.4,0,4.7C280.8,64.9,284.4,64.9,286.6,63.6"/>
	</g>
	<g class="st9">
		<g>
			<path id="SVGID_18_" class="st10" d="M287,60c-2.2-1.3-5.9-1.3-8.1,0C281.1,58.7,284.8,58.7,287,60z"/>
		</g>
		<g>
			<defs>
				<path id="SVGID_28_" d="M287,60c-2.2-1.3-5.9-1.3-8.1,0C281.1,58.7,284.8,58.7,287,60z"/>
			</defs>
			<clipPath id="SVGID_29_">
				<use xlink:href="#SVGID_28_"  style="overflow:visible;"/>
			</clipPath>
			<g class="st17">
				<path class="st8" d="M287,60c-2.2-1.3-5.9-1.3-8.1,0C281.1,58.7,284.8,58.7,287,60"/>
			</g>
		</g>
	</g>
	<g class="st9">
		<g>
			<path id="SVGID_20_" class="st10" d="M287,60C287,60,287,60,287,60C287,60,287,60,287,60z"/>
		</g>
		<g>
			<defs>
				<path id="SVGID_30_" d="M287,60C287,60,287,60,287,60C287,60,287,60,287,60z"/>
			</defs>
			<clipPath id="SVGID_31_">
				<use xlink:href="#SVGID_30_"  style="overflow:visible;"/>
			</clipPath>
			<g class="st18">
				<polyline class="st8" points="287,60 287,60 287,60 				"/>
			</g>
		</g>
	</g>
	<g class="st7">
		<path class="st8" d="M436.7,1.7c-1,0-1.9-0.2-2.7-0.4l-5.8,3.4l-0.3,48.7l-63.2,36.5l-30.7-17.9c3-2.3,2.7-5.5-0.9-7.5
			c-3.9-2.2-10.2-2.3-14.1,0s-3.9,5.9,0,8.2c3.4,2,8.8,2.2,12.7,0.7l33,19.2L431.1,54l0.3-48.7l6.5-3.7
			C437.4,1.7,437.1,1.7,436.7,1.7z M330,70.8c-2.2,1.3-5.9,1.3-8.1,0c-2.2-1.3-2.2-3.4,0-4.7c2.2-1.3,5.9-1.3,8.1,0
			C332.3,67.4,332.3,69.5,330,70.8z"/>
	</g>
	<g class="st7">
		<path class="st8" d="M241.9,80.4c3.9-2.2,10.2-2.2,14.1,0c3.9,2.2,3.8,5.9,0,8.2c-3.9,2.2-10.2,2.2-14.1,0c-1.6-0.9-2.5-2-2.8-3.2
			h-23.8l-79.4,45.9l-0.2,39.8l-80,46.2c2.7,2.2,2.3,5.4-1.2,7.4c-3.9,2.2-10.2,2.2-14.1,0c-3.9-2.2-3.8-5.9,0-8.2
			c3.6-2.1,9.1-2.2,13-0.5l79-45.6l0.2-39.8L214,83.5h25.1C239.5,82.4,240.4,81.3,241.9,80.4z M51.5,222.9c2.2-1.3,2.3-3.4,0-4.7
			c-2.2-1.3-5.9-1.3-8.1,0s-2.3,3.4,0,4.7C45.7,224.1,49.3,224.1,51.5,222.9 M253,86.8c2.2-1.3,2.3-3.4,0-4.7
			c-2.2-1.3-5.9-1.3-8.1,0c-2.2,1.3-2.3,3.4,0,4.7C247.1,88.1,250.7,88.1,253,86.8"/>
	</g>
	<g class="st7">
		<path class="st8" d="M492.5,84.2c3.9-1.5,9.2-1.3,12.7,0.7c3.9,2.2,3.9,5.9,0,8.2s-10.2,2.2-14.1,0c-3.5-2.1-3.8-5.3-0.8-7.6
			l-13.2-7.7l-73.9,42.6h-52.2l-50.3-29.2c-3.9,1.8-9.6,1.7-13.2-0.4c-3.9-2.2-3.9-5.9,0-8.2c3.9-2.2,10.2-2.2,14.1,0
			c3.4,2,3.8,5,1.2,7.2l49.5,28.7h49.5L477,75.2L492.5,84.2z M502.1,91.3c2.2-1.3,2.3-3.4,0-4.7s-5.9-1.3-8.1,0
			c-2.2,1.3-2.3,3.4,0,4.7C496.2,92.6,499.9,92.6,502.1,91.3 M290.4,89c2.2,1.3,5.9,1.3,8.1,0c2.2-1.3,2.3-3.4,0-4.7
			c-2.2-1.3-5.9-1.3-8.1,0C288.2,85.6,288.2,87.7,290.4,89"/>
	</g>
	<g class="st7">
		<path class="st8" d="M156.3,88.7c3.9-2.2,10.2-2.2,14.1,0c3.9,2.2,3.9,5.9,0,8.2c-3.6,2.1-9.3,2.2-13.2,0.5l-53,30.6l-0.2,33.4
			l-72.5,41.8c2.7,2.2,2.3,5.4-1.2,7.4c-3.9,2.2-10.2,2.2-14.1,0c-3.9-2.2-3.8-5.9,0-8.2c3.6-2.1,9.1-2.2,13-0.5l71.5-41.3l0.2-33.3
			L155,96C152.4,93.7,152.9,90.7,156.3,88.7z M27.3,208.8c2.2-1.3,2.3-3.4,0-4.7c-2.2-1.3-5.9-1.3-8.1,0c-2.2,1.3-2.3,3.4,0,4.7
			C21.4,210.1,25.1,210.1,27.3,208.8 M167.3,95.1c2.2-1.3,2.3-3.4,0-4.7c-2.2-1.3-5.9-1.3-8.1,0c-1.8,1-2.1,2.5-1.1,3.8l2.6-1.5
			l2.2,1.3l-2.7,1.6C162.4,96.4,165.4,96.2,167.3,95.1"/>
	</g>
	<g class="st9">
		<g>
			<path id="SVGID_22_" class="st10" d="M167.4,95.1L167.4,95.1c2.2-1.3,2.2-3.4,0-4.7C169.6,91.7,169.6,93.8,167.4,95.1z"/>
		</g>
		<g>
			<defs>
				<path id="SVGID_32_" d="M167.4,95.1L167.4,95.1c2.2-1.3,2.2-3.4,0-4.7C169.6,91.7,169.6,93.8,167.4,95.1z"/>
			</defs>
			<clipPath id="SVGID_33_">
				<use xlink:href="#SVGID_32_"  style="overflow:visible;"/>
			</clipPath>
			<g class="st19">
				<path class="st8" d="M167.4,95.1L167.4,95.1c2.2-1.3,2.2-3.4,0-4.7C169.6,91.7,169.6,93.8,167.4,95.1"/>
			</g>
		</g>
	</g>
	<g class="st9">
		<path class="st8" d="M156.3,88.7c3.9-2.2,10.2-2.2,14.1,0C166.5,86.4,160.2,86.4,156.3,88.7"/>
	</g>
	<g class="st7">
		<path class="st8" d="M347.4,137.9l76.6,0L616,249.4l-0.3,48.2l-43.4,25.1c2.7,2.2,2.3,5.4-1.2,7.3c-3.9,2.2-10.2,2.2-14.1,0
			c-3.9-2.2-3.8-5.9,0-8.2c3.6-2.1,9.2-2.2,13-0.5l42.5-24.5l0.3-46.7L422.7,139.7l-76.6,0l-64.5-37.5c-3.9,1.8-9.6,1.7-13.2-0.4
			c-3.9-2.2-3.8-5.9,0-8.2c3.9-2.2,10.2-2.2,14.1,0c3.4,2,3.8,5,1.3,7.2L347.4,137.9z M568.1,328.3c2.2-1.3,2.3-3.4,0-4.7
			s-5.9-1.3-8.1,0c-2.2,1.3-2.3,3.4,0,4.7S565.8,329.6,568.1,328.3 M271.3,100c2.2,1.3,5.9,1.3,8.1,0c2.2-1.3,2.3-3.4,0-4.7
			c-2.2-1.3-5.9-1.3-8.1,0C269.1,96.6,269.1,98.7,271.3,100"/>
	</g>
	<g class="st7">
		<path class="st8" d="M305.9,169l144.3,0l147.6,85.8l-0.2,37.9l-63,36.3l-0.3,45.1l-26.9,15.5c2.5,2.2,2,5.3-1.3,7.2
			c-3.9,2.2-10.2,2.3-14.1,0s-3.9-5.9,0-8.2c3.6-2.1,9.4-2.2,13.3-0.4l25.9-14.9l0.3-45.1l63-36.3l0.2-36.4l-145.8-84.7l-144.3,0
			l-70.7-41.1c-3.9,1.8-9.6,1.6-13.1-0.5c-3.9-2.2-3.8-5.9,0-8.2c3.9-2.2,10.2-2.2,14.1,0c3.4,2,3.8,5,1.2,7.3L305.9,169z
			 M503.1,395.1c2.2-1.3,2.3-3.4,0-4.7s-5.9-1.3-8.1,0c-2.2,1.3-2.3,3.4,0,4.7C497.3,396.4,500.9,396.4,503.1,395.1 M223.7,127.5
			c2.2,1.3,5.9,1.3,8.1,0c2.2-1.3,2.3-3.4,0-4.7c-2.2-1.3-5.9-1.3-8.1,0C221.5,124.1,221.5,126.2,223.7,127.5"/>
	</g>
	<g class="st7">
		<path class="st8" d="M57.4,116.4c3.9-2.2,10.2-2.2,14.1,0c3.5,2,3.8,5.2,1,7.5l16.9,9.8l-0.1,10.7l-54.4,31.4
			c3,2.3,2.7,5.5-0.9,7.6c-3.9,2.2-10.2,2.2-14.1,0s-3.8-5.9,0-8.2c3.4-2,8.7-2.2,12.6-0.7l53.6-30.9l0.1-9.2l-16-9.3
			c-3.9,1.6-9.4,1.4-12.9-0.6C53.5,122.3,53.5,118.6,57.4,116.4z M31.1,181.6c2.2-1.3,2.3-3.4,0-4.7c-2.2-1.3-5.9-1.3-8.1,0
			s-2.3,3.4,0,4.7C25.2,182.9,28.8,182.9,31.1,181.6 M68.5,122.8c2.2-1.3,2.3-3.4,0-4.7c-2.2-1.3-5.9-1.3-8.1,0
			c-2.2,1.3-2.3,3.4,0,4.7C62.6,124.1,66.2,124.1,68.5,122.8"/>
	</g>
	<g class="st9">
		<g>
			<path id="SVGID_24_" class="st10" d="M233.8,129.7L233.8,129.7c-3.9,1.8-9.6,1.6-13.1-0.5C224.3,131.3,229.9,131.5,233.8,129.7z"
				/>
		</g>
		<g>
			<defs>
				<path id="SVGID_34_" d="M233.8,129.7L233.8,129.7c-3.9,1.8-9.6,1.6-13.1-0.5C224.3,131.3,229.9,131.5,233.8,129.7z"/>
			</defs>
			<clipPath id="SVGID_35_">
				<use xlink:href="#SVGID_34_"  style="overflow:visible;"/>
			</clipPath>
			<g class="st20">
				<path class="st8" d="M233.8,129.7L233.8,129.7c-3.9,1.8-9.6,1.6-13.1-0.5C224.3,131.3,229.9,131.5,233.8,129.7"/>
			</g>
		</g>
	</g>
	<g class="st7">
		<path class="st8" d="M387.3,143.7c3.9-2.2,10.2-2.2,14.1,0c3.9,2.2,3.9,5.9,0,8.2c-3.9,2.2-10.2,2.2-14.1,0
			c-1.5-0.9-2.4-2-2.8-3.2h-83.1l-77.9-45.2L172.4,133l0,7c1.8,0.2,3.5,0.7,4.9,1.5c3.9,2.2,3.9,5.9,0,8.2c-3.9,2.2-10.2,2.2-14.1,0
			s-3.9-5.9,0-8.2c1.7-1,3.8-1.5,6.1-1.7l0-7.7l54.4-31.4l79.2,46l81.8,0C384.8,145.7,385.8,144.6,387.3,143.7z M398.4,150.1
			c2.2-1.3,2.3-3.4,0-4.7c-2.2-1.3-5.9-1.3-8.1,0c-2.2,1.3-2.3,3.4,0,4.7C392.5,151.4,396.1,151.4,398.4,150.1 M174.2,148
			c2.2-1.3,2.3-3.4,0-4.7c-0.7-0.4-1.6-0.7-2.5-0.8h-2.5v-0.1c-1.1,0.1-2.2,0.4-3.1,0.9c-2.2,1.3-2.3,3.4,0,4.7
			C168.3,149.3,171.9,149.3,174.2,148"/>
	</g>
	<g class="st7">
		<path class="st8" d="M285.2,191.8c-1.5-0.9-3.4-1.4-5.4-1.6l0.1-20.8l-38.1-22.1c2.9-2.3,2.6-5.5-0.9-7.5
			c-3.9-2.2-10.2-2.2-14.1,0c-3.9,2.2-3.9,5.9,0,8.2c3.5,2,8.9,2.2,12.8,0.6l37.2,21.6l-0.1,20c-2,0.2-3.9,0.7-5.5,1.6
			c-3.9,2.2-3.9,5.9,0,8.2c3.9,2.2,10.2,2.2,14.1,0C289,197.7,289,194.1,285.2,191.8z M237.8,146.2c-2.2,1.3-5.9,1.3-8.1,0
			c-2.2-1.3-2.2-3.4,0-4.7c2.2-1.3,5.9-1.3,8.1,0C240.1,142.8,240.1,144.9,237.8,146.2 M282.1,198.3c-2.2,1.3-5.9,1.3-8.1,0
			s-2.2-3.4,0-4.7c2.2-1.3,5.9-1.3,8.1,0C284.4,194.9,284.4,197,282.1,198.3"/>
	</g>
	<g class="st7">
		<path class="st8" d="M172.1,55.5c3.9-2.2,10.2-2.2,14.1,0s3.8,5.9,0,8.2c-3.9,2.2-10.2,2.2-14.1,0c-1.6-0.9-2.5-2.1-2.8-3.3
			l-123.3,0L22.3,46.6c-3.9,1.6-9.3,1.3-12.7-0.7c-3.9-2.2-3.8-5.9,0-8.2c3.9-2.2,10.2-2.2,14.1,0c3.5,2.1,3.8,5.3,0.9,7.5
			l22.7,13.2h122.1C169.7,57.4,170.6,56.4,172.1,55.5z M183.1,61.9c2.2-1.3,2.3-3.4,0-4.7c-2.2-1.3-5.9-1.3-8.1,0
			c-2.2,1.3-2.3,3.4,0,4.7C177.3,63.2,180.9,63.2,183.1,61.9 M12.6,44.2c2.2,1.3,5.9,1.3,8.1,0c2.2-1.3,2.3-3.4,0-4.7
			c-2.2-1.3-5.9-1.3-8.1,0C10.4,40.8,10.3,42.9,12.6,44.2"/>
	</g>
	<g class="st7">
		<path class="st8" d="M537.8,237.8c3.9-2.2,10.2-2.3,14.1,0c3.5,2,3.8,5.1,1.1,7.4l20.5,11.9l-0.1,26.2l-91.7,53
			c2.4,2.2,1.9,5.2-1.4,7.1c-3.9,2.2-10.2,2.2-14.1,0s-3.9-5.9,0-8.2c3.7-2.1,9.5-2.2,13.4-0.4l90.7-52.3l0.1-24.7l-19.6-11.4
			c-3.9,1.7-9.4,1.5-13-0.5C533.9,243.7,533.9,240,537.8,237.8z M548.9,244.2c2.2-1.3,2.3-3.4,0-4.7c-2.2-1.3-5.9-1.3-8.1,0
			c-2.2,1.3-2.3,3.4,0,4.7C543,245.5,546.7,245.5,548.9,244.2 M477.2,341.7c2.2-1.3,2.3-3.4,0-4.7s-5.9-1.3-8.1,0
			c-2.2,1.3-2.3,3.4,0,4.7C471.3,343,474.9,343,477.2,341.7"/>
	</g>
	<g class="st7">
		<path class="st8" d="M253,3.8c3.9-2.2,10.2-2.2,14.1,0s3.9,5.9,0,8.2c-3.6,2.1-9.2,2.2-13.1,0.5l-53.2,30.7h-40
			c-0.2,1.3-1.2,2.5-2.9,3.5c-3.9,2.2-10.2,2.2-14.1,0s-3.9-5.9,0-8.2c3.9-2.2,10.2-2.3,14.1,0c1.4,0.8,2.2,1.8,2.6,2.8l38.9,0
			l52.4-30.2C249.1,8.9,249.5,5.8,253,3.8z M264,10.3c2.2-1.3,2.3-3.4,0-4.7s-5.9-1.3-8.1,0c-2.2,1.3-2.3,3.4,0,4.7
			C258.2,11.6,261.8,11.6,264,10.3 M154.9,45c2.2-1.3,2.3-3.4,0-4.7c-2.2-1.3-5.9-1.3-8.1,0c-2.2,1.3-2.3,3.4,0,4.7
			C149,46.3,152.6,46.3,154.9,45"/>
	</g>
	<g class="st7">
		<path class="st8" d="M439.4,179c3.9-2.2,10.2-2.2,14.1,0s3.9,5.9,0,8.2c-3.9,2.2-10.2,2.2-14.1,0c-1.7-1-2.6-2.2-2.8-3.5h-27.2
			l-29.6,17.1c3.3,2.3,3,5.6-0.6,7.8c-3.9,2.2-10.2,2.3-14.1,0c-3.9-2.2-3.9-5.9,0-8.2c3.3-1.9,8.4-2.2,12.3-0.8l30.7-17.7h28.7
			C437.2,180.8,438,179.8,439.4,179z M376.1,206.8c2.2-1.3,2.3-3.4,0-4.7c-2.2-1.3-5.9-1.3-8.1,0s-2.3,3.4,0,4.7
			C370.2,208.1,373.8,208.1,376.1,206.8 M450.5,185.4c2.2-1.3,2.3-3.4,0-4.7c-2.2-1.3-5.9-1.3-8.1,0c-2.2,1.3-2.3,3.4,0,4.7
			C444.6,186.7,448.2,186.7,450.5,185.4"/>
	</g>
	<g class="st7">
		<path class="st8" d="M531.2,285.3c3.9-2.2,10.2-2.3,14.1,0s3.8,5.9,0,8.2c-3.5,2-9,2.2-12.9,0.6l-36.3,21l-34.4,0l-68.4,39.5
			c2.6,2.2,2.1,5.3-1.3,7.3c-3.9,2.2-10.2,2.2-14.1,0s-3.9-5.9,0-8.2c3.6-2.1,9.3-2.2,13.2-0.5l69.2-40h34.4l35.4-20.4
			C527.4,290.5,527.7,287.3,531.2,285.3z M389.1,360c2.2-1.3,2.3-3.4,0-4.7s-5.9-1.3-8.1,0c-2.2,1.3-2.3,3.4,0,4.7
			C383.2,361.3,386.8,361.3,389.1,360 M542.3,291.7c2.2-1.3,2.3-3.4,0-4.7s-5.9-1.3-8.1,0c-2.2,1.3-2.3,3.4,0,4.7
			C536.4,293,540.1,293,542.3,291.7"/>
	</g>
	<g class="st7">
		<path class="st8" d="M103.6,216.3l115.5-66.7l33.3,19.3l-0.1,17.9L214,208.9c2.2,2.2,1.7,5.1-1.6,7c-3.9,2.2-10.2,2.2-14.1,0
			c-3.9-2.2-3.8-5.9,0-8.2c3.7-2.2,9.7-2.2,13.6-0.3l37.1-21.4l0.1-16.3L219,152.2l-113.2,65.3c2.9,2.3,2.6,5.5-1,7.5
			c-3.9,2.2-10.2,2.2-14.1,0s-3.8-5.9,0-8.2C94.3,214.9,99.7,214.7,103.6,216.3z M101.9,223.4c2.2-1.3,2.3-3.4,0-4.7
			c-2.2-1.3-5.9-1.3-8.1,0c-2.2,1.3-2.3,3.4,0,4.7C96,224.6,99.7,224.6,101.9,223.4 M209.4,214.1c2.2-1.3,2.3-3.4,0-4.7
			c-2.2-1.3-5.9-1.3-8.1,0c-2.2,1.3-2.3,3.4,0,4.7C203.6,215.4,207.2,215.4,209.4,214.1"/>
	</g>
	<g class="st7">
		<path class="st8" d="M270.6,238.6c3.9-2.2,10.2-2.2,14.1,0s3.9,5.9,0,8.2s-10.2,2.2-14.1,0c-1.6-0.9-2.5-2.1-2.8-3.2h-60
			l-55.2-32.1l-22.8,13.2c2.9,2.3,2.6,5.5-0.9,7.6c-3.9,2.2-10.2,2.2-14.1,0c-3.9-2.2-3.8-5.9,0-8.2c3.5-2,8.8-2.2,12.7-0.7
			l25.1-14.5l56.6,32.9h58.7C268.2,240.6,269.1,239.5,270.6,238.6z M281.6,245c2.2-1.3,2.3-3.4,0-4.7c-2.2-1.3-5.9-1.3-8.1,0
			c-2.2,1.3-2.3,3.4,0,4.7S279.4,246.3,281.6,245 M125.8,230.4c2.2-1.3,2.3-3.4,0-4.7c-2.2-1.3-5.9-1.3-8.1,0
			c-2.2,1.3-2.3,3.4,0,4.7C119.9,231.7,123.6,231.7,125.8,230.4"/>
	</g>
</g>
</svg>
